<svg id="Capa_1" enable-background="new 0 0 512 512" height="512" viewBox="0 0 512 512" width="512" xmlns="http://www.w3.org/2000/svg" xmlns:xlink="http://www.w3.org/1999/xlink"><linearGradient id="lg1"><stop offset="0" stop-color="#560dff"/><stop offset="1" stop-color="#73ecff"/></linearGradient><linearGradient id="SVGID_1_" gradientUnits="userSpaceOnUse" x1="74.981" x2="437.02" xlink:href="#lg1" y1="437.019" y2="74.98"/><radialGradient id="SVGID_2_" cx="256.001" cy="256" gradientUnits="userSpaceOnUse" r="256"><stop offset="0" stop-color="#364aff"/><stop offset=".1101" stop-color="#3951fe" stop-opacity=".89"/><stop offset=".2743" stop-color="#4266fa" stop-opacity=".726"/><stop offset=".4723" stop-color="#5187f5" stop-opacity=".528"/><stop offset=".6964" stop-color="#65b5ed" stop-opacity=".304"/><stop offset=".9398" stop-color="#7eefe3" stop-opacity=".06"/><stop offset="1" stop-color="#85ffe0" stop-opacity="0"/></radialGradient><linearGradient id="SVGID_3_" gradientUnits="userSpaceOnUse" x1="-72.694" x2="524.187" y1="584.695" y2="-12.186"><stop offset="0" stop-color="#85ffe0"/><stop offset=".1444" stop-color="#8cffe2"/><stop offset=".3596" stop-color="#a1ffe7"/><stop offset=".619" stop-color="#c2ffef"/><stop offset=".9104" stop-color="#effffb"/><stop offset="1" stop-color="#fff"/></linearGradient><linearGradient id="SVGID_4_" gradientUnits="userSpaceOnUse" x1="74.902" x2="395.353" xlink:href="#lg1" y1="437.098" y2="116.648"/><linearGradient id="SVGID_5_" gradientUnits="userSpaceOnUse" x1="-16.569" x2="404.529" xlink:href="#lg1" y1="528.569" y2="107.471"/><linearGradient id="SVGID_6_" gradientTransform="matrix(0 -1 1 0 0 512)" gradientUnits="userSpaceOnUse" x1="151.67" x2="399.72" y1="360.33" y2="112.28"><stop offset="0" stop-color="#364aff"/><stop offset=".0294" stop-color="#4162fb" stop-opacity=".971"/><stop offset=".0816" stop-color="#5187f5" stop-opacity=".918"/><stop offset=".1402" stop-color="#5fa8ef" stop-opacity=".86"/><stop offset=".2048" stop-color="#6bc3ea" stop-opacity=".795"/><stop offset=".2776" stop-color="#75d9e6" stop-opacity=".722"/><stop offset=".3623" stop-color="#7ceae4" stop-opacity=".638"/><stop offset=".4665" stop-color="#81f6e2" stop-opacity=".534"/><stop offset=".6115" stop-color="#84fde0" stop-opacity=".389"/><stop offset="1" stop-color="#85ffe0" stop-opacity="0"/></linearGradient><linearGradient id="lg2"><stop offset="0" stop-color="#364aff"/><stop offset=".0268" stop-color="#3f5ffb" stop-opacity=".973"/><stop offset=".083" stop-color="#4f84f5" stop-opacity=".917"/><stop offset=".1458" stop-color="#5ea6ef" stop-opacity=".854"/><stop offset=".2145" stop-color="#6ac2eb" stop-opacity=".786"/><stop offset=".2915" stop-color="#74d8e7" stop-opacity=".709"/><stop offset=".3803" stop-color="#7ceae4" stop-opacity=".62"/><stop offset=".4882" stop-color="#81f6e2" stop-opacity=".512"/><stop offset=".6354" stop-color="#84fde0" stop-opacity=".365"/><stop offset="1" stop-color="#85ffe0" stop-opacity="0"/></linearGradient><linearGradient id="SVGID_7_" gradientTransform="matrix(-1 0 0 -1 512 512)" gradientUnits="userSpaceOnUse" x1="146.473" x2="394.523" xlink:href="#lg2" y1="365.527" y2="117.477"/><linearGradient id="SVGID_8_" gradientTransform="matrix(0 1 -1 0 512 0)" gradientUnits="userSpaceOnUse" x1="146.993" x2="395.043" xlink:href="#lg2" y1="365.008" y2="116.957"/><linearGradient id="SVGID_9_" gradientUnits="userSpaceOnUse" x1="156.356" x2="404.417" xlink:href="#lg2" y1="354.617" y2="106.557"/><g><circle cx="256" cy="256" fill="url(#SVGID_1_)" r="256"/><circle cx="256" cy="256" fill="url(#SVGID_2_)" r="256"/><path d="m256 487.076c-5.757.001-11.518-2.264-15.933-6.782-67.976-69.561-138.8-140.385-208.361-208.361-9.041-8.832-9.041-23.034 0-31.866 69.561-67.976 140.385-138.8 208.361-208.361 8.832-9.042 23.034-9.042 31.866 0 67.976 69.561 138.799 140.385 208.361 208.361 9.041 8.832 9.041 23.034 0 31.866-69.561 67.976-140.385 138.799-208.361 208.361-4.415 4.518-10.176 6.782-15.933 6.782z" fill="url(#SVGID_3_)"/><path d="m80.602 256c58.466 57.645 117.754 116.932 175.398 175.398 57.644-58.466 116.932-117.753 175.398-175.398-116.932 0-233.864 0-350.796 0z" fill="url(#SVGID_4_)"/><path d="m256 80.602c-57.644 58.466-116.932 117.754-175.398 175.398 97.301 96.723 253.495 96.723 350.796 0 .017.745-176.143-175.414-175.398-175.398z" fill="url(#SVGID_5_)"/><path d="m80.602 256c58.466 57.645 117.754 116.932 175.398 175.398 57.645-58.466 116.932-117.753 175.398-175.398-58.466-57.644-117.753-116.932-175.398-175.398.745-.017-175.415 176.143-175.398 175.398z" fill="url(#SVGID_6_)"/><path d="m256 431.398c57.645-58.466 116.932-117.753 175.398-175.398-58.466-57.644-117.754-116.932-175.398-175.398-57.644 58.466-116.932 117.754-175.398 175.398-.016-.745 176.143 175.415 175.398 175.398z" fill="url(#SVGID_7_)"/><path d="m431.398 256c-58.466-57.644-117.754-116.932-175.398-175.398-57.644 58.466-116.932 117.754-175.398 175.398 58.466 57.645 117.754 116.932 175.398 175.398-.745.017 175.415-176.143 175.398-175.398z" fill="url(#SVGID_8_)"/><path d="m254.981 80.602c-57.654 58.476-116.947 117.763-175.413 175.398 58.466 57.635 117.758 116.922 175.413 175.398 57.635-58.456 116.917-117.744 175.383-175.398.012.736-176.133-175.423-175.383-175.398z" fill="url(#SVGID_9_)"/></g></svg>