<svg width="44" height="44" viewBox="0 0 44 44" fill="none" xmlns="http://www.w3.org/2000/svg">
<path d="M36.6667 12.8333H7.33335C5.30831 12.8333 3.66669 14.4749 3.66669 16.5V34.8333C3.66669 36.8584 5.30831 38.5 7.33335 38.5H36.6667C38.6917 38.5 40.3334 36.8584 40.3334 34.8333V16.5C40.3334 14.4749 38.6917 12.8333 36.6667 12.8333Z" stroke="black" stroke-width="2" stroke-linecap="round" stroke-linejoin="round"/>
<path d="M29.3334 38.5V9.16667C29.3334 8.19421 28.947 7.26158 28.2594 6.57394C27.5718 5.88631 26.6391 5.5 25.6667 5.5H18.3334C17.3609 5.5 16.4283 5.88631 15.7406 6.57394C15.053 7.26158 14.6667 8.19421 14.6667 9.16667V38.5" stroke="black" stroke-width="2" stroke-linecap="round" stroke-linejoin="round"/>
</svg>
