<?xml version="1.0" encoding="iso-8859-1"?>
<!-- Generator: Adobe Illustrator 19.0.0, SVG Export Plug-In . SVG Version: 6.00 Build 0)  -->
<svg xmlns="http://www.w3.org/2000/svg" xmlns:xlink="http://www.w3.org/1999/xlink" version="1.1" id="Layer_1" x="0px" y="0px" viewBox="0 0 512 512" style="enable-background:new 0 0 512 512;" xml:space="preserve" width="512" height="512">
<g id="XMLID_1156_">
	<g id="XMLID_416_">
		<path id="XMLID_419_" d="M488,355.335V70.5c0-16.818-13.683-30.5-30.5-30.5H385V30c0-16.542-13.458-30-30-30s-30,13.458-30,30v10    H163V30c0-16.542-13.458-30-30-30s-30,13.458-30,30v10H30.5C13.683,40,0,53.682,0,70.5v371C0,458.318,13.683,472,30.5,472h136.301    c5.522,0,10-4.477,10-10s-4.478-10-10-10H30.5c-5.79,0-10.5-4.71-10.5-10.5v-371C20,64.71,24.71,60,30.5,60H103v10    c0,16.542,13.458,30,30,30s30-13.458,30-30V60h162v10c0,16.542,13.458,30,30,30s30-13.458,30-30V60h72.5    c5.79,0,10.5,4.71,10.5,10.5V120H90c-5.522,0-10,4.477-10,10s4.478,10,10,10h378v198.437c-8.514-5.37-17.944-9.41-28-11.831V178    c0-5.523-4.478-10-10-10H58c-5.522,0-10,4.477-10,10v236c0,5.523,4.478,10,10,10h266.197c0.621,9.815,2.752,19.225,6.169,28H246.8    c-5.522,0-10,4.477-10,10s4.478,10,10,10h94.303c17.027,24.174,45.147,40,76.897,40c51.832,0,94-42.168,94-94    C512,393.946,502.914,371.978,488,355.335z M143,70c0,5.514-4.486,10-10,10s-10-4.486-10-10V30c0-5.514,4.486-10,10-10    s10,4.486,10,10V70z M365,70c0,5.514-4.486,10-10,10s-10-4.486-10-10V30c0-5.514,4.486-10,10-10s10,4.486,10,10V70z M418,324    c-4.649,0-9.219,0.345-13.69,1H365.6v-58H420v57.025C419.335,324.011,418.669,324,418,324z M325.043,404H291.2v-59H345.6v13.114    C334.937,370.983,327.633,386.731,325.043,404z M68,267h54.4v58H68V267z M142.4,267H196.8v58H142.4V267z M291.2,267H345.6v58    H291.2V267z M271.2,325h-54.4v-58h54.4V325z M291.2,247v-59H345.6v59H291.2z M271.2,247h-54.4v-59h54.4V247z M196.8,247H142.4v-59    H196.8V247z M196.8,345v59H142.4v-59H196.8z M216.8,345h54.4v59h-54.4V345z M420,247h-54.4v-59H420V247z M122.4,188v59H68v-59    H122.4z M68,345h54.4v59H68V345z M418,492c-40.804,0-74-33.196-74-74s33.196-74,74-74s74,33.196,74,74S458.804,492,418,492z"/>
		<path id="XMLID_1115_" d="M446.929,393.762L416,424.691l-13.762-13.762c-3.904-3.905-10.234-3.905-14.143,0    c-3.905,3.905-3.905,10.237,0,14.142l20.833,20.833c1.876,1.875,4.419,2.929,7.071,2.929s5.195-1.054,7.071-2.929l38-38    c3.905-3.905,3.905-10.237,0-14.143C457.165,389.857,450.835,389.857,446.929,393.762z"/>
		<path id="XMLID_1116_" d="M206.8,452c-2.63,0-5.21,1.07-7.07,2.93c-1.859,1.86-2.93,4.44-2.93,7.07c0,2.63,1.07,5.21,2.93,7.07    c1.86,1.86,4.44,2.93,7.07,2.93s5.21-1.07,7.07-2.93c1.859-1.86,2.93-4.44,2.93-7.07c0-2.63-1.07-5.21-2.93-7.07    C212.01,453.07,209.43,452,206.8,452z"/>
		<path id="XMLID_1120_" d="M57.069,137.07C58.93,135.21,60,132.63,60,130c0-2.63-1.07-5.21-2.931-7.07    C55.21,121.07,52.63,120,50,120c-2.641,0-5.21,1.07-7.07,2.93c-1.86,1.86-2.93,4.44-2.93,7.07c0,2.63,1.069,5.21,2.93,7.07    S47.359,140,50,140C52.63,140,55.21,138.93,57.069,137.07z"/>
	</g>
</g>















</svg>
