<svg xmlns="http://www.w3.org/2000/svg" enable-background="new 0 0 1080 1080" viewBox="0 0 1080 1080"><path fill="#FFBE55" d="M138.95,731.168c0-209.822,170.094-379.916,379.916-379.916s379.916,170.094,379.916,379.916
	" opacity=".07"/><path fill="#FFBE55" d="M671.504,607.021h-21.221c-0.375,0-0.679,0.304-0.679,0.679v16.102c0,4.685,3.798,8.483,8.483,8.483
				h5.614c4.685,0,8.483-3.798,8.483-8.483V607.7C672.183,607.325,671.879,607.021,671.504,607.021z"/><path fill="#FFBE55" d="M668.96,629.509c4.789-2.704,13.004-10.684,11.636-16.299c-0.366-1.501-1.283-2.631-2.654-3.267
				c-3.173-1.475-7.716,0.306-8.223,0.514l1.512,3.153c1.096-0.446,3.775-1.175,5.036-0.586c0.255,0.119,0.536,0.324,0.686,0.943
				c0.798,3.272-5.631,10.167-9.939,12.6L668.96,629.509z"/><path fill="#FAFAFA" d="M515.851,620.209H406.1c-1.848,0-3.347-1.498-3.347-3.347V553.92c0-1.848,1.498-3.346,3.346-3.346h109.751
			c1.848,0,3.346,1.498,3.346,3.346v62.942C519.197,618.71,517.699,620.209,515.851,620.209z"/><path fill="#FAFAFA" d="M474.144,629.284c-0.417-1.113-0.594-2.321-0.594-3.528v-5.548h-12.494h-0.581h-11.218v5.548
			c0,1.207-0.177,2.415-0.594,3.528c-0.58,1.548-1.691,3.267-3.764,3.267h15.575h0.581h16.852
			C475.835,632.551,474.724,630.832,474.144,629.284z"/><path fill="#D3D3D3" d="M698.362,640.01H349.647c-1.17,0-2.118-0.948-2.118-2.118v-3.258c0-1.17,0.948-2.118,2.118-2.118h348.715
			c1.17,0,2.118,0.948,2.118,2.118v3.258C700.481,639.062,699.532,640.01,698.362,640.01z"/><rect width="8.01" height="90.034" x="407.903" y="640.01" fill="#D3D3D3"/><rect width="8.01" height="90.034" x="627.037" y="640.01" fill="#D3D3D3"/><path fill="#2A94F4" d="M515.851,609.133H406.1c-1.848,0-3.347-1.498-3.347-3.347v-62.942c0-1.848,1.498-3.347,3.347-3.347
			h109.751c1.848,0,3.346,1.498,3.346,3.346v62.942C519.197,607.635,517.699,609.133,515.851,609.133z"/><rect width="107.585" height="61.174" x="407.264" y="543.372" fill="#FAFAFA"/><path fill="#FAFAFA" d="M638.089,620.209H528.339c-1.848,0-3.347-1.498-3.347-3.347V553.92c0-1.848,1.498-3.347,3.347-3.347
			h109.751c1.848,0,3.347,1.498,3.347,3.347v62.942C641.436,618.71,639.938,620.209,638.089,620.209z"/><path fill="#FAFAFA" d="M596.382,629.284c-0.417-1.113-0.594-2.321-0.594-3.528v-5.548h-12.494h-0.581h-11.218v5.548
			c0,1.207-0.177,2.415-0.594,3.528c-0.58,1.548-1.691,3.267-3.764,3.267h15.575h0.581h16.852
			C598.073,632.551,596.963,630.832,596.382,629.284z"/><path fill="#2A94F4" d="M638.089,609.133H528.339c-1.848,0-3.347-1.498-3.347-3.347v-62.942c0-1.848,1.498-3.347,3.347-3.347
			h109.751c1.848,0,3.347,1.498,3.347,3.347v62.942C641.436,607.635,639.938,609.133,638.089,609.133z"/><rect width="107.585" height="61.174" x="529.502" y="543.372" fill="#FAFAFA"/><path fill="#FFF" d="M660.316,600.878c0.714-0.256,1.415-0.64,2.023-1.102c0.608-0.458,1.156-1.021,1.437-1.649
			c0.3-0.631,0.219-1.241-0.111-1.739c-0.34-0.504-0.898-0.927-1.507-1.285c-0.615-0.358-1.293-0.655-1.99-0.919
			c-0.323-0.118-0.763-0.275-1.175-0.462c-0.415-0.179-0.817-0.389-1.218-0.611c-1.588-0.906-3.032-2.16-4.185-3.675
			c-1.149-1.515-2.064-3.258-2.611-5.179c-0.543-1.92-0.76-4.022-0.372-6.258c0.203-1.116,0.561-2.265,1.156-3.398
			c0.59-1.128,1.435-2.233,2.526-3.139c1.082-0.914,2.392-1.601,3.721-2.015c1.333-0.419,2.667-0.589,3.926-0.605l1.341-0.017
			c3.086-0.039,5.619,2.431,5.658,5.517c0.039,3.086-2.431,5.619-5.517,5.658c-0.895,0.011-1.766-0.201-2.521-0.565
			c-0.667-0.325-1.021-0.499-1.447-0.52c-0.43-0.035-1.097,0.348-1.582,1.188c-0.49,0.824-0.798,1.975-0.843,3.189
			c-0.049,1.218,0.146,2.515,0.621,3.73c0.465,1.222,1.191,2.373,2.151,3.367c0.243,0.244,0.495,0.486,0.766,0.709
			c0.266,0.228,0.538,0.426,0.913,0.687c0.695,0.501,1.374,1.042,2.001,1.678c0.616,0.638,1.219,1.372,1.538,2.326
			c0.161,0.47,0.227,1,0.145,1.501c-0.081,0.502-0.289,0.951-0.546,1.326c-0.533,0.746-1.214,1.253-1.906,1.697
			c-0.703,0.436-1.413,0.802-2.17,1.147c-0.157,0.071-0.341,0.002-0.413-0.154c-0.071-0.157-0.002-0.341,0.155-0.413
			c0.008-0.003,0.015-0.007,0.023-0.009L660.316,600.878z"/><path fill="#FAFAFA" d="M613.67,596.83h-59.085c-3.474,0-6.29-2.816-6.29-6.289v-33.677c0-3.474,2.816-6.289,6.29-6.289h59.085
				c3.474,0,6.289,2.816,6.289,6.289v33.677C619.959,594.014,617.143,596.83,613.67,596.83z"/><path fill="#0B4870" d="M454.86,631.978c0-3.721,3.016-6.737,6.737-6.737s6.737,3.016,6.737,6.737"/><path fill="#FAB9AF" d="M402.56,575.419c0,0,4.474-2.139,6.438-3.259c1.964-1.117,7.015-2.654,7.423-3.018
					c0.407-0.366,14.974-1.264,15.858-2.025c0.883-0.761,1.742,1.786-2.033,2.613c-3.775,0.827-9.028,2.849-9.316,4.325
					c-0.287,1.476,3.878,1.825,4.3,3.04c0.422,1.215-0.118,0.944-0.715,1.203c-0.598,0.261-4.955-2.152-6.871-1.466
					c-1.916,0.686-4.845-0.263-6.314,0.239c-1.468,0.502-8.609,2.905-8.609,2.905L402.56,575.419z"/><path fill="#EAD8CF" d="M410.634,578.578l2.304-0.852c0,0-2.874-6.745-4.128-6.582c-1.446,0.19-3.248,0.666-3.248,0.666
					L410.634,578.578z"/><path fill="#CCE9FF" d="M411.161,579.744c-0.295-0.22-4.899-9.053-4.899-9.053l-9.837,1.334l5.316,10.463L411.161,579.744z"/><path fill="#FAB9AF" d="M439.498 616.685c0 0 5.035.456 7.34.501 2.304.044 7.531 1.331 8.078 1.223.549-.106 13.782 6.702 14.954 6.492 1.171-.206.596 2.476-3.144 1.232-3.74-1.245-9.397-2.211-10.419-1.068-1.02 1.144 2.448 3.622 2.183 4.905-.263 1.288-.593.767-1.252.684-.661-.085-3.221-4.47-5.257-4.869-2.035-.397-4.109-2.757-5.656-3.081-1.548-.325-9.06-1.944-9.06-1.944L439.498 616.685zM376.765 509.295c0 0 11.279-4.213 16.48 4.374 5.2 8.585 4.7 25.771-.987 27.886-5.684 2.113-14.225 1.008-17.135-4.364-2.91-5.372-5.539-13.137-5.412-18.328C369.837 513.671 373.804 510.793 376.765 509.295z"/><path fill="#FAB9AF" d="M391.035,541.947c0,0-0.911,8.095-0.135,9.598c0.776,1.498-14.079,0-14.079,0
					s-1.341-11.671-3.709-18.568C370.743,526.086,391.035,541.947,391.035,541.947z"/><path fill="#0B4870" d="M373.112,532.977c0,0,0.546,8.689,4.882,8.009c4.335-0.678,10.139-13.383,11.949-14.015
					c1.81-0.634,1.827-1.698,1.827-1.698l1.133,1.656l1.922,0.122c0,0-1.753-5.16,0.892-7.265
					c2.646-2.103-2.746-16.701-16.648-11.841c0,0-10.679,2.944-10.291,9.016C369.167,523.036,370.723,529.955,373.112,532.977z"/><path fill="#E2D2CA" d="M392.662,553.351c0,0-0.049-2.864-1.348-3.142c-1.299-0.273-14.341-1.527-15.935-0.9v3.34
					C375.379,552.649,378.452,554.539,392.662,553.351z"/><path fill="#EEA886" d="M391.483,523.066c-0.243-1.02-2.834-3.93-3.825-0.812c-0.992,3.115,1.499,7.309,2.888,6.948
					C391.935,528.845,392.1,525.649,391.483,523.066z"/><path fill="#0B4870" d="M410.416,662.734c0,0,1.774,12.663,1.026,14.908s-7.486,12.726-7.486,12.726l-7.486,32.19h-8.983
		l-0.749-37.43l-3.743,35.933l-7.486-0.749l-8.983-35.184c0,0-15.842-0.853-12.787-25.13
		C356.793,635.721,410.416,662.734,410.416,662.734z"/><path fill="#2A94F4" d="M353.672,660.381c0,0,6.916,2.037,18.712,3.337c11.795,1.3,41.265-0.468,41.451-1.861
						c0.187-1.395-6.339-51.891-5.967-54.491c0.371-2.6,0.57-11.866,0.57-11.866c0.146,2.539,2.732,12.91,5.855,18.562
						c1.127,2.042,4.428,6.638,6.735,6.987c12.872,1.945,26.228,2.918,27.096,2.694c-0.729-0.317,0.807-7.966,0-8.235
						c-0.706-0.237-9.732-1.497-16.469-2.994c-2.476-0.55-8.422-14.627-8.422-14.627c-1.115-2.508-5.174-18.304-6.435-23.771
						c-2.846-12.329-2.408-12.841-2.408-12.841c-8.628-2.61-21.726-7.924-21.726-7.924l-17.283-0.702c0,0-15.862,3.491-22.108,6.311
						c-0.593,0.268-0.595,14.151-2.221,17.791l5.179,10.926c0,0,2.991,21.643,3.612,31.269
						C360.127,623.365,353.672,660.381,353.672,660.381z"/><path fill="#2A94F4" d="M350.332,594.776c0.451,1.456,2.501,2.686,3.831,3.225c0.853,0.344,1.806,0.456,2.768,0.278
						l0.677-0.124v-0.002l11.844-2.198c0,0,2.591-29.845-16.18-36.995C352.775,559.123,346.187,581.413,350.332,594.776z"/><path fill="#0B4870" d="M373.554 510.307c0 0-14.192 1.439-.253 22.985L373.554 510.307zM394.972 725.553c0 0 2.994 0 3.743 1.497s.749 2.994.749 2.994h-12.726l.749-4.492h1.497H394.972z"/><g><path fill="#FFBE55" d="M490.055,574.784c-0.615,0.394-1.33,0.503-2.014,0.69c-2.384,0.652-4.773,1.286-7.164,1.916
		c-0.23,0.061-0.221,0.112-0.095,0.281c2.572,3.456,5.139,6.916,7.707,10.376c0.08,0.107,0.159,0.216,0.227,0.332
		c0.248,0.424,0.186,0.688-0.229,0.944c-0.289,0.179-0.601,0.315-0.919,0.434c-4.069,1.525-8.162,2.987-12.254,4.449
		c-2.714,0.97-5.434,1.924-8.154,2.878c-0.522,0.183-1.057,0.329-1.603,0.426c-0.605,0.107-1.132-0.045-1.574-0.479
		c-0.465-0.456-0.794-1.011-1.12-1.565c-2.227-3.778-4.317-7.635-6.459-11.461c-0.231-0.412-0.23-0.412-0.685-0.294
		c-4.335,1.127-8.67,2.255-13.006,3.381c-0.516,0.134-1.039,0.181-1.565,0.067c-0.826-0.179-1.421-0.665-1.77-1.424
		c-4.398-9.543-8.789-19.088-13.185-28.632c-0.212-0.461-0.384-0.936-0.529-1.422c0-0.161,0-0.322,0-0.483
		c0.13-0.56,0.535-0.77,1.058-0.81c1.476-0.114,2.954-0.214,4.43-0.329c2.446-0.192,4.891-0.388,7.336-0.591
		c0.215-0.018,0.441,0.013,0.645-0.093c0.519,0,1.037,0,1.556,0c0.672,0.194,0.987,0.754,1.31,1.295
		c1.837,3.075,3.668,6.153,5.501,9.23c3.254,5.464,6.51,10.927,9.757,16.394c0.114,0.192,0.216,0.222,0.419,0.173
		c4.199-1.012,8.399-2.018,12.599-3.024c2.135-0.511,4.27-1.021,6.404-1.532c0.077-0.018,0.152-0.043,0.229-0.065
		c-0.02-0.125-0.1-0.201-0.161-0.287c-2.044-2.921-4.088-5.842-6.134-8.762c-0.531-0.757-0.385-1.163,0.534-1.335
		c1.009-0.189,2.027-0.327,3.04-0.494c1.885-0.31,3.769-0.626,5.654-0.937c0.299-0.049,0.601-0.09,0.901-0.131
		c0.488-0.067,0.891,0.118,1.251,0.429c0.601,0.519,1.043,1.175,1.536,1.786c2.072,2.567,4.106,5.163,6.21,7.704
		c0.095,0.115,0.179,0.244,0.314,0.321C490.055,574.355,490.055,574.57,490.055,574.784z M442.28,584.209
		c0.108-0.022,0.222-0.041,0.335-0.068c0.989-0.238,1.977-0.479,2.966-0.718c2.897-0.699,5.795-1.397,8.692-2.097
		c0.415-0.1,0.472-0.248,0.248-0.601c-0.053-0.083-0.104-0.167-0.153-0.252c-4.816-8.317-9.632-16.634-14.44-24.956
		c-0.147-0.255-0.316-0.324-0.584-0.297c-0.551,0.056-1.104,0.092-1.656,0.14c-1.318,0.114-2.635,0.229-3.952,0.344
		c-1.549,0.135-3.097,0.275-4.646,0.406c-0.399,0.034-0.471,0.123-0.338,0.499c0.03,0.084,0.071,0.164,0.111,0.243
		c0.219,0.439,0.444,0.876,0.659,1.318c4.134,8.503,8.268,17.006,12.4,25.51c0.062,0.127,0.147,0.246,0.158,0.395
		C442.088,584.196,442.181,584.203,442.28,584.209z M465.788,594.206c0.066-0.018,0.162-0.039,0.255-0.07
		c4.762-1.622,9.525-3.245,14.286-4.87c1.604-0.547,3.206-1.102,4.808-1.654c0.284-0.098,0.312-0.169,0.167-0.427
		c-0.065-0.116-0.142-0.227-0.22-0.336c-1.567-2.153-3.136-4.304-4.701-6.459c-0.546-0.752-1.078-1.514-1.616-2.271
		c-0.152-0.213-0.308-0.377-0.619-0.292c-1.567,0.424-3.137,0.837-4.708,1.248c-4.798,1.255-9.597,2.508-14.397,3.757
		c-0.198,0.051-0.254,0.094-0.131,0.303c1.907,3.25,3.803,6.507,5.706,9.76c0.211,0.362,0.409,0.734,0.688,1.052
		C465.426,594.086,465.564,594.194,465.788,594.206z M480.829,565.664c-0.152,0.031-0.326,0.07-0.502,0.101
		c-2.213,0.399-4.426,0.797-6.639,1.197c-0.703,0.127-0.726,0.186-0.306,0.757c1.83,2.491,3.662,4.98,5.489,7.474
		c0.103,0.141,0.188,0.187,0.372,0.14c1.91-0.487,3.823-0.964,5.736-1.439c0.571-0.142,1.148-0.263,1.719-0.405
		c0.406-0.101,0.437-0.215,0.184-0.534c-0.895-1.126-1.788-2.254-2.679-3.383c-0.936-1.185-1.869-2.372-2.803-3.558
		C481.259,565.836,481.1,565.682,480.829,565.664z"/></g><path fill="#D3D3D3" d="M904.022,754H123.978c-6.615,0-11.978-5.363-11.978-11.978l0,0c0-6.615,5.363-11.978,11.978-11.978h780.045
	c6.615,0,11.978,5.363,11.978,11.978l0,0C916,748.637,910.637,754,904.022,754z"/><rect width="62.134" height="5.989" x="385.24" y="626.737" fill="#0B4870"/><g><path fill="#FFBE55" d="M391.358,667.08h-18.851c-13.159,0-23.826-11.507-23.826-25.702l5.959-51.495
		c2.048-13.726,14.752-22.54,27.64-22.54h0c13.03,0,25.81,9.032,27.697,22.939l5.207,51.095
		C415.184,655.573,404.517,667.08,391.358,667.08z"/><path fill="#2A94F4" d="M385.315,730.045h-6.526c-1.488,0-2.694-1.206-2.694-2.694V612.809c0-1.488,1.206-2.695,2.694-2.695h6.526
		c1.488,0,2.694,1.206,2.694,2.695V727.35C388.009,728.838,386.803,730.045,385.315,730.045z"/><path fill="#2A94F4" d="M387.222,616.488h-10.895c-2.883,0-5.221-2.337-5.221-5.221v-2.305c0-2.883,2.337-5.221,5.221-5.221h10.895
		c2.883,0,5.221,2.337,5.221,5.221v2.305C392.443,614.151,390.105,616.488,387.222,616.488z"/></g><path fill="#FFBE55" d="M408.8,692.615h-53.109c-2.286,0-4.138-1.853-4.138-4.138v-7.444c0-2.286,1.853-4.138,4.138-4.138H408.8
	c2.285,0,4.138,1.853,4.138,4.138v7.444C412.939,690.762,411.086,692.615,408.8,692.615z"/><g><circle cx="521.868" cy="422.521" r="7.754" fill="#FFBE55" opacity=".29"/><path fill="#FFBE55" d="M521.868,393.905c-15.804,0-28.616,12.812-28.616,28.616h57.232
			C550.484,406.717,537.673,393.905,521.868,393.905z"/><rect width="2.422" height="42.92" x="520.657" y="350.985" fill="#0B4870"/></g><g><path fill="#CCE9FF" d="M602.335,558.784c-0.732,1.057-1.323,2.199-1.967,3.309c-5.624,9.689-11.238,19.384-16.855,29.078
		c-0.268,0.463-0.267,0.463-0.535,0c-6.183-10.67-12.365-21.339-18.551-32.007c-0.077-0.133-0.123-0.295-0.271-0.38
		c0-0.032,0-0.064,0-0.095c2.548,0.005,5.097,0.011,7.645,0.017c0.316,0.551,0.629,1.103,0.947,1.652
		c1.783,3.077,3.567,6.153,5.35,9.229c1.648,2.843,3.296,5.686,4.938,8.532c0.156,0.271,0.262,0.271,0.416,0
		c0.582-1.02,1.175-2.034,1.764-3.051c1.927-3.324,3.854-6.647,5.779-9.971c1.233-2.129,2.461-4.261,3.692-6.392
		c2.549-0.005,5.097-0.011,7.645-0.017C602.335,558.721,602.335,558.752,602.335,558.784z"/><path fill="#0B4870" d="M571.802,558.705c2.257-0.005,4.513-0.005,6.77-0.024c0.29-0.003,0.375,0.164,0.488,0.359
		c1.295,2.236,2.592,4.471,3.89,6.706c0.085,0.146,0.176,0.287,0.269,0.437c0.19-0.118,0.237-0.293,0.322-0.438
		c1.291-2.22,2.585-4.439,3.862-6.667c0.16-0.279,0.321-0.402,0.66-0.398c2.209,0.023,4.418,0.02,6.627,0.026
		c-1.231,2.131-2.459,4.262-3.692,6.392c-1.925,3.325-3.853,6.648-5.779,9.971c-0.589,1.016-1.182,2.031-1.764,3.051
		c-0.155,0.271-0.26,0.271-0.416,0c-1.643-2.846-3.291-5.689-4.938-8.532c-1.783-3.077-3.568-6.152-5.35-9.229
		C572.431,559.808,572.117,559.256,571.802,558.705z"/></g><polygon fill="#FAB9AF" points="394.654 722.559 394.223 725.553 388.235 725.553 388.235 722.559"/><path fill="#FFBE55" d="M778.328,724.928c0,2.709-2.196,4.904-4.904,4.904h-18.917c-2.709,0-4.904-2.196-4.904-4.904v-44.14
	c0-2.709,2.196-4.904,4.904-4.904h18.917c2.709,0,4.904,2.196,4.904,4.904V724.928z"/><path fill="#CCE9FF" d="M766.234,625.074c0,0-15.486,31.479,7.331,36.84c22.817,5.361,23.475-18.384,21.137-28.17
	s33.869-36.094,4.007-59.369C768.847,551.101,745.574,613.067,766.234,625.074z"/><path fill="#CCE9FF" d="M737.398,642.163c0,0-0.729,20.715,12.867,18.083c13.596-2.632,8.204-15.59,4.576-20.299
	c-3.628-4.709,9.521-27.651-12.208-32.969C720.905,601.659,723.356,640.69,737.398,642.163z"/><line x1="739.717" x2="756.532" y1="622.635" y2="675.883" fill="none" stroke="#4D4D4D" stroke-miterlimit="10"/><polyline fill="none" stroke="#4D4D4D" stroke-miterlimit="10" points="749.526 633.478 745.964 642.419 737.848 637.948"/><line x1="784.472" x2="770.047" y1="592.508" y2="675.883" fill="none" stroke="#4D4D4D" stroke-miterlimit="10"/><polyline fill="none" stroke="#4D4D4D" stroke-miterlimit="10" points="792.934 605.119 780.984 612.667 773.317 602.317"/><polyline fill="none" stroke="#4D4D4D" stroke-miterlimit="10" points="789.665 622.604 777.714 630.151 770.047 619.801"/><path fill="#FFBE55" d="M284.999,724.928c0,2.709-2.196,4.904-4.904,4.904h-18.917c-2.709,0-4.904-2.196-4.904-4.904v-44.14
	c0-2.709,2.196-4.904,4.904-4.904h18.917c2.709,0,4.904,2.196,4.904,4.904V724.928z"/><path fill="#CCE9FF" d="M272.904,625.074c0,0-15.486,31.479,7.331,36.84c22.817,5.361,23.475-18.384,21.137-28.17
	c-2.338-9.786,33.869-36.094,4.007-59.369C275.517,551.101,252.244,613.067,272.904,625.074z"/><path fill="#CCE9FF" d="M244.068,642.163c0,0-0.729,20.715,12.867,18.083c13.596-2.632,8.204-15.59,4.576-20.299
	c-3.629-4.709,9.52-27.651-12.208-32.969S230.027,640.69,244.068,642.163z"/><line x1="246.387" x2="263.202" y1="622.635" y2="675.883" fill="none" stroke="#4D4D4D" stroke-miterlimit="10"/><polyline fill="none" stroke="#4D4D4D" stroke-miterlimit="10" points="256.196 633.478 252.635 642.419 244.519 637.948"/><line x1="291.142" x2="276.717" y1="592.508" y2="675.883" fill="none" stroke="#4D4D4D" stroke-miterlimit="10"/><polyline fill="none" stroke="#4D4D4D" stroke-miterlimit="10" points="299.605 605.119 287.654 612.667 279.987 602.317"/><polyline fill="none" stroke="#4D4D4D" stroke-miterlimit="10" points="296.335 622.604 284.385 630.151 276.717 619.801"/></svg>