<svg width="49" height="49" viewBox="0 0 49 49" fill="none" xmlns="http://www.w3.org/2000/svg">
<path d="M38.7917 22.4584H10.2083C7.95317 22.4584 6.125 24.2865 6.125 26.5417V40.8334C6.125 43.0885 7.95317 44.9167 10.2083 44.9167H38.7917C41.0468 44.9167 42.875 43.0885 42.875 40.8334V26.5417C42.875 24.2865 41.0468 22.4584 38.7917 22.4584Z" stroke="black" stroke-width="2" stroke-linecap="round" stroke-linejoin="round"/>
<path d="M14.2917 22.4584V14.2917C14.2917 11.5843 15.3672 8.98776 17.2816 7.07333C19.1961 5.15889 21.7926 4.08337 24.5 4.08337C27.2074 4.08337 29.804 5.15889 31.7184 7.07333C33.6328 8.98776 34.7084 11.5843 34.7084 14.2917V22.4584" stroke="black" stroke-width="2" stroke-linecap="round" stroke-linejoin="round"/>
</svg>
