<svg width="995" height="753" viewBox="0 0 995 753" fill="none" xmlns="http://www.w3.org/2000/svg">
<path d="M995 661.6H0V662.104H995V661.6Z" fill="#E6E6E6"/>
<path d="M248.392 692.174H182.483V692.679H248.392V692.174Z" fill="#E6E6E6"/>
<path d="M161.628 692.174H123.44V692.679H161.628V692.174Z" fill="#E6E6E6"/>
<path d="M418.994 699.61H380.806V700.115H418.994V699.61Z" fill="#E6E6E6"/>
<path d="M618.114 710.886H532.166V711.391H618.114V710.886Z" fill="#E6E6E6"/>
<path d="M514.455 710.886H501.858V711.391H514.455V710.886Z" fill="#E6E6E6"/>
<path d="M902.167 699.61H715.743V700.115H902.167V699.61Z" fill="#E6E6E6"/>
<path d="M471.63 571.473H87.3809C84.3707 571.468 81.4856 570.25 79.359 568.086C77.2323 565.923 76.0379 562.991 76.0379 559.934V11.4376C76.0641 8.39836 77.2701 5.49241 79.3939 3.35087C81.5178 1.20934 84.3879 0.00520628 87.3809 0H471.63C474.644 0 477.534 1.21567 479.665 3.37957C481.796 5.54348 482.993 8.47836 482.993 11.5386V559.934C482.993 562.995 481.796 565.929 479.665 568.093C477.534 570.258 474.644 571.473 471.63 571.473ZM87.3809 0.404155C84.5027 0.409508 81.7441 1.57431 79.7108 3.64289C77.6774 5.71148 76.5354 8.5148 76.5354 11.4376V559.934C76.5354 562.857 77.6774 565.66 79.7108 567.729C81.7441 569.798 84.5027 570.963 87.3809 570.968H471.63C474.51 570.963 477.271 569.799 479.307 567.73C481.344 565.662 482.49 562.859 482.495 559.934V11.4376C482.49 8.51294 481.344 5.70967 479.307 3.64166C477.271 1.57366 474.51 0.409497 471.63 0.404155H87.3809Z" fill="#E6E6E6"/>
<path d="M902.087 571.473H517.818C514.806 571.468 511.919 570.25 509.789 568.088C507.659 565.925 506.46 562.993 506.455 559.934V11.4376C506.486 8.39652 507.697 5.49058 509.824 3.3496C511.951 1.20864 514.823 0.0051495 517.818 0H902.087C905.076 0.0105171 907.942 1.21701 910.061 3.35797C912.181 5.49892 913.384 8.40185 913.41 11.4376V559.934C913.41 562.987 912.218 565.917 910.096 568.079C907.974 570.242 905.094 571.462 902.087 571.473ZM517.818 0.404155C514.938 0.409497 512.177 1.57366 510.141 3.64166C508.104 5.70967 506.958 8.51294 506.953 11.4376V559.934C506.958 562.859 508.104 565.662 510.141 567.73C512.177 569.799 514.938 570.963 517.818 570.968H902.087C904.967 570.963 907.728 569.799 909.764 567.73C911.801 565.662 912.947 562.859 912.952 559.934V11.4376C912.947 8.51294 911.801 5.70967 909.764 3.64166C907.728 1.57366 904.967 0.409497 902.087 0.404155H517.818Z" fill="#E6E6E6"/>
<path d="M532.126 488.985H488.366V665.256H532.126V488.985Z" fill="#E0E0E0"/>
<path d="M523.808 665.256H532.126V641.25H515.092L523.808 665.256Z" fill="#FAFAFA"/>
<path d="M340.37 488.985H296.609V665.256H340.37V488.985Z" fill="#E0E0E0"/>
<path d="M532.126 488.985H333.126V650.525H532.126V488.985Z" fill="#FAFAFA"/>
<path d="M524.902 496.927V539.666H340.29V496.927H524.843H524.902ZM525.619 496.139H339.574V540.434H525.678V496.139H525.619Z" fill="#E0E0E0"/>
<path d="M341.424 665.256H333.126V641.25H350.141L341.424 665.256Z" fill="#FAFAFA"/>
<path d="M428.228 518.286C428.228 519.17 428.486 520.033 428.969 520.768C429.452 521.502 430.139 522.074 430.943 522.412C431.747 522.751 432.631 522.839 433.484 522.666C434.337 522.494 435.121 522.069 435.736 521.444C436.351 520.819 436.77 520.024 436.939 519.158C437.109 518.291 437.022 517.393 436.689 516.577C436.356 515.761 435.793 515.064 435.069 514.573C434.346 514.083 433.496 513.821 432.626 513.821C431.46 513.821 430.341 514.291 429.516 515.129C428.691 515.966 428.228 517.102 428.228 518.286Z" fill="#E6E6E6"/>
<path d="M524.902 548.376V591.115H340.29V548.376H524.843H524.902ZM525.619 547.607H339.574V591.903H525.678V547.628L525.619 547.607Z" fill="#E0E0E0"/>
<path d="M428.228 569.856C428.228 570.739 428.486 571.603 428.969 572.337C429.452 573.072 430.139 573.644 430.943 573.982C431.747 574.321 432.631 574.409 433.484 574.236C434.337 574.064 435.121 573.638 435.736 573.014C436.351 572.39 436.77 571.594 436.939 570.728C437.109 569.861 437.022 568.963 436.689 568.147C436.356 567.331 435.793 566.633 435.069 566.143C434.346 565.652 433.496 565.391 432.626 565.391C431.46 565.391 430.341 565.861 429.516 566.699C428.691 567.536 428.228 568.672 428.228 569.856Z" fill="#E6E6E6"/>
<path d="M524.902 599.845V642.604H340.29V599.845H524.843H524.902ZM525.619 599.057H339.574V643.372H525.678V599.057H525.619Z" fill="#E0E0E0"/>
<path d="M428.228 621.224C428.232 622.106 428.493 622.968 428.979 623.7C429.465 624.432 430.153 625.001 430.957 625.336C431.761 625.67 432.644 625.757 433.496 625.582C434.348 625.407 435.13 624.981 435.743 624.355C436.356 623.729 436.773 622.934 436.941 622.068C437.109 621.202 437.021 620.305 436.687 619.49C436.354 618.676 435.79 617.979 435.067 617.49C434.344 616.999 433.495 616.739 432.626 616.739C432.047 616.739 431.473 616.855 430.938 617.08C430.404 617.306 429.918 617.636 429.509 618.053C429.1 618.47 428.777 618.965 428.557 619.509C428.337 620.053 428.225 620.636 428.228 621.224Z" fill="#E6E6E6"/>
<path d="M313.644 386.613H269.884V665.277H313.644V386.613Z" fill="#E0E0E0"/>
<path d="M305.326 665.256H313.644V641.25H296.629L305.326 665.256Z" fill="#FAFAFA"/>
<path d="M150.106 386.613H106.346V665.277H150.106V386.613Z" fill="#E0E0E0"/>
<path d="M313.644 386.613H142.842V650.546H313.644V386.613Z" fill="#FAFAFA"/>
<path d="M306.281 394.05V453.804H150.205V394.05H306.281ZM307.196 393.141H149.25V454.673H307.157V393.161L307.196 393.141Z" fill="#E0E0E0"/>
<path d="M306.281 461.098V619.588H231.935V461.098H306.281ZM307.196 460.169H231.039V620.517H307.196V460.169Z" fill="#E0E0E0"/>
<path d="M224.552 461.098V619.588H150.205V461.098H224.552ZM225.447 460.169H149.25V620.517H225.407V460.169H225.447Z" fill="#E0E0E0"/>
<path d="M151.16 665.256H142.842V641.25H159.877L151.16 665.256Z" fill="#FAFAFA"/>
<path d="M223.835 423.957C223.831 424.845 224.087 425.714 224.57 426.455C225.053 427.195 225.742 427.773 226.549 428.116C227.355 428.459 228.244 428.55 229.103 428.379C229.961 428.209 230.75 427.784 231.37 427.157C231.99 426.53 232.412 425.731 232.584 424.86C232.756 423.989 232.67 423.086 232.336 422.265C232.003 421.444 231.436 420.742 230.709 420.249C229.983 419.754 229.128 419.491 228.253 419.491C227.085 419.491 225.964 419.961 225.136 420.798C224.308 421.635 223.84 422.77 223.835 423.957Z" fill="#E6E6E6"/>
<path d="M239.596 536.575C239.596 537.463 239.856 538.331 240.342 539.069C240.828 539.807 241.519 540.382 242.328 540.721C243.136 541.06 244.026 541.147 244.883 540.973C245.741 540.798 246.528 540.369 247.145 539.739C247.762 539.11 248.181 538.309 248.349 537.437C248.517 536.565 248.427 535.663 248.09 534.844C247.752 534.025 247.183 533.325 246.454 532.835C245.725 532.344 244.869 532.085 243.994 532.088C243.415 532.088 242.841 532.204 242.306 532.43C241.771 532.656 241.286 532.987 240.877 533.404C240.468 533.821 240.145 534.315 239.925 534.859C239.705 535.403 239.593 535.987 239.596 536.575Z" fill="#E6E6E6"/>
<path d="M208.094 536.575C208.098 537.457 208.36 538.318 208.845 539.05C209.331 539.781 210.019 540.351 210.823 540.686C211.627 541.021 212.511 541.106 213.362 540.932C214.214 540.757 214.996 540.33 215.609 539.705C216.222 539.079 216.639 538.284 216.807 537.418C216.975 536.552 216.887 535.655 216.553 534.841C216.22 534.026 215.656 533.329 214.933 532.839C214.211 532.35 213.361 532.088 212.492 532.088C211.913 532.088 211.339 532.204 210.805 532.43C210.27 532.656 209.784 532.986 209.375 533.404C208.967 533.821 208.643 534.315 208.423 534.859C208.203 535.403 208.092 535.987 208.094 536.575Z" fill="#E6E6E6"/>
<path d="M203.119 308.915H184.672C186.372 318.002 187.443 327.199 187.876 336.438C187.876 346.541 173.827 386.613 193.846 386.613C213.865 386.613 199.816 346.643 199.816 336.438C200.282 327.196 201.386 317.999 203.119 308.915Z" fill="#E0E0E0"/>
<path d="M132.932 349.896V362.021C132.953 368.52 135.505 374.748 140.031 379.343C144.557 383.94 150.69 386.531 157.091 386.553H169.031C175.431 386.531 181.564 383.94 186.09 379.343C190.616 374.748 193.168 368.52 193.189 362.021V349.896H132.932Z" fill="#F5F5F5"/>
<path d="M389.383 463.281C389.383 477.427 404.965 488.985 424.009 488.985H441.203C460.247 488.985 475.829 477.427 475.829 463.281H389.383Z" fill="#E0E0E0"/>
<path d="M844.974 442.549C834.546 451.198 820.139 467.02 806.965 489.288C798.169 504.121 792.876 519.6 790.547 540.171C790.547 516.933 790.687 491.976 790.766 468.414C793.413 462.352 799.463 448.368 803.801 437.335C818.268 400.496 823.701 391.423 836.696 359.656C854.068 317.22 871.859 266.984 866.764 271.005C856.377 279.19 816.577 354.867 812.278 365.698C800.562 394.604 793.319 425.176 790.806 456.33C790.806 434.102 790.965 413.893 791.045 398.213C791.324 347.067 792.179 330.558 792.597 325.465C794.209 322.878 796.099 319.867 797.214 318.251C806.567 304.51 810.169 292.83 818.965 272.339C831.462 243.341 842.208 191.831 839.064 194.418C825.969 205.249 815.661 228.489 802.089 258.133C788.518 287.777 792.398 304.813 789.712 330.113C789.154 335.084 788.717 353.836 788.398 379.803C784.896 352.119 778.289 333.891 766.249 317.322C751.444 296.932 737.116 283.17 726.609 275.977C716.102 268.783 744.758 318.857 758.449 340.641C770.647 360.121 781.891 377.277 788.299 394.191C787.96 429.413 787.801 473.992 787.801 515.437C784.657 496.563 779.523 476.214 772.677 460.472C764.439 441.558 751.782 412.54 741.693 402.699C739.285 400.335 752.24 456.774 760.558 471.768C768.876 486.763 774.986 500.928 780.219 509.435C781.433 511.457 785.493 519.075 787.801 523.48C787.801 574.141 788.08 618.84 788.518 634.057H790.667C790.528 630.136 790.488 604.351 790.547 570.241C795.741 551.731 807.602 530.593 817.393 511.315C828.059 490.441 855.402 433.96 844.974 442.549Z" fill="#E0E0E0"/>
<path d="M820.756 665.256H758.389L753.673 603.179H825.472L820.756 665.256Z" fill="#F0F0F0"/>
<path d="M830.109 610.413H749.016L746.708 589.458H832.437L830.109 610.413Z" fill="#F5F5F5"/>
<path d="M247.277 41.4258H135.738V165.804H247.277V41.4258Z" fill="#E0E0E0"/>
<path d="M259.357 41.4258H144.136V165.804H259.357V41.4258Z" fill="#F5F5F5"/>
<path d="M249.705 156.003V51.2263H153.787V156.003H249.705Z" fill="white"/>
<path d="M226.442 130.582V76.6072H177.03V130.582H226.442Z" fill="#F5F5F5"/>
<path d="M816 55.9146H712.38V171.462H816V55.9146Z" fill="#E0E0E0"/>
<path d="M827.223 55.9146H720.201V171.462H827.223V55.9146Z" fill="#F5F5F5"/>
<path d="M818.268 162.348V65.0283H729.176V162.348H818.268Z" fill="white"/>
<path d="M773.712 141.919C789.066 141.919 801.512 129.279 801.512 113.689C801.512 98.097 789.066 85.4583 773.712 85.4583C758.358 85.4583 745.912 98.097 745.912 113.689C745.912 129.279 758.358 141.919 773.712 141.919Z" fill="#F5F5F5"/>
<path d="M363.155 115.588H280.411V207.856H363.155V115.588Z" fill="#E0E0E0"/>
<path d="M372.11 115.588H286.64V207.856H372.11V115.588Z" fill="#F5F5F5"/>
<path d="M364.946 200.582V122.863H293.804V200.582H364.946Z" fill="white"/>
<path d="M329.385 142.06L309.923 176.292H348.847L329.385 142.06Z" fill="#F5F5F5"/>
<path d="M497.5 752.857C710.594 752.857 883.341 742.615 883.341 729.982C883.341 717.348 710.594 707.107 497.5 707.107C284.406 707.107 111.659 717.348 111.659 729.982C111.659 742.615 284.406 752.857 497.5 752.857Z" fill="#F5F5F5"/>
<path d="M695.007 219.112L675.267 211.029C675.267 211.029 649.218 259.265 641.755 261.71C631.606 265.024 610.592 274.239 598.134 275.855C596.443 277.876 593.677 284.161 593.935 286.444C610.671 292.122 647.446 284.584 655.327 278.644C673.257 265.165 695.007 219.112 695.007 219.112Z" fill="#E58A7B"/>
<path d="M701.077 208.139C704.758 221.941 684.819 249.706 684.819 249.706L658.69 234.834C658.69 234.834 663.585 223.416 669.555 211.797C679.127 193.024 696.878 192.397 701.077 208.139Z" fill="#FF9B21"/>
<path opacity="0.2" d="M701.077 208.139C704.758 221.941 684.819 249.706 684.819 249.706L658.69 234.834C658.69 234.834 663.585 223.416 669.555 211.797C679.127 193.024 696.878 192.397 701.077 208.139Z" fill="black"/>
<path opacity="0.2" d="M669.058 240.774L679.346 246.634L681.157 214.565C675.167 219.233 670.948 233.298 669.058 240.774Z" fill="black"/>
<path d="M683.883 197.753C683.883 197.753 663.546 243.705 675.406 329.264H755.543C756.817 316.775 752.598 255.829 767.861 196.984C759.07 195.24 750.176 194.085 741.235 193.529C729.895 192.862 718.526 192.862 707.186 193.529C699.325 194.339 691.535 195.751 683.883 197.753Z" fill="#FF9B21"/>
<path opacity="0.2" d="M683.883 197.753C683.883 197.753 663.546 243.705 675.406 329.264H755.543C756.817 316.775 752.598 255.829 767.861 196.984C759.07 195.24 750.176 194.085 741.235 193.529C729.895 192.862 718.526 192.862 707.186 193.529C699.325 194.339 691.535 195.751 683.883 197.753Z" fill="black"/>
<g style="mix-blend-mode:multiply">
<g style="mix-blend-mode:multiply">
<path d="M665.297 731.801C665.177 733.983 695.565 735.741 733.156 735.741C770.747 735.741 801.353 733.983 801.472 731.801C801.592 729.619 771.224 727.881 733.613 727.881C696.002 727.881 665.436 729.639 665.297 731.801Z" fill="#E8ECF1"/>
</g>
</g>
<path d="M718.789 674.457L704.576 680.044L716.819 712.162L731.032 706.574L718.789 674.457Z" fill="#E58A7B"/>
<path d="M782.17 716.261H767.185L761.692 681.039H776.677L782.17 716.261Z" fill="#E58A7B"/>
<path d="M766.15 714.503H782.985C783.277 714.504 783.56 714.609 783.782 714.802C784.004 714.994 784.152 715.261 784.199 715.554L786.368 729.073C786.414 729.412 786.387 729.757 786.29 730.084C786.193 730.413 786.027 730.715 785.804 730.972C785.581 731.229 785.307 731.434 784.999 731.573C784.691 731.713 784.357 731.784 784.02 731.781C778.15 731.679 775.324 731.315 767.921 731.315C763.364 731.315 753.991 731.801 747.663 731.801C741.335 731.801 740.917 725.496 743.524 724.91C755.225 722.343 759.762 718.848 763.662 715.452C764.35 714.839 765.235 714.501 766.15 714.503Z" fill="#263238"/>
<path d="M716.4 709.29L732.32 704.561C732.604 704.479 732.907 704.499 733.179 704.616C733.45 704.734 733.674 704.943 733.813 705.207L739.783 717.332C739.921 717.64 739.992 717.974 739.99 718.312C739.988 718.65 739.914 718.985 739.771 719.29C739.629 719.597 739.423 719.867 739.167 720.083C738.911 720.301 738.612 720.458 738.29 720.545C732.499 722.161 728.619 723.152 721.375 725.294C716.38 726.769 711.286 729.173 706.351 730.77C702.928 731.881 694.888 731.922 690.729 731.922C684.58 731.922 683.207 725.334 685.853 725.031C692.52 724.283 693.415 724.626 697.097 722.748C703.121 720.074 708.58 716.245 713.176 711.472C714.043 710.469 715.155 709.716 716.4 709.29Z" fill="#263238"/>
<path d="M600.642 275.774L584.164 268.762L577.379 287.313C584.132 288.357 591.003 288.357 597.756 287.313L600.642 275.774Z" fill="#E58A7B"/>
<path d="M571.906 268.277L571.468 280.604L577.379 287.272L584.164 268.721L571.906 268.277Z" fill="#E58A7B"/>
<path d="M720.739 677.185L706.481 682.774L712.796 699.382L727.053 693.793L720.739 677.185Z" fill="#CF6F64"/>
<path d="M776.677 681.039H761.692L764.538 699.205H779.523L776.677 681.039Z" fill="#CF6F64"/>
<path opacity="0.2" d="M672.859 306.126C673.157 309.784 673.496 313.522 673.933 317.362L733.514 297.72C742.818 294.919 750.905 288.982 756.439 280.886C756.678 275.492 756.976 269.813 757.434 263.892C757.633 261.023 757.872 258.072 758.13 255.081C758.389 252.091 758.747 248.777 759.125 245.583L672.859 306.126Z" fill="black"/>
<path d="M692.321 239.845L690.331 239.602C691.505 229.498 698.928 221.537 706.749 221.738V223.76C699.903 223.618 693.376 230.792 692.321 239.845Z" fill="white"/>
<path d="M702.928 258.496H702.589V256.476C709.435 256.738 715.863 249.484 716.917 240.451L718.907 240.694C717.853 250.575 710.669 258.496 702.928 258.496Z" fill="white"/>
<path d="M740.121 154.589C737.315 165.723 734.012 186.113 741.235 193.529C741.235 193.529 736.181 204.825 715.823 204.825C697.216 204.825 707.186 193.529 707.186 193.529C719.564 190.579 719.783 181.404 718.151 172.715L740.121 154.589Z" fill="#E58A7B"/>
<path d="M731.166 161.985L718.171 172.715C718.574 174.711 718.807 176.74 718.868 178.777C722.668 182.617 730.29 172.897 731.066 167.926C731.461 165.969 731.494 163.955 731.166 161.985Z" fill="#CF6F64"/>
<path d="M695.823 154.447C696.728 156.039 697.945 157.424 699.401 158.515C700.856 159.607 702.517 160.382 704.281 160.792C709.057 161.863 711.445 157.397 710.132 152.912C708.957 148.87 705.037 143.434 700.182 144.363C699.141 144.581 698.168 145.048 697.342 145.727C696.517 146.405 695.863 147.275 695.436 148.261C695.01 149.249 694.822 150.326 694.889 151.402C694.957 152.479 695.277 153.523 695.823 154.447Z" fill="#CF6F64"/>
<path d="M703.724 118.821C696.281 122.276 693.654 152.305 703.007 156.751C712.36 161.197 717.813 112.253 703.724 118.821Z" fill="#263238"/>
<path d="M742.389 137.836C740.598 152.912 740.399 161.783 732.439 169.502C729.973 172.063 726.857 173.884 723.436 174.76C720.015 175.637 716.422 175.536 713.054 174.47C709.686 173.404 706.673 171.413 704.349 168.718C702.025 166.022 700.479 162.727 699.883 159.196C697.475 145.657 700.798 123.287 715.684 117.285C718.811 115.884 722.251 115.358 725.646 115.762C729.041 116.166 732.268 117.484 734.992 119.58C737.716 121.677 739.839 124.476 741.14 127.685C742.44 130.896 742.872 134.4 742.389 137.836Z" fill="#E58A7B"/>
<path d="M717.932 126.621C728.957 123.772 737.056 121.832 734.151 131.148C730.31 143.596 725.693 155.639 731.882 156.185C735.663 156.528 752.379 149.334 750.25 142.04C748.399 135.694 756.22 133.956 757.613 130.743C762.767 119.104 748.021 120.64 750.648 113.567C753.275 106.495 738.708 95.0973 730.748 100.776C717.793 109.95 695.565 109.809 707.246 94.7134C715.624 83.9426 700.679 86.1453 700.679 86.1453C700.679 86.1453 709.714 91.5812 694.51 99.9871C678.431 108.96 693.177 133.067 717.932 126.621Z" fill="#263238"/>
<path d="M748.24 154.447C746.064 157.645 742.794 159.907 739.066 160.792C734.151 161.863 732.26 157.397 734.111 152.912C735.763 148.87 740.3 143.434 744.996 144.363C749.693 145.294 750.767 150.487 748.24 154.447Z" fill="#E58A7B"/>
<path d="M675.406 329.264C675.406 329.264 661.954 451.52 660.899 497.917C659.824 546.173 706.49 696.741 706.49 696.741L730.37 686.636C730.37 686.636 702.51 549.063 706.49 501.675C710.709 450.005 728.141 329.345 728.141 329.345L675.406 329.264Z" fill="#FF9B21"/>
<path opacity="0.2" d="M708.838 362.829C698.112 385.421 705.336 430.1 711.146 456.572C713.355 437.88 715.982 417.591 718.47 398.819C718.231 369.963 716.022 347.673 708.838 362.829Z" fill="black"/>
<path d="M729.315 678.634C729.434 678.634 732.141 686.354 732.141 686.354L704.599 698.114L700.261 689.91L729.315 678.634Z" fill="#FF9B21"/>
<path d="M703.843 329.264C703.843 329.264 714.131 445.538 720.937 489.086C728.42 536.797 757.752 695.69 757.752 695.69H785.194C785.194 695.69 768.757 540.656 765.653 493.41C762.27 442.164 755.543 329.264 755.543 329.264H703.843Z" fill="#FF9B21"/>
<path d="M785.612 688.435C785.732 688.435 786.528 696.215 786.528 696.215H756.359L754.21 687.283L785.612 688.435Z" fill="#FF9B21"/>
<path opacity="0.2" d="M775.105 679.22C775.043 679.221 774.982 679.199 774.935 679.158C774.887 679.117 774.856 679.06 774.846 678.998C774.687 677.583 759.862 537.544 757.076 495.108C754.051 449.075 747.961 346.965 747.902 345.936C747.899 345.902 747.903 345.869 747.914 345.836C747.925 345.804 747.942 345.776 747.964 345.751C747.987 345.726 748.014 345.707 748.044 345.693C748.075 345.68 748.107 345.672 748.141 345.672C748.206 345.672 748.269 345.697 748.317 345.742C748.365 345.787 748.394 345.849 748.399 345.915C748.399 346.945 754.548 448.974 757.573 495.088C760.359 537.524 775.185 677.462 775.324 678.978C775.33 679.012 775.328 679.045 775.32 679.079C775.312 679.111 775.297 679.142 775.276 679.169C775.256 679.195 775.23 679.218 775.2 679.233C775.171 679.249 775.138 679.259 775.105 679.261V679.22Z" fill="black"/>
<path d="M719.624 142.04C719.624 143.272 718.868 144.263 718.072 144.263C717.276 144.263 716.699 143.272 716.778 142.04C716.858 140.807 717.534 139.817 718.33 139.817C719.126 139.817 719.703 140.827 719.624 142.04Z" fill="#263238"/>
<path d="M705.972 142.04C705.972 143.272 705.196 144.263 704.42 144.263C703.644 144.263 703.047 143.272 703.107 142.04C703.166 140.807 703.883 139.817 704.679 139.817C705.475 139.817 706.052 140.827 705.972 142.04Z" fill="#263238"/>
<path d="M710.271 142.667C708.61 146.431 706.469 149.956 703.903 153.154C705.893 155.175 709.614 154.245 709.614 154.245L710.271 142.667Z" fill="#DF5753"/>
<path d="M710.629 159.398C710.583 159.398 710.537 159.389 710.495 159.371C710.452 159.351 710.414 159.325 710.382 159.29C710.351 159.257 710.326 159.216 710.31 159.172C710.295 159.128 710.288 159.081 710.291 159.034C710.296 158.936 710.338 158.844 710.408 158.776C710.479 158.709 710.572 158.67 710.669 158.67C712.191 158.682 713.696 158.345 715.073 157.688C716.451 157.031 717.666 156.068 718.629 154.872C718.698 154.81 718.786 154.777 718.878 154.777C718.969 154.777 719.057 154.81 719.126 154.872C719.191 154.94 719.227 155.03 719.227 155.124C719.227 155.218 719.191 155.309 719.126 155.377C718.095 156.649 716.797 157.67 715.327 158.366C713.856 159.062 712.251 159.415 710.629 159.398Z" fill="#263238"/>
<path d="M722.052 138.321C721.956 138.371 721.85 138.397 721.743 138.397C721.636 138.397 721.53 138.371 721.435 138.321C720.69 137.832 719.843 137.529 718.962 137.434C718.08 137.339 717.189 137.456 716.36 137.776C716.279 137.817 716.191 137.841 716.101 137.847C716.011 137.853 715.921 137.84 715.835 137.81C715.75 137.78 715.672 137.733 715.604 137.671C715.537 137.61 715.483 137.535 715.445 137.452C715.371 137.273 715.369 137.071 715.44 136.89C715.51 136.709 715.648 136.562 715.823 136.483C716.863 136.051 717.991 135.881 719.11 135.986C720.229 136.092 721.306 136.47 722.251 137.089C722.327 137.142 722.392 137.209 722.442 137.287C722.493 137.366 722.527 137.454 722.544 137.546C722.561 137.638 722.559 137.733 722.54 137.824C722.52 137.916 722.483 138.002 722.43 138.079C722.329 138.195 722.198 138.279 722.052 138.321Z" fill="#263238"/>
<path d="M700.699 134.28C700.593 134.254 700.496 134.198 700.42 134.118C700.354 134.052 700.302 133.974 700.266 133.888C700.23 133.8 700.211 133.707 700.211 133.614C700.211 133.519 700.23 133.426 700.266 133.34C700.302 133.252 700.354 133.174 700.42 133.108C701.183 132.24 702.133 131.561 703.196 131.127C704.259 130.692 705.407 130.512 706.549 130.602C706.641 130.617 706.729 130.65 706.807 130.7C706.885 130.75 706.953 130.816 707.005 130.894C707.057 130.971 707.093 131.059 707.111 131.151C707.128 131.244 707.127 131.339 707.107 131.431C707.064 131.618 706.956 131.783 706.802 131.895C706.648 132.006 706.459 132.057 706.271 132.037C705.367 131.979 704.461 132.131 703.624 132.481C702.786 132.831 702.037 133.37 701.435 134.058C701.345 134.161 701.228 134.235 701.098 134.275C700.968 134.314 700.83 134.316 700.699 134.28Z" fill="#263238"/>
<path d="M775.563 216.869L754.867 211.271C754.867 211.271 734.569 262.012 727.385 265.306C717.634 269.833 692.938 285.514 682.431 292.93C681.854 295.457 682.311 302.145 683.625 303.984C701.535 300.67 735.822 287.272 742.986 280.462C759.324 264.923 775.563 216.869 775.563 216.869Z" fill="#E58A7B"/>
<path d="M761.115 717.17C760.105 717.252 759.099 716.973 758.27 716.382C758.013 716.147 757.822 715.848 757.713 715.516C757.605 715.182 757.584 714.826 757.653 714.483C757.665 714.268 757.735 714.06 757.854 713.882C757.973 713.705 758.137 713.563 758.329 713.472C760.001 712.603 764.677 715.614 765.215 715.957C765.274 715.995 765.319 716.05 765.344 716.115C765.37 716.182 765.373 716.253 765.354 716.321C765.337 716.392 765.302 716.456 765.254 716.51C765.205 716.563 765.143 716.602 765.075 716.625C763.778 716.948 762.451 717.131 761.115 717.17ZM759.125 714.017C758.975 713.984 758.818 713.984 758.668 714.017C758.591 714.058 758.528 714.118 758.486 714.194C758.443 714.269 758.423 714.356 758.429 714.442C758.376 714.677 758.385 714.923 758.454 715.154C758.524 715.383 758.653 715.591 758.827 715.756C759.603 716.463 761.553 716.544 764.12 716.039C762.592 715.017 760.87 714.328 759.066 714.017H759.125Z" fill="#FF9B21"/>
<path d="M764.976 716.624C764.924 716.642 764.868 716.642 764.817 716.624C763.324 715.776 760.518 712.442 760.936 710.744C760.999 710.475 761.148 710.235 761.361 710.063C761.574 709.89 761.838 709.797 762.11 709.795C762.377 709.758 762.649 709.781 762.907 709.862C763.164 709.941 763.402 710.077 763.603 710.259C765.255 711.694 765.354 716.099 765.354 716.322C765.364 716.388 765.351 716.456 765.319 716.514C765.286 716.573 765.236 716.619 765.175 716.645C765.108 716.659 765.039 716.652 764.976 716.624ZM762.309 710.461H762.17C761.712 710.461 761.653 710.724 761.633 710.825C761.394 711.815 763.165 714.341 764.638 715.533C764.631 713.827 764.11 712.163 763.145 710.764C762.914 710.56 762.616 710.452 762.309 710.461Z" fill="#FF9B21"/>
<path d="M708.281 714.644C707.063 715.076 705.737 715.076 704.52 714.644C704.243 714.493 704.009 714.272 703.838 714.003C703.668 713.735 703.567 713.427 703.545 713.108C703.519 712.909 703.545 712.706 703.618 712.518C703.691 712.331 703.809 712.166 703.962 712.037C705.554 710.583 712.062 712.037 712.798 712.321C712.868 712.339 712.93 712.381 712.973 712.44C713.017 712.498 713.039 712.571 713.037 712.644C713.04 712.719 713.021 712.795 712.982 712.859C712.943 712.924 712.886 712.976 712.818 713.008C711.353 713.679 709.835 714.227 708.281 714.644ZM705.037 712.239C704.81 712.286 704.597 712.391 704.42 712.543C704.357 712.591 704.308 712.656 704.28 712.732C704.252 712.806 704.245 712.888 704.261 712.967C704.274 713.179 704.339 713.384 704.45 713.564C704.562 713.744 704.715 713.894 704.898 713.997C705.952 714.564 708.4 714.119 711.564 712.765C709.433 712.219 707.226 712.042 705.037 712.239Z" fill="#FF9B21"/>
<path d="M712.758 713.008H712.599C710.609 712.644 706.629 710.319 706.51 708.582C706.51 708.178 706.689 707.612 707.644 707.289C707.967 707.172 708.309 707.123 708.651 707.144C708.993 707.165 709.327 707.255 709.634 707.41C711.783 708.481 712.917 712.361 712.977 712.543C712.991 712.604 712.989 712.668 712.972 712.728C712.954 712.788 712.922 712.843 712.878 712.886C712.848 712.936 712.807 712.977 712.758 713.008ZM708.042 707.895H707.843C707.226 708.117 707.226 708.38 707.226 708.461C707.226 709.512 710.112 711.432 712.121 712.078C711.659 710.455 710.679 709.034 709.335 708.037C708.936 707.831 708.476 707.78 708.042 707.895Z" fill="#FF9B21"/>
<path d="M684.122 291.738L663.367 301.438L660.959 307.5L668.62 312.734C668.62 312.734 682.948 311.158 687.028 301.802L684.122 291.738Z" fill="#E58A7B"/>
<path d="M684.998 304.328C684.534 300.278 683.217 296.377 681.137 292.89L684.421 290.384C686.891 294.402 688.466 298.919 689.037 303.62L684.998 304.328Z" fill="#263238"/>
<path d="M688.54 294.608C688.979 295.308 689.194 296.129 689.157 296.959C689.12 297.789 688.833 298.587 688.333 299.245C687.834 299.902 687.147 300.388 686.366 300.635C685.585 300.882 684.749 300.879 683.97 300.626C683.191 300.373 682.507 299.883 682.012 299.222C681.518 298.56 681.235 297.76 681.204 296.93C681.173 296.1 681.395 295.28 681.838 294.583C682.282 293.886 682.927 293.344 683.684 293.031C684.535 292.591 685.522 292.51 686.432 292.805C687.341 293.1 688.099 293.749 688.54 294.608Z" fill="#263238"/>
<path d="M649.337 309.278L652.103 312.107L670.729 304.024L663.367 301.438L649.337 309.278Z" fill="#E58A7B"/>
<path opacity="0.2" d="M729.315 678.634C729.434 678.634 732.141 686.354 732.141 686.354L704.599 698.114L700.261 689.91L729.315 678.634Z" fill="black"/>
<path opacity="0.2" d="M785.612 688.435C785.732 688.435 786.528 696.215 786.528 696.215H756.359L754.21 687.283L785.612 688.435Z" fill="black"/>
<path d="M780.956 211.049C786.428 228.973 765.036 253.485 765.036 253.485L735.484 241.239C738.987 230.879 743.026 220.714 747.583 210.786C756.658 190.922 775.423 192.963 780.956 211.049Z" fill="#FF9B21"/>
<path opacity="0.2" d="M780.956 211.049C786.428 228.973 765.036 253.485 765.036 253.485L735.484 241.239C738.987 230.879 743.026 220.714 747.583 210.786C756.658 190.922 775.423 192.963 780.956 211.049Z" fill="black"/>
<path d="M487.311 31.4634H474.595V33.5448H487.311V31.4634Z" fill="#FF9B21"/>
<path d="M651.92 113.843L650.381 148.525L652.429 148.618L653.968 113.937L651.92 113.843Z" fill="#FF9B21"/>
<path d="M647.964 40.7993H413.144L391.294 537.342H626.114L647.964 40.7993Z" fill="#FF9B21"/>
<path opacity="0.56" d="M640.959 47.6296H406.139L384.289 544.173H619.109L640.959 47.6296Z" fill="#FAFAFA"/>
<path opacity="0.07" d="M633.954 54.4395H399.134L377.264 550.982H612.084L633.954 54.4395Z" fill="#FF9B21"/>
<path d="M607.229 271.005H406.796L405.124 308.995H605.557L607.229 271.005Z" fill="white"/>
<path d="M517.022 243.28H408.01L407.273 260.275H516.286L517.022 243.28Z" fill="#FF9B21"/>
<path d="M602.711 373.539H402.278L400.607 411.529H601.04L602.711 373.539Z" fill="white"/>
<path opacity="0.47" d="M565.956 462.836H431.173L429.163 508.364H563.946L565.956 462.836Z" fill="#FF9B21"/>
<path d="M556.941 515.437H422.159C422.1 515.452 422.038 515.452 421.98 515.437C421.96 515.378 421.96 515.315 421.98 515.255L423.97 469.707C423.969 469.677 423.976 469.646 423.988 469.617C424 469.588 424.018 469.564 424.04 469.542C424.063 469.521 424.09 469.505 424.118 469.496C424.147 469.486 424.178 469.482 424.208 469.485H558.991C559.016 469.473 559.043 469.466 559.071 469.466C559.098 469.466 559.125 469.473 559.15 469.485C559.164 469.51 559.172 469.538 559.172 469.565C559.172 469.594 559.164 469.622 559.15 469.647L557.2 515.295C557.176 515.343 557.139 515.382 557.092 515.407C557.046 515.432 556.993 515.443 556.941 515.437ZM422.397 514.952H556.702L558.693 469.889H424.387L422.397 514.952Z" fill="white"/>
<path d="M493.48 345.814H403.492L402.756 362.829H492.724L493.48 345.814Z" fill="#FF9B21"/>
<path d="M563.389 148.283C562.874 159.34 559.003 169.964 552.305 178.697C547.346 185.293 540.966 190.647 533.653 194.35C526.34 198.052 518.288 200.005 510.117 200.056C503.513 200.107 496.969 198.785 490.888 196.171C484.807 193.556 479.317 189.705 474.757 184.856C470.197 180.005 466.663 174.258 464.373 167.969C462.083 161.679 461.085 154.98 461.441 148.283C462.141 134.389 468.042 121.29 477.937 111.667C487.832 102.044 500.973 96.6225 514.674 96.5114C521.282 96.4491 527.833 97.7635 533.922 100.373C540.01 102.983 545.507 106.833 550.073 111.684C554.638 116.537 558.175 122.288 560.466 128.583C562.756 134.878 563.751 141.583 563.389 148.283Z" fill="white"/>
<path d="M568.185 107.343C568.055 110.283 567.025 113.109 565.24 115.427C563.918 117.178 562.22 118.6 560.275 119.584C558.33 120.569 556.189 121.088 554.016 121.105C551.911 121.118 549.834 120.607 547.968 119.617C546.101 118.627 544.502 117.188 543.31 115.427C541.731 113.045 540.949 110.211 541.081 107.343C541.273 103.654 542.844 100.179 545.474 97.6247C548.103 95.0718 551.592 93.633 555.23 93.6021C556.985 93.5858 558.725 93.9346 560.342 94.6271C561.959 95.3195 563.42 96.341 564.633 97.6285C565.847 98.9161 566.788 100.441 567.399 102.113C568.01 103.784 568.277 105.564 568.185 107.343Z" fill="#FF9B21"/>
<path d="M428.387 290.001C428.292 291.628 427.592 293.159 426.428 294.285C425.265 295.41 423.725 296.045 422.119 296.063C421.343 296.072 420.574 295.919 419.859 295.616C419.143 295.311 418.497 294.861 417.96 294.293C417.423 293.724 417.006 293.05 416.736 292.312C416.465 291.574 416.347 290.787 416.388 290.001C416.474 288.368 417.171 286.832 418.336 285.705C419.502 284.578 421.047 283.946 422.656 283.938C423.431 283.932 424.199 284.086 424.913 284.392C425.627 284.697 426.272 285.147 426.808 285.715C427.345 286.283 427.762 286.955 428.033 287.692C428.305 288.429 428.425 289.214 428.387 290.001Z" fill="#263238"/>
<path d="M455.213 290.001C455.122 291.63 454.423 293.164 453.259 294.29C452.094 295.416 450.552 296.05 448.944 296.062C448.17 296.069 447.403 295.915 446.69 295.609C445.977 295.303 445.333 294.853 444.798 294.285C444.263 293.717 443.848 293.043 443.579 292.307C443.31 291.57 443.192 290.785 443.233 290.001C443.319 288.372 444.013 286.838 445.174 285.712C446.335 284.585 447.876 283.951 449.481 283.938C450.257 283.929 451.026 284.081 451.742 284.386C452.457 284.69 453.103 285.14 453.64 285.708C454.177 286.277 454.594 286.95 454.865 287.689C455.135 288.427 455.253 289.213 455.213 290.001Z" fill="#263238"/>
<path d="M482.058 290.001C481.967 291.63 481.268 293.164 480.104 294.29C478.94 295.416 477.397 296.05 475.789 296.062C475.014 296.069 474.246 295.915 473.532 295.609C472.818 295.303 472.173 294.853 471.637 294.286C471.1 293.718 470.683 293.045 470.412 292.309C470.14 291.572 470.02 290.786 470.058 290.001C470.149 288.37 470.847 286.836 472.012 285.711C473.176 284.584 474.719 283.951 476.326 283.938C477.102 283.929 477.871 284.081 478.587 284.386C479.302 284.69 479.948 285.14 480.485 285.708C481.023 286.277 481.439 286.95 481.71 287.689C481.98 288.427 482.098 289.213 482.058 290.001Z" fill="#263238"/>
<path d="M423.87 392.534C423.774 394.162 423.074 395.694 421.911 396.818C420.748 397.943 419.208 398.578 417.602 398.597C416.827 398.602 416.059 398.448 415.345 398.143C414.631 397.838 413.986 397.387 413.449 396.819C412.913 396.252 412.496 395.579 412.224 394.842C411.953 394.105 411.832 393.32 411.87 392.534C411.961 390.904 412.66 389.37 413.824 388.244C414.988 387.119 416.531 386.484 418.139 386.472C418.914 386.465 419.682 386.619 420.396 386.925C421.11 387.231 421.755 387.681 422.291 388.248C422.828 388.816 423.245 389.489 423.516 390.225C423.788 390.963 423.908 391.748 423.87 392.534Z" fill="#263238"/>
<path d="M450.695 392.534C450.604 394.161 449.909 395.692 448.749 396.817C447.589 397.942 446.051 398.578 444.447 398.597C443.671 398.606 442.902 398.454 442.186 398.149C441.471 397.845 440.825 397.394 440.288 396.826C439.751 396.258 439.334 395.584 439.063 394.846C438.793 394.107 438.675 393.321 438.715 392.534C438.806 390.904 439.505 389.37 440.669 388.244C441.833 387.119 443.376 386.484 444.984 386.472C445.758 386.465 446.525 386.619 447.238 386.925C447.951 387.231 448.595 387.682 449.13 388.249C449.665 388.817 450.08 389.491 450.349 390.227C450.618 390.964 450.736 391.75 450.695 392.534Z" fill="#263238"/>
<path d="M477.6 392.534C477.509 394.164 476.81 395.698 475.646 396.824C474.482 397.95 472.939 398.583 471.331 398.597C470.558 398.6 469.791 398.443 469.078 398.137C468.366 397.83 467.722 397.38 467.186 396.814C466.65 396.247 466.233 395.575 465.96 394.839C465.688 394.104 465.565 393.319 465.6 392.534C465.696 390.906 466.396 389.375 467.559 388.25C468.722 387.125 470.262 386.489 471.869 386.472C472.644 386.463 473.414 386.615 474.129 386.92C474.844 387.224 475.491 387.674 476.028 388.243C476.565 388.811 476.982 389.484 477.252 390.223C477.522 390.961 477.641 391.748 477.6 392.534Z" fill="#263238"/>
<path d="M504.385 392.534C504.29 394.162 503.59 395.694 502.427 396.818C501.263 397.943 499.723 398.578 498.117 398.597C497.343 398.599 496.576 398.443 495.864 398.137C495.151 397.83 494.507 397.38 493.971 396.813C493.435 396.247 493.018 395.575 492.746 394.839C492.473 394.103 492.351 393.319 492.386 392.534C492.481 390.906 493.181 389.375 494.345 388.25C495.508 387.124 497.048 386.489 498.654 386.472C499.429 386.465 500.197 386.619 500.911 386.925C501.625 387.231 502.27 387.681 502.807 388.248C503.343 388.816 503.76 389.489 504.031 390.225C504.303 390.963 504.423 391.748 504.385 392.534Z" fill="#263238"/>
<path d="M531.33 392.534C531.234 394.162 530.534 395.694 529.371 396.818C528.208 397.943 526.668 398.578 525.061 398.597C524.286 398.606 523.517 398.454 522.801 398.149C522.086 397.845 521.44 397.394 520.903 396.826C520.365 396.258 519.949 395.584 519.678 394.846C519.408 394.107 519.289 393.321 519.33 392.534C519.421 390.904 520.12 389.37 521.284 388.244C522.448 387.119 523.991 386.484 525.599 386.472C526.374 386.465 527.141 386.619 527.856 386.925C528.57 387.231 529.215 387.681 529.751 388.248C530.288 388.816 530.704 389.489 530.976 390.225C531.247 390.963 531.368 391.748 531.33 392.534Z" fill="#263238"/>
<path d="M527.257 145.588C535.586 137.316 536.028 124.059 528.244 115.975C520.46 107.893 507.398 108.045 499.069 116.316C490.74 124.588 490.298 137.845 498.082 145.928C505.866 154.012 518.928 153.858 527.257 145.588Z" fill="#FF9B21"/>
<path d="M552.305 178.697C547.346 185.293 540.966 190.647 533.653 194.35C526.34 198.053 518.288 200.005 510.117 200.056C502.193 200.125 494.374 198.212 487.35 194.487C480.325 190.762 474.312 185.339 469.839 178.697C479.51 168.916 494.814 162.53 511.768 162.53C528.723 162.53 543.489 168.916 552.305 178.697Z" fill="#FF9B21"/>
<path opacity="0.1" d="M527.257 145.588C535.586 137.316 536.028 124.059 528.244 115.975C520.46 107.893 507.398 108.045 499.069 116.316C490.74 124.588 490.298 137.845 498.082 145.928C505.866 154.012 518.928 153.858 527.257 145.588Z" fill="white"/>
<path opacity="0.1" d="M552.305 178.697C547.346 185.293 540.966 190.647 533.653 194.35C526.34 198.053 518.288 200.005 510.117 200.056C502.193 200.125 494.374 198.212 487.35 194.487C480.325 190.762 474.312 185.339 469.839 178.697C479.51 168.916 494.814 162.53 511.768 162.53C528.723 162.53 543.489 168.916 552.305 178.697Z" fill="white"/>
<path d="M259.516 318.149C257.625 322.353 255.635 326.98 253.904 331.466C252.173 335.953 250.402 340.58 248.869 345.187C245.741 354.267 243.358 363.594 241.745 373.074L241.307 376.045C241.266 376.554 241.313 377.067 241.447 377.56C241.916 379.235 242.656 380.819 243.636 382.248C246.191 385.948 249.156 389.337 252.471 392.352C255.967 395.653 259.634 398.763 263.456 401.668C267.277 404.659 271.297 407.568 275.257 410.317L271.535 417.409C262.079 413.225 253.104 408.001 244.77 401.83C240.324 398.537 236.311 394.679 232.83 390.352C230.767 387.775 229.157 384.856 228.074 381.723C227.444 379.766 227.122 377.719 227.119 375.661C227.119 375.176 227.119 374.468 227.119 374.125V373.134L227.318 371.114C228.459 360.585 230.639 350.2 233.825 340.115C235.377 335.144 237.029 330.193 238.919 325.364C240.81 320.534 242.76 315.806 245.168 310.895L259.516 318.149Z" fill="#E58A7B"/>
<path d="M272.451 409.064L286.52 401.83L282.878 417.511C282.878 417.511 273.227 420.259 268.75 415.49L272.451 409.064Z" fill="#E58A7B"/>
<path d="M299.395 404.395L295.654 417.369L282.878 417.511L286.52 401.83L299.395 404.395Z" fill="#E58A7B"/>
<path d="M319.256 242.492C320.008 245.292 321.056 248.002 322.38 250.575C321.993 251.021 321.495 251.352 320.938 251.533C320.381 251.715 319.786 251.74 319.216 251.606L319.256 242.492Z" fill="#DF5753"/>
<path d="M318.838 242.614C319.662 242.614 320.33 241.573 320.33 240.289C320.33 239.006 319.662 237.965 318.838 237.965C318.014 237.965 317.345 239.006 317.345 240.289C317.345 241.573 318.014 242.614 318.838 242.614Z" fill="#263238"/>
<path d="M318.4 238.047L321.425 237.178C321.425 237.178 319.952 239.562 318.4 238.047Z" fill="#263238"/>
<path d="M280.391 257.325C282.202 266.721 284.013 283.959 277.525 290.243C277.525 290.243 280.073 299.781 297.286 299.781C316.211 299.781 306.321 290.243 306.321 290.243C295.993 287.737 296.251 279.957 298.062 272.641L280.391 257.325Z" fill="#E58A7B"/>
<path d="M275.356 235.905C276.311 251.606 276.391 258.274 284.192 266.337C295.953 278.462 314.738 273.854 318.42 258.254C321.743 244.109 319.634 220.829 304.49 214.585C301.166 213.195 297.547 212.688 293.976 213.113C290.406 213.54 287.001 214.883 284.084 217.017C281.168 219.152 278.835 222.007 277.308 225.311C275.781 228.616 275.109 232.262 275.356 235.905Z" fill="#E58A7B"/>
<path d="M276.889 218.243C269.128 221.113 258.78 218.971 262.839 243.28C267.138 269.025 260.531 277.492 260.531 277.492C260.531 277.492 289.963 283.857 320.012 277.108C320.012 277.108 310.838 260.821 313.405 248.817C316.689 233.661 314.102 228.064 314.102 228.064C314.102 228.064 287.794 214.202 276.889 218.243Z" fill="#263238"/>
<path d="M309.724 244.089C309.732 247.074 310.574 249.996 312.151 252.515C314.261 255.789 316.748 254.536 317.365 251.06C317.922 248.009 317.504 242.614 314.818 240.512C312.131 238.41 309.763 240.471 309.724 244.089Z" fill="#E58A7B"/>
<path d="M270.142 220.89C267.914 214.524 278.54 204.724 301.027 208.766C323.514 212.807 324.489 231.822 324.489 231.822L319.952 226.326L320.151 232.105L297.047 236.612L270.142 220.89Z" fill="#263238"/>
<path d="M272.053 291.314C271.92 290.391 272.148 289.452 272.686 288.697C273.225 287.942 274.034 287.431 274.938 287.272C281.943 286.1 297.863 283.715 305.863 284.848C311.833 285.696 313.385 289.212 313.644 292.102C313.684 292.608 313.618 293.117 313.448 293.594C313.279 294.072 313.011 294.507 312.662 294.871C312.314 295.234 311.892 295.519 311.427 295.703C310.961 295.888 310.462 295.969 309.962 295.941L275.376 294.366C274.561 294.323 273.785 293.997 273.179 293.441C272.574 292.884 272.176 292.133 272.053 291.314Z" fill="#FF9B21"/>
<path opacity="0.6" d="M272.053 291.314C271.92 290.391 272.148 289.452 272.686 288.697C273.225 287.942 274.034 287.431 274.938 287.272C281.943 286.1 297.863 283.715 305.863 284.848C311.833 285.696 313.385 289.212 313.644 292.102C313.684 292.608 313.618 293.117 313.448 293.594C313.279 294.072 313.011 294.507 312.662 294.871C312.314 295.234 311.892 295.519 311.427 295.703C310.961 295.888 310.462 295.969 309.962 295.941L275.376 294.366C274.561 294.323 273.785 293.997 273.179 293.441C272.574 292.884 272.176 292.133 272.053 291.314Z" fill="black"/>
<path d="M292.052 644.342L304.888 653.395L326.36 623.831L313.524 614.799L292.052 644.342Z" fill="#E58A7B"/>
<path d="M262.123 643.756L275.675 651.596L294.679 620.335L281.127 612.495L262.123 643.756Z" fill="#E58A7B"/>
<path d="M326.34 623.831L315.276 639.068L302.44 630.035L313.505 614.799L326.34 623.831Z" fill="#CF6F64"/>
<path d="M281.107 612.495L294.679 620.355L284.888 636.461L271.317 628.6L281.107 612.495Z" fill="#CF6F64"/>
<path d="M302.878 390.008C302.878 390.008 352.986 454.127 343.573 515.457C335.992 564.987 292.013 632.055 292.013 632.055L271.337 621.628C285.91 591.974 298.347 561.286 308.55 529.805C311.696 520.031 312.614 509.659 311.235 499.472C309.856 489.285 306.216 479.55 300.59 471.001C275.197 433.353 234.522 455.764 261.884 390.008H302.878Z" fill="#FF9B21"/>
<path opacity="0.6" d="M302.878 390.008C302.878 390.008 352.986 454.127 343.573 515.457C335.992 564.987 292.013 632.055 292.013 632.055L271.337 621.628C285.91 591.974 298.347 561.286 308.55 529.805C311.696 520.031 312.614 509.659 311.235 499.472C309.856 489.285 306.216 479.55 300.59 471.001C275.197 433.353 234.522 455.764 261.884 390.008H302.878Z" fill="black"/>
<path opacity="0.4" d="M327.455 431.191L320.171 423.835C320.171 424.422 334.28 512.871 338.24 537.726C340.577 530.465 342.367 523.034 343.593 515.497C348.25 485.408 338.519 454.673 327.455 431.191Z" fill="black"/>
<path d="M325.246 390.008C325.246 390.008 385.582 470.596 387.294 518.913C388.707 559.329 321.624 637.633 321.624 637.633L302.122 624.821C302.122 624.821 341.385 569.21 351.275 523.783C347.454 478.76 266.66 390.008 266.66 390.008H325.246Z" fill="#FF9B21"/>
<path opacity="0.6" d="M325.246 390.008C325.246 390.008 385.582 470.596 387.294 518.913C388.707 559.329 321.624 637.633 321.624 637.633L302.122 624.821C302.122 624.821 341.385 569.21 351.275 523.783C347.454 478.76 266.66 390.008 266.66 390.008H325.246Z" fill="black"/>
<path d="M250.601 293.84C244.153 295.395 237.964 319.2 237.964 319.2L263.177 336.296C263.177 336.296 271.575 317.462 268.63 309.218C265.585 300.63 258.7 291.879 250.601 293.84Z" fill="#FF9B21"/>
<path opacity="0.2" d="M255.536 309.177L253.785 329.931L263.158 336.316C265.746 330.399 267.662 324.203 268.869 317.847L255.536 309.177Z" fill="black"/>
<path d="M332.708 294.304C332.708 294.304 340.151 296.952 325.246 389.988H261.844C262.919 363.718 262.939 347.552 250.601 293.84C259.478 291.982 268.477 290.78 277.525 290.243C287.112 289.545 296.735 289.545 306.321 290.243C318.698 291.395 332.708 294.304 332.708 294.304Z" fill="#FF9B21"/>
<path d="M339.156 309.177C340.588 313.219 342.101 317.564 343.693 321.746C345.285 325.929 346.797 330.234 348.409 334.478L353.285 347.167L354.518 350.34L355.155 351.916L355.454 352.705C355.454 352.847 355.454 352.847 355.454 352.825C355.09 352.305 354.614 351.877 354.061 351.573C353.274 351.103 352.386 350.832 351.474 350.785C350.716 350.761 349.962 350.906 349.265 351.209C348.349 351.634 348.349 351.816 348.369 351.796C348.535 351.661 348.682 351.504 348.807 351.331C349.909 349.862 350.862 348.284 351.653 346.622C352.588 344.763 353.484 342.783 354.379 340.782C356.13 336.74 357.742 332.558 359.354 328.334C360.966 324.111 362.498 319.847 363.991 315.542L368.528 302.65L376.19 304.671C374.677 313.886 372.727 322.858 370.379 331.992C369.244 336.538 367.911 341.045 366.399 345.592C365.643 347.875 364.807 350.138 363.852 352.462C362.856 354.984 361.63 357.407 360.19 359.696C359.661 360.468 359.075 361.197 358.439 361.879C357.423 362.994 356.189 363.881 354.817 364.486C353.599 365.016 352.281 365.265 350.956 365.214C349.473 365.157 348.028 364.719 346.757 363.94C345.258 362.99 344.014 361.678 343.136 360.121C342.837 359.596 342.578 359.07 342.399 358.686L342.021 357.918L341.265 356.342L339.753 353.21C337.763 349.007 335.773 344.763 334.041 340.5C332.31 336.236 330.479 331.911 328.768 327.566C327.057 323.222 325.524 318.877 324.072 314.189L339.156 309.177Z" fill="#E58A7B"/>
<path d="M332.708 294.304C340.33 296.144 348.907 319.018 348.907 319.018L326.241 338.6C326.241 338.6 311.574 313.664 314.539 305.439C317.624 296.871 322.758 291.9 332.708 294.304Z" fill="#FF9B21"/>
<path d="M372.13 295.416L380.09 288.666L385.622 297.417L381.543 304.711C381.543 304.711 375.055 310.773 369.324 307.682C368.414 305.606 368.196 303.285 368.703 301.072C369.209 298.858 370.412 296.873 372.13 295.416Z" fill="#E58A7B"/>
<path d="M394.458 288.686L393.861 290.89L381.264 293.031L380.03 288.666L394.458 288.686Z" fill="#E58A7B"/>
<path d="M323.176 638.664L300.45 623.75L304.53 616.557L330.061 632.5L323.176 638.664Z" fill="#FF9B21"/>
<path d="M284.57 650.546C282.576 650.298 280.66 649.608 278.958 648.525C278.888 648.5 278.827 648.454 278.784 648.393C278.741 648.33 278.718 648.257 278.718 648.182C278.718 648.106 278.741 648.032 278.784 647.971C278.827 647.909 278.888 647.863 278.958 647.838C279.575 647.636 284.928 645.958 286.48 647.252C286.655 647.399 286.787 647.591 286.864 647.808C286.941 648.025 286.96 648.258 286.918 648.484C286.891 648.849 286.772 649.199 286.573 649.503C286.375 649.807 286.103 650.055 285.784 650.222C285.411 650.429 284.995 650.539 284.57 650.546ZM280.093 648.323C282.58 649.616 284.57 650.081 285.525 649.596C285.733 649.479 285.908 649.309 286.034 649.104C286.159 648.899 286.231 648.666 286.242 648.424C286.242 648.1 286.242 647.96 286.063 647.878C285.227 647.191 282.242 647.716 280.053 648.323H280.093Z" fill="#263238"/>
<path d="M279.097 648.666C278.993 648.664 278.892 648.621 278.819 648.545C278.789 648.489 278.774 648.427 278.774 648.363C278.774 648.299 278.789 648.237 278.819 648.182C278.819 648 280.112 643.615 282.142 642.624C282.401 642.504 282.683 642.442 282.968 642.442C283.253 642.442 283.535 642.504 283.794 642.624C284.073 642.714 284.315 642.895 284.481 643.142C284.647 643.387 284.727 643.681 284.709 643.978C284.57 645.797 280.928 648.302 279.257 648.727L279.097 648.666ZM282.958 643.149C282.765 643.156 282.575 643.204 282.401 643.291C281.167 643.897 280.152 646.262 279.655 647.696C281.406 646.949 283.814 644.968 283.893 643.857C283.893 643.675 283.893 643.453 283.436 643.251C283.287 643.169 283.125 643.115 282.958 643.089V643.149Z" fill="#263238"/>
<path d="M312.967 659.276C310.719 659.276 307.594 656.345 305.883 654.547C305.839 654.484 305.816 654.411 305.816 654.335C305.816 654.258 305.839 654.185 305.883 654.122C305.922 654.057 305.978 654.005 306.045 653.968C306.111 653.933 306.186 653.916 306.261 653.92C307.057 653.92 313.962 654.971 314.937 656.951C315.041 657.129 315.095 657.332 315.095 657.538C315.095 657.744 315.041 657.946 314.937 658.123C314.791 658.432 314.57 658.698 314.295 658.895C314.02 659.094 313.7 659.217 313.365 659.255L312.967 659.276ZM307.196 654.829C309.704 657.295 311.913 658.669 313.166 658.507C313.386 658.479 313.595 658.395 313.775 658.265C313.956 658.135 314.102 657.961 314.201 657.76C314.246 657.691 314.269 657.61 314.269 657.527C314.269 657.445 314.246 657.364 314.201 657.295C313.684 656.204 310.002 655.274 307.196 654.829Z" fill="#263238"/>
<path d="M307.415 654.729C306.969 654.741 306.522 654.708 306.082 654.627C306.02 654.619 305.962 654.593 305.914 654.553C305.865 654.515 305.827 654.463 305.803 654.405C305.774 654.346 305.758 654.28 305.758 654.213C305.758 654.146 305.774 654.081 305.803 654.022C305.923 653.88 308.609 650.586 311.156 650.364C311.877 650.307 312.592 650.539 313.146 651.011C313.923 651.698 313.883 652.304 313.684 652.687C313.186 654.062 309.743 654.729 307.415 654.729ZM306.898 653.981C309.127 654.102 312.689 653.354 313.146 652.364C313.146 652.364 313.306 652.041 312.788 651.596C312.582 651.415 312.342 651.278 312.082 651.195C311.821 651.111 311.547 651.083 311.276 651.111C309.56 651.598 308.032 652.606 306.898 654.001V653.981Z" fill="#263238"/>
<path d="M279.635 646.484L262.76 641.633C262.469 641.544 262.156 641.567 261.88 641.698C261.605 641.828 261.386 642.057 261.267 642.341L255.576 655.335C255.442 655.667 255.379 656.025 255.392 656.384C255.404 656.743 255.491 657.096 255.647 657.419C255.803 657.742 256.024 658.027 256.297 658.256C256.569 658.486 256.886 658.654 257.227 658.749C263.197 660.326 266.063 660.771 273.486 662.933C278.063 664.226 284.59 666.631 290.898 668.449C297.206 670.269 299.316 664.024 296.868 662.691C285.804 656.749 284.928 652.586 281.903 648.14C281.362 647.336 280.559 646.749 279.635 646.484Z" fill="#FF9B21"/>
<path d="M306.341 652.182L291.933 642.078C291.689 641.898 291.388 641.815 291.087 641.844C290.786 641.874 290.506 642.015 290.301 642.24L280.749 652.667C280.516 652.937 280.343 653.253 280.24 653.596C280.137 653.939 280.107 654.3 280.152 654.656C280.197 655.011 280.317 655.353 280.502 655.659C280.687 655.963 280.934 656.225 281.227 656.426C286.301 659.882 288.928 661.276 295.276 665.742C299.256 668.49 306.957 674.593 312.33 678.392C317.703 682.191 321.703 676.978 319.793 674.916C311.236 665.64 309.365 659.82 307.952 654.547C307.707 653.59 307.136 652.752 306.341 652.182Z" fill="#FF9B21"/>
<path d="M294.659 633.389L268.69 620.275L271.376 613.121L299.117 626.943L294.659 633.389Z" fill="#FF9B21"/>
<path d="M260.889 386.209L258.7 392.028C258.481 392.473 258.999 392.939 259.735 392.939H325.564C326.141 392.939 326.619 392.655 326.658 392.292L327.216 386.512C327.216 386.128 326.758 385.785 326.141 385.785H261.924C261.73 385.766 261.536 385.795 261.356 385.869C261.175 385.943 261.016 386.059 260.889 386.209Z" fill="#FF9B21"/>
<path opacity="0.4" d="M260.889 386.209L258.7 392.028C258.481 392.473 258.999 392.939 259.735 392.939H325.564C326.141 392.939 326.619 392.655 326.658 392.292L327.216 386.512C327.216 386.128 326.758 385.785 326.141 385.785H261.924C261.73 385.766 261.536 385.795 261.356 385.869C261.175 385.943 261.016 386.059 260.889 386.209Z" fill="white"/>
<path d="M271.257 393.504H269.526C269.187 393.504 268.929 393.322 268.949 393.1L269.764 385.603C269.764 385.401 270.083 385.219 270.421 385.219H272.152C272.491 385.219 272.749 385.401 272.73 385.603L271.914 393.1C271.894 393.322 271.595 393.504 271.257 393.504Z" fill="#FF9B21"/>
<path d="M311.853 393.504H310.142C309.803 393.504 309.545 393.322 309.564 393.1L310.36 385.603C310.36 385.401 310.699 385.219 311.037 385.219H312.748C313.087 385.219 313.365 385.401 313.326 385.603L312.53 393.1C312.43 393.322 312.211 393.504 311.853 393.504Z" fill="#FF9B21"/>
<g style="mix-blend-mode:multiply">
<g style="mix-blend-mode:multiply">
<path d="M269.745 735.721C299.188 735.721 323.057 733.966 323.057 731.801C323.057 729.636 299.188 727.881 269.745 727.881C240.301 727.881 216.432 729.636 216.432 731.801C216.432 733.966 240.301 735.721 269.745 735.721Z" fill="#F5F5F5"/>
</g>
</g>
<path d="M302.221 726.264C292.789 723.475 282.321 719.899 275.993 716.16C275.814 716.039 275.615 715.979 275.436 715.877V672.511H294.52C295.969 672.424 297.33 671.779 298.325 670.707C299.321 669.634 299.875 668.216 299.875 666.742C299.875 665.269 299.321 663.85 298.325 662.778C297.33 661.706 295.969 661.06 294.52 660.973H275.535V463.301H264.073V660.973H245.108C244.334 660.926 243.558 661.041 242.829 661.309C242.1 661.579 241.433 661.996 240.868 662.537C240.304 663.077 239.854 663.728 239.547 664.452C239.239 665.175 239.081 665.955 239.081 666.742C239.081 667.53 239.239 668.31 239.547 669.033C239.854 669.755 240.304 670.408 240.868 670.948C241.433 671.488 242.1 671.905 242.829 672.174C243.558 672.443 244.334 672.557 245.108 672.511H264.073V715.817C263.894 715.817 263.715 715.978 263.536 716.099C257.108 719.899 246.72 723.475 237.288 726.203C236.65 726.399 236.103 726.819 235.745 727.389C235.387 727.96 235.242 728.641 235.336 729.31C235.43 729.979 235.756 730.592 236.257 731.038C236.757 731.484 237.398 731.733 238.064 731.74H301.445C302.081 731.696 302.683 731.432 303.151 730.992C303.618 730.551 303.923 729.962 304.013 729.321C304.104 728.68 303.976 728.027 303.65 727.47C303.324 726.914 302.819 726.488 302.221 726.264Z" fill="#E0E0E0"/>
<path d="M305.147 443.174H234.382C228.689 443.174 224.074 447.861 224.074 453.642V475.001C224.074 480.783 228.689 485.469 234.382 485.469H305.147C310.84 485.469 315.455 480.783 315.455 475.001V453.642C315.455 447.861 310.84 443.174 305.147 443.174Z" fill="#FF9B21"/>
<path d="M233.725 485.49V489.167C233.725 492.198 236.969 494.663 240.949 494.663H298.659C302.639 494.663 305.883 492.198 305.883 489.167V485.49H233.725Z" fill="#FF9B21"/>
<path opacity="0.3" d="M233.725 485.49V489.167C233.725 492.198 236.969 494.663 240.949 494.663H298.659C302.639 494.663 305.883 492.198 305.883 489.167V485.49H233.725Z" fill="white"/>
</svg>
