<svg width="801" height="777" viewBox="0 0 801 777" fill="none" xmlns="http://www.w3.org/2000/svg">
<path d="M345.161 776.483C513.468 776.483 649.907 767.983 649.907 757.497C649.907 747.012 513.468 738.512 345.161 738.512C176.854 738.512 40.4144 747.012 40.4144 757.497C40.4144 767.983 176.854 776.483 345.161 776.483Z" fill="#FF9B21"/>
<path opacity="0.8" d="M345.161 776.483C513.468 776.483 649.907 767.983 649.907 757.497C649.907 747.012 513.468 738.512 345.161 738.512C176.854 738.512 40.4144 747.012 40.4144 757.497C40.4144 767.983 176.854 776.483 345.161 776.483Z" fill="white"/>
<path d="M574.164 35.5728H267.742C246.587 35.5728 229.437 52.7226 229.437 73.878V720.789C229.437 741.945 246.587 759.094 267.742 759.094H574.164C595.32 759.094 612.47 741.945 612.47 720.789V73.878C612.47 52.7226 595.32 35.5728 574.164 35.5728Z" fill="#263238"/>
<path d="M595.436 115.022H246.45V679.645H595.436V115.022Z" fill="white" stroke="#263238" stroke-width="1.33739" stroke-miterlimit="10"/>
<path d="M474.442 343.654C503.983 314.113 503.983 266.218 474.442 236.677C444.901 207.136 397.005 207.136 367.464 236.677C337.923 266.218 337.923 314.113 367.464 343.654C397.005 373.195 444.901 373.195 474.442 343.654Z" fill="#FF9B21"/>
<path d="M520.265 644.139H321.661C321.214 644.142 320.771 644.056 320.358 643.887C319.944 643.718 319.568 643.468 319.251 643.153C318.934 642.838 318.682 642.463 318.511 642.051C318.339 641.638 318.251 641.195 318.251 640.748C318.248 640.3 318.334 639.855 318.505 639.44C318.675 639.025 318.926 638.648 319.244 638.331C319.561 638.014 319.938 637.762 320.353 637.592C320.768 637.421 321.213 637.335 321.661 637.338H520.265C520.712 637.338 521.154 637.426 521.567 637.598C521.98 637.769 522.355 638.021 522.67 638.338C522.985 638.655 523.234 639.031 523.403 639.445C523.573 639.858 523.658 640.301 523.656 640.748C523.656 641.648 523.299 642.51 522.663 643.146C522.027 643.782 521.164 644.139 520.265 644.139Z" fill="#FF9B21"/>
<path d="M526.731 408.334H315.175C310.809 408.334 307.27 411.874 307.27 416.24V441.179C307.27 445.545 310.809 449.084 315.175 449.084H526.731C531.097 449.084 534.637 445.545 534.637 441.179V416.24C534.637 411.874 531.097 408.334 526.731 408.334Z" fill="#FF9B21"/>
<path d="M526.731 484.55H315.175C310.809 484.55 307.27 488.09 307.27 492.456V517.395C307.27 521.761 310.809 525.3 315.175 525.3H526.731C531.097 525.3 534.637 521.761 534.637 517.395V492.456C534.637 488.09 531.097 484.55 526.731 484.55Z" fill="#FF9B21"/>
<path d="M458.618 327.899L436.36 315.085V304.498C439.583 300.599 441.917 296.044 443.201 291.151C443.967 291.423 444.774 291.563 445.586 291.565C448.346 291.565 450.101 283.009 450.397 276.898C453.61 270.096 449.234 266.114 449.234 266.114C449.234 266.114 451.047 264.3 452.25 257.025C453.453 249.751 448.011 252.787 443.773 246.123C439.534 239.46 436.498 232.205 422.58 232.205C418.744 232.079 414.96 233.109 411.718 235.163C408.477 237.216 405.928 240.197 404.403 243.718C400.938 243.731 397.486 244.134 394.112 244.921C389.854 246.123 388.651 260.061 392.279 265.522C393.902 268.507 394.769 271.844 394.802 275.242C393.836 274.059 392.831 273.743 392.279 276.424C391.076 282.477 395.926 290.954 395.926 290.954L398.429 290.244C399.691 295.474 402.124 300.348 405.546 304.498V315.085L383.289 327.899C380.689 329.4 378.53 331.558 377.029 334.156C375.527 336.755 374.735 339.703 374.733 342.705V350.038C387.97 360.265 404.226 365.812 420.953 365.812C437.681 365.812 453.936 360.265 467.174 350.038V342.705C467.175 339.702 466.385 336.753 464.883 334.153C463.381 331.554 461.22 329.397 458.618 327.899Z" fill="#263238"/>
<path d="M336.073 515.167C335.562 515.159 335.075 514.955 334.712 514.595C334.518 514.422 334.363 514.209 334.258 513.971C334.153 513.733 334.099 513.475 334.101 513.215C334.107 512.859 334.209 512.512 334.397 512.21L337.945 506.532L331.026 506.749C330.765 506.765 330.504 506.726 330.259 506.634C330.014 506.543 329.792 506.4 329.606 506.216C329.285 505.855 329.107 505.389 329.107 504.905C329.107 504.422 329.285 503.955 329.606 503.594C329.788 503.404 330.009 503.256 330.254 503.16C330.5 503.065 330.763 503.025 331.026 503.042L337.847 503.299L334.338 497.641C334.147 497.333 334.044 496.978 334.042 496.615C334.04 496.355 334.094 496.098 334.199 495.86C334.304 495.622 334.459 495.409 334.653 495.235C335.015 494.876 335.503 494.671 336.013 494.664C336.349 494.666 336.678 494.763 336.96 494.945C337.243 495.126 337.468 495.384 337.61 495.689L340.981 501.781L344.313 495.728C344.471 495.405 344.715 495.132 345.017 494.937C345.319 494.743 345.669 494.634 346.028 494.624C346.277 494.626 346.524 494.679 346.751 494.781C346.978 494.883 347.182 495.031 347.349 495.216C347.711 495.591 347.909 496.094 347.901 496.615C347.9 496.954 347.812 497.287 347.645 497.581L344.077 503.299L350.996 503.042C351.259 503.025 351.522 503.065 351.768 503.16C352.013 503.256 352.234 503.404 352.416 503.594C352.752 503.943 352.936 504.411 352.928 504.896C352.927 505.384 352.744 505.855 352.416 506.216C352.23 506.4 352.008 506.543 351.763 506.634C351.518 506.726 351.257 506.765 350.996 506.749L344.037 506.532L347.507 512.15C347.701 512.464 347.804 512.826 347.803 513.195C347.803 513.718 347.595 514.22 347.225 514.589C346.855 514.959 346.354 515.167 345.831 515.167C345.493 515.162 345.164 515.059 344.884 514.87C344.603 514.681 344.385 514.414 344.254 514.102L340.962 508.188L337.689 514.102C337.544 514.411 337.316 514.674 337.031 514.862C336.746 515.05 336.414 515.156 336.073 515.167Z" fill="#263238"/>
<path d="M368.049 515.167C367.539 515.16 367.051 514.955 366.689 514.595C366.495 514.422 366.34 514.209 366.235 513.971C366.13 513.733 366.076 513.475 366.078 513.215C366.084 512.859 366.186 512.512 366.374 512.21L369.922 506.532L363.022 506.749C362.759 506.761 362.496 506.72 362.249 506.628C362.002 506.537 361.775 506.397 361.583 506.216C361.321 505.946 361.147 505.604 361.083 505.234C361.018 504.863 361.067 504.482 361.222 504.139C361.377 503.797 361.632 503.509 361.953 503.314C362.274 503.118 362.647 503.023 363.022 503.042L369.824 503.299L366.315 497.641C366.124 497.333 366.021 496.978 366.019 496.615C366.017 496.355 366.07 496.098 366.176 495.86C366.281 495.622 366.436 495.409 366.63 495.235C366.992 494.876 367.48 494.671 367.99 494.664C368.326 494.666 368.655 494.763 368.937 494.945C369.22 495.126 369.445 495.384 369.587 495.689L372.958 501.781L376.29 495.728C376.448 495.405 376.691 495.132 376.994 494.937C377.296 494.743 377.646 494.634 378.005 494.624C378.255 494.623 378.502 494.675 378.729 494.777C378.957 494.879 379.161 495.029 379.326 495.216C379.509 495.4 379.653 495.618 379.751 495.859C379.85 496.099 379.899 496.356 379.898 496.615C379.891 496.956 379.796 497.289 379.622 497.581L376.053 503.299L382.993 503.082C383.253 503.064 383.513 503.105 383.755 503.2C383.997 503.296 384.215 503.444 384.393 503.634C384.729 503.983 384.913 504.451 384.905 504.935C384.904 505.424 384.721 505.894 384.393 506.256C384.211 506.439 383.992 506.581 383.75 506.673C383.509 506.765 383.251 506.804 382.993 506.788L376.014 506.571L379.484 512.19C379.678 512.504 379.781 512.866 379.78 513.235C379.78 513.758 379.572 514.259 379.202 514.629C378.832 514.999 378.331 515.206 377.808 515.206C377.47 515.202 377.141 515.099 376.861 514.909C376.58 514.72 376.361 514.453 376.231 514.142L372.939 508.227L369.666 514.142C369.515 514.443 369.285 514.698 369 514.879C368.715 515.06 368.387 515.159 368.049 515.167Z" fill="#263238"/>
<path d="M400.046 515.167C399.529 515.165 399.033 514.959 398.666 514.595C398.472 514.422 398.317 514.209 398.212 513.971C398.106 513.733 398.053 513.475 398.055 513.215C398.061 512.859 398.163 512.512 398.351 512.21L401.899 506.532L394.999 506.749C394.628 506.764 394.26 506.667 393.943 506.473C393.626 506.278 393.375 505.993 393.221 505.655C393.066 505.316 393.016 504.94 393.076 504.573C393.137 504.206 393.305 503.865 393.56 503.594C393.746 503.405 393.971 503.257 394.219 503.162C394.468 503.066 394.734 503.026 394.999 503.042L401.801 503.299L398.291 497.641C398.1 497.333 397.998 496.978 397.996 496.615C398.002 496.357 398.059 496.101 398.164 495.865C398.269 495.628 398.419 495.414 398.607 495.235C398.974 494.871 399.47 494.666 399.987 494.664C400.319 494.67 400.644 494.769 400.922 494.95C401.201 495.131 401.424 495.387 401.564 495.689L404.935 501.781L408.267 495.728C408.425 495.405 408.668 495.132 408.971 494.937C409.273 494.743 409.623 494.634 409.982 494.624C410.232 494.623 410.479 494.675 410.706 494.777C410.934 494.879 411.138 495.029 411.303 495.216C411.486 495.4 411.63 495.618 411.728 495.859C411.826 496.099 411.876 496.356 411.875 496.615C411.868 496.956 411.773 497.289 411.599 497.581L408.03 503.299L414.97 503.042C415.225 503.017 415.483 503.046 415.725 503.129C415.968 503.211 416.191 503.345 416.377 503.52C416.564 503.696 416.711 503.91 416.808 504.147C416.906 504.384 416.951 504.639 416.941 504.896C416.945 505.382 416.77 505.852 416.448 506.216C416.263 506.4 416.04 506.543 415.796 506.634C415.551 506.726 415.29 506.765 415.029 506.749L408.07 506.532L411.52 512.15C411.714 512.464 411.817 512.826 411.816 513.195C411.809 513.454 411.752 513.709 411.647 513.946C411.542 514.183 411.392 514.397 411.204 514.575C411.033 514.76 410.826 514.907 410.595 515.009C410.365 515.111 410.116 515.165 409.864 515.167C409.529 515.161 409.202 515.057 408.926 514.868C408.649 514.679 408.434 514.412 408.306 514.102L404.994 508.188L401.722 514.102C401.574 514.422 401.338 514.692 401.04 514.881C400.743 515.07 400.398 515.169 400.046 515.167Z" fill="#263238"/>
<path d="M432.023 515.167C431.506 515.165 431.01 514.959 430.643 514.595C430.271 514.231 430.059 513.735 430.051 513.215C430.045 512.86 430.141 512.511 430.327 512.21L433.876 506.532L426.976 506.749C426.713 506.761 426.45 506.72 426.203 506.628C425.955 506.537 425.729 506.397 425.537 506.216C425.215 505.855 425.038 505.389 425.038 504.905C425.038 504.422 425.215 503.955 425.537 503.594C425.727 503.41 425.953 503.267 426.2 503.172C426.448 503.077 426.711 503.033 426.976 503.042L433.797 503.299L430.308 497.641C430.117 497.333 430.015 496.978 430.012 496.615C430.018 496.357 430.075 496.101 430.18 495.865C430.285 495.628 430.436 495.414 430.623 495.235C430.99 494.871 431.486 494.666 432.003 494.664C432.339 494.666 432.668 494.763 432.95 494.945C433.233 495.126 433.458 495.384 433.6 495.689L436.952 501.781L440.283 495.728C440.441 495.405 440.685 495.132 440.987 494.937C441.289 494.743 441.639 494.634 441.998 494.624C442.248 494.623 442.495 494.675 442.723 494.777C442.95 494.879 443.154 495.029 443.319 495.216C443.502 495.4 443.647 495.618 443.745 495.859C443.843 496.099 443.893 496.356 443.891 496.615C443.884 496.956 443.789 497.289 443.615 497.581L440.047 503.299L446.986 503.042C447.241 503.017 447.499 503.046 447.742 503.129C447.985 503.211 448.207 503.345 448.394 503.52C448.58 503.696 448.728 503.91 448.825 504.147C448.922 504.384 448.967 504.639 448.958 504.896C448.962 505.382 448.786 505.852 448.465 506.216C448.279 506.4 448.057 506.543 447.812 506.634C447.567 506.726 447.306 506.765 447.045 506.749L440.086 506.532L443.536 512.15C443.731 512.464 443.833 512.826 443.832 513.195C443.834 513.456 443.78 513.713 443.675 513.951C443.57 514.189 443.415 514.402 443.221 514.575C443.049 514.76 442.842 514.907 442.611 515.009C442.381 515.111 442.132 515.165 441.88 515.167C441.545 515.161 441.219 515.057 440.942 514.868C440.665 514.679 440.45 514.412 440.323 514.102L437.011 508.188L433.738 514.102C433.588 514.428 433.345 514.703 433.04 514.892C432.735 515.081 432.382 515.177 432.023 515.167Z" fill="#263238"/>
<path d="M464 515.167C463.483 515.165 462.987 514.959 462.62 514.595C462.314 514.286 462.12 513.884 462.066 513.453C462.013 513.021 462.103 512.584 462.324 512.21L465.853 506.532L458.953 506.749C458.69 506.761 458.427 506.72 458.179 506.628C457.932 506.537 457.706 506.397 457.514 506.216C457.192 505.855 457.015 505.389 457.015 504.905C457.015 504.422 457.192 503.955 457.514 503.594C457.704 503.41 457.93 503.267 458.177 503.172C458.424 503.077 458.688 503.033 458.953 503.042L465.774 503.299L462.265 497.641C462.074 497.333 461.972 496.978 461.969 496.615C461.977 496.095 462.189 495.599 462.561 495.235C462.928 494.871 463.423 494.666 463.941 494.664C464.277 494.666 464.605 494.763 464.888 494.945C465.17 495.126 465.396 495.384 465.538 495.689L468.889 501.781L472.221 495.728C472.379 495.405 472.622 495.132 472.924 494.937C473.227 494.743 473.577 494.634 473.936 494.624C474.188 494.623 474.438 494.675 474.669 494.777C474.9 494.879 475.107 495.028 475.276 495.216C475.638 495.591 475.837 496.094 475.828 496.615C475.821 496.956 475.726 497.289 475.553 497.581L471.984 503.299L478.924 503.042C479.179 503.017 479.436 503.046 479.679 503.129C479.922 503.211 480.144 503.345 480.331 503.52C480.518 503.696 480.665 503.91 480.762 504.147C480.86 504.384 480.905 504.639 480.895 504.896C480.899 505.382 480.724 505.852 480.402 506.216C480.217 506.4 479.994 506.543 479.749 506.634C479.505 506.726 479.244 506.765 478.983 506.749L472.024 506.532L475.474 512.15C475.668 512.464 475.771 512.826 475.769 513.195C475.771 513.456 475.718 513.713 475.612 513.951C475.507 514.189 475.352 514.402 475.158 514.575C474.987 514.76 474.779 514.907 474.549 515.009C474.318 515.111 474.07 515.165 473.818 515.167C473.482 515.161 473.156 515.057 472.879 514.868C472.603 514.679 472.387 514.412 472.26 514.102L468.948 508.188L465.676 514.102C465.528 514.422 465.291 514.692 464.994 514.881C464.697 515.07 464.352 515.169 464 515.167Z" fill="#263238"/>
<path d="M495.977 515.167C495.466 515.16 494.979 514.955 494.616 514.595C494.422 514.422 494.268 514.209 494.162 513.971C494.057 513.733 494.003 513.475 494.005 513.215C494.011 512.859 494.113 512.512 494.301 512.21L497.83 506.532L490.93 506.749C490.676 506.768 490.421 506.734 490.181 506.649C489.941 506.564 489.721 506.431 489.536 506.256C489.35 506.082 489.203 505.871 489.104 505.637C489.004 505.402 488.955 505.15 488.958 504.896C488.957 504.654 489.003 504.415 489.095 504.192C489.186 503.969 489.321 503.766 489.491 503.594C489.672 503.404 489.894 503.256 490.139 503.16C490.384 503.065 490.647 503.025 490.91 503.042L497.731 503.299L494.222 497.641C494.031 497.333 493.929 496.978 493.926 496.615C493.934 496.095 494.146 495.599 494.518 495.235C494.885 494.871 495.381 494.666 495.898 494.664C496.234 494.666 496.562 494.763 496.845 494.945C497.128 495.126 497.353 495.384 497.495 495.689L500.846 501.781L504.198 495.728C504.354 495.408 504.594 495.137 504.893 494.942C505.191 494.748 505.537 494.638 505.893 494.624C506.146 494.623 506.396 494.675 506.627 494.777C506.858 494.879 507.064 495.028 507.234 495.216C507.595 495.591 507.794 496.094 507.786 496.615C507.785 496.954 507.696 497.287 507.529 497.581L503.961 503.299L510.881 503.042C511.143 503.025 511.407 503.065 511.652 503.16C511.897 503.256 512.119 503.404 512.3 503.594C512.636 503.943 512.821 504.411 512.813 504.896C512.812 505.384 512.629 505.855 512.3 506.216C512.115 506.4 511.892 506.543 511.647 506.634C511.403 506.726 511.142 506.765 510.881 506.749L503.922 506.532L507.372 512.15C507.566 512.464 507.669 512.826 507.667 513.195C507.66 513.715 507.447 514.211 507.076 514.575C506.717 514.942 506.229 515.154 505.716 515.167C505.38 515.161 505.054 515.057 504.777 514.868C504.501 514.679 504.285 514.412 504.158 514.102L500.846 508.188L497.574 514.102C497.432 514.41 497.207 514.672 496.926 514.86C496.644 515.048 496.315 515.154 495.977 515.167Z" fill="#263238"/>
<g style="mix-blend-mode:multiply">
<g style="mix-blend-mode:multiply">
<path d="M595.436 115.771H246.45V137.635H595.436V115.771Z" fill="#FF9B21"/>
</g>
</g>
<path d="M458.894 75.4944H382.993C381.623 75.4944 380.309 74.9503 379.341 73.9816C378.372 73.0129 377.828 71.6991 377.828 70.3292C377.828 68.9594 378.372 67.6456 379.341 66.6769C380.309 65.7083 381.623 65.1641 382.993 65.1641H458.894C460.264 65.1641 461.577 65.7083 462.546 66.6769C463.515 67.6456 464.059 68.9594 464.059 70.3292C464.059 71.6991 463.515 73.0129 462.546 73.9816C461.577 74.9503 460.264 75.4944 458.894 75.4944Z" fill="#FF9B21" stroke="#263238" stroke-width="1.33739" stroke-linecap="round" stroke-linejoin="round"/>
<path d="M441.644 711.543C441.647 707.447 440.436 703.442 438.163 700.035C435.89 696.628 432.657 693.972 428.874 692.402C425.091 690.833 420.927 690.422 416.91 691.22C412.893 692.018 409.202 693.99 406.306 696.886C403.41 699.782 401.438 703.472 400.64 707.49C399.842 711.507 400.253 715.671 401.823 719.454C403.392 723.237 406.048 726.47 409.455 728.743C412.862 731.016 416.867 732.227 420.963 732.223C426.446 732.218 431.703 730.038 435.581 726.16C439.458 722.283 441.638 717.026 441.644 711.543Z" fill="#FF9B21"/>
<path d="M431.451 701.055H410.475V722.031H431.451V701.055Z" fill="#FF9B21" stroke="#263238" stroke-width="1.33739" stroke-linecap="round" stroke-linejoin="round"/>
<path d="M670.824 473.51C670.824 473.51 643.342 403.681 667.808 395.382C693.279 386.727 692.156 432.839 691.17 455.314C689.1 503.338 683.797 512.269 679.834 500.539L670.824 473.51ZM662.564 527.981C670.115 537.838 672.244 527.626 658.621 481.514C652.234 459.828 638.355 415.963 617.063 432.425C596.619 448.197 645.275 505.369 645.275 505.369L662.564 527.981ZM647.975 568.002C655.171 574.389 655.309 566.326 638.217 533.028C630.193 517.434 613.219 485.871 599.32 501.485C585.973 516.547 631.455 553.157 631.455 553.157L647.975 568.002ZM632.204 615.592C639.4 622 639.538 613.917 622.445 580.639C614.421 565.044 597.447 533.462 583.548 549.095C570.281 564.197 615.624 600.807 615.624 600.807L632.204 615.592ZM677.744 518.715C666.231 523.21 675.379 528.099 723.462 527.961C746.016 527.961 792.069 526.936 782.251 501.879C772.847 477.808 704.359 508.464 704.359 508.464L677.744 518.715ZM664.634 550.732C652.451 552.841 660.455 559.465 707.612 568.889C729.712 573.325 775.035 581.506 770.402 555.089C765.967 529.617 692.747 546.059 692.747 546.059L664.634 550.732ZM649.967 589.826C639.597 591.324 646.221 597.1 685.867 606.169C704.457 610.427 742.605 618.412 739.293 595.878C736.139 574.192 673.841 586.454 673.841 586.454L649.967 589.826ZM638.828 626.041C628.675 628.624 635.871 633.671 676.285 638.481C695.211 640.728 733.99 644.632 728.332 622.571C722.871 601.398 662.229 620.146 662.229 620.146L638.828 626.041ZM698.247 479.424C692.333 492.673 704.615 490.662 746.37 454.229C765.927 437.137 805.159 401.375 774.089 383.573C744.261 366.46 712.186 449.025 712.186 449.025L698.247 479.424ZM640.366 673.218C634.116 676.865 640.247 678.284 668.912 672.567C682.357 669.906 709.701 663.991 700.455 652.32C691.505 641.083 654.836 664.741 654.836 664.741L640.366 673.218Z" fill="#FF9B21"/>
<path opacity="0.3" d="M670.824 473.51C670.824 473.51 643.342 403.681 667.808 395.382C693.279 386.727 692.156 432.839 691.17 455.314C689.1 503.338 683.797 512.269 679.834 500.539L670.824 473.51ZM662.564 527.981C670.115 537.838 672.244 527.626 658.621 481.514C652.234 459.828 638.355 415.963 617.063 432.425C596.619 448.197 645.275 505.369 645.275 505.369L662.564 527.981ZM647.975 568.002C655.171 574.389 655.309 566.326 638.217 533.028C630.193 517.434 613.219 485.871 599.32 501.485C585.973 516.547 631.455 553.157 631.455 553.157L647.975 568.002ZM632.204 615.592C639.4 622 639.538 613.917 622.445 580.639C614.421 565.044 597.447 533.462 583.548 549.095C570.281 564.197 615.624 600.807 615.624 600.807L632.204 615.592ZM677.744 518.715C666.231 523.21 675.379 528.099 723.462 527.961C746.016 527.961 792.069 526.936 782.251 501.879C772.847 477.808 704.359 508.464 704.359 508.464L677.744 518.715ZM664.634 550.732C652.451 552.841 660.455 559.465 707.612 568.889C729.712 573.325 775.035 581.506 770.402 555.089C765.967 529.617 692.747 546.059 692.747 546.059L664.634 550.732ZM649.967 589.826C639.597 591.324 646.221 597.1 685.867 606.169C704.457 610.427 742.605 618.412 739.293 595.878C736.139 574.192 673.841 586.454 673.841 586.454L649.967 589.826ZM638.828 626.041C628.675 628.624 635.871 633.671 676.285 638.481C695.211 640.728 733.99 644.632 728.332 622.571C722.871 601.398 662.229 620.146 662.229 620.146L638.828 626.041ZM698.247 479.424C692.333 492.673 704.615 490.662 746.37 454.229C765.927 437.137 805.159 401.375 774.089 383.573C744.261 366.46 712.186 449.025 712.186 449.025L698.247 479.424ZM640.366 673.218C634.116 676.865 640.247 678.284 668.912 672.567C682.357 669.906 709.701 663.991 700.455 652.32C691.505 641.083 654.836 664.741 654.836 664.741L640.366 673.218Z" fill="white"/>
<path d="M682.949 506.019L678.158 426.314L682.949 506.019ZM667.788 532.318L637.507 463.771L667.788 532.318ZM745.937 512.387L673.368 522.796L745.937 512.387ZM652.096 569.263L612.805 518.853L652.096 569.263ZM658.996 553.807L713.132 556.528L658.996 553.807ZM646.181 592.467L687.582 596.568L646.181 592.467ZM636.186 617.031L615.624 586.099L636.186 617.031ZM633.82 627.953L682.495 628.407L633.82 627.953ZM623.963 719.271C624.289 719.246 624.592 719.093 624.806 718.845C625.02 718.598 625.128 718.276 625.107 717.95C622.011 671.463 639.991 595.326 668.833 532.831C687.266 492.889 759.52 414.386 760.289 413.598C760.521 413.365 760.652 413.049 760.652 412.72C760.652 412.391 760.521 412.076 760.289 411.843C760.175 411.729 760.04 411.638 759.891 411.576C759.742 411.514 759.583 411.482 759.421 411.482C759.26 411.482 759.1 411.514 758.952 411.576C758.803 411.638 758.668 411.729 758.554 411.843C757.825 412.632 685.275 491.43 666.684 531.727C637.31 595.74 619.567 670.497 622.721 718.108C622.746 718.422 622.887 718.715 623.117 718.93C623.346 719.145 623.648 719.267 623.963 719.271ZM682.929 507.241C683.255 507.221 683.56 507.073 683.778 506.83C683.996 506.586 684.109 506.267 684.092 505.94L679.381 426.195C679.373 426.033 679.333 425.874 679.263 425.727C679.194 425.58 679.095 425.449 678.974 425.34C678.853 425.232 678.712 425.149 678.558 425.096C678.404 425.043 678.242 425.021 678.079 425.032C677.753 425.052 677.449 425.2 677.231 425.444C677.013 425.687 676.9 426.007 676.916 426.333L681.707 506.039C681.722 506.353 681.858 506.649 682.085 506.865C682.313 507.082 682.615 507.202 682.929 507.202V507.241ZM668.222 533.442C668.518 533.308 668.749 533.064 668.867 532.762C668.985 532.46 668.98 532.124 668.853 531.825L638.552 463.278C638.421 462.98 638.177 462.746 637.874 462.628C637.571 462.51 637.233 462.517 636.935 462.647C636.637 462.778 636.403 463.022 636.285 463.325C636.167 463.628 636.174 463.966 636.304 464.264L666.586 532.811C666.681 533.031 666.838 533.219 667.037 533.352C667.236 533.485 667.47 533.557 667.71 533.56C667.914 533.571 668.117 533.53 668.301 533.442H668.222ZM673.466 523.979L745.996 513.609C746.171 513.606 746.343 513.565 746.502 513.49C746.66 513.415 746.801 513.307 746.914 513.174C747.028 513.041 747.113 512.885 747.162 512.717C747.211 512.549 747.224 512.372 747.201 512.199C747.177 512.025 747.117 511.859 747.024 511.71C746.931 511.561 746.808 511.434 746.663 511.336C746.517 511.239 746.353 511.173 746.18 511.143C746.007 511.114 745.83 511.121 745.661 511.165L673.131 521.534C672.807 521.555 672.504 521.704 672.29 521.948C672.075 522.192 671.967 522.511 671.988 522.836C672.009 523.16 672.157 523.462 672.401 523.677C672.645 523.891 672.965 524 673.289 523.979H673.466ZM652.786 570.249C653.043 570.047 653.21 569.751 653.251 569.426C653.292 569.101 653.202 568.773 653.003 568.514L613.692 518.006C613.491 517.744 613.194 517.573 612.866 517.531C612.539 517.488 612.209 517.578 611.947 517.779C611.686 517.98 611.515 518.277 611.472 518.604C611.43 518.932 611.519 519.262 611.72 519.524L651.11 570.111C651.224 570.258 651.371 570.378 651.538 570.46C651.706 570.542 651.89 570.584 652.076 570.584C652.37 570.569 652.65 570.451 652.865 570.249H652.786ZM714.216 556.587C714.227 556.261 714.109 555.943 713.887 555.704C713.666 555.464 713.359 555.321 713.033 555.305L658.996 552.565C658.692 552.586 658.407 552.718 658.194 552.935C657.981 553.153 657.855 553.441 657.84 553.745C657.826 554.049 657.923 554.347 658.115 554.584C658.306 554.821 658.577 554.98 658.878 555.029L713.013 557.77C713.34 557.78 713.657 557.662 713.897 557.441C714.137 557.22 714.28 556.913 714.295 556.587H714.216ZM688.725 596.686C688.744 596.524 688.731 596.36 688.685 596.203C688.64 596.046 688.563 595.9 688.46 595.773C688.357 595.646 688.23 595.541 688.086 595.464C687.942 595.388 687.784 595.341 687.621 595.326L646.221 591.245C646.06 591.229 645.898 591.244 645.743 591.291C645.589 591.338 645.445 591.415 645.32 591.517C645.196 591.62 645.093 591.746 645.017 591.889C644.942 592.032 644.895 592.188 644.88 592.349C644.853 592.672 644.953 592.994 645.159 593.244C645.365 593.495 645.662 593.655 645.984 593.689L687.385 597.79H687.503C687.821 597.812 688.135 597.709 688.378 597.503C688.621 597.296 688.774 597.003 688.804 596.686H688.725ZM636.778 618.057C637.051 617.876 637.242 617.594 637.309 617.272C637.375 616.951 637.312 616.616 637.132 616.341L616.669 585.409C616.481 585.143 616.198 584.959 615.879 584.897C615.559 584.834 615.228 584.898 614.954 585.074C614.68 585.255 614.489 585.537 614.422 585.859C614.356 586.18 614.419 586.515 614.599 586.789L635.062 617.721C635.179 617.891 635.336 618.029 635.517 618.125C635.699 618.221 635.902 618.272 636.107 618.273C636.374 618.288 636.638 618.212 636.856 618.057H636.778ZM683.737 628.407C683.733 628.082 683.603 627.772 683.375 627.541C683.148 627.309 682.84 627.175 682.515 627.165L633.84 626.711C633.516 626.711 633.205 626.84 632.976 627.069C632.747 627.299 632.618 627.609 632.618 627.934C632.612 628.096 632.64 628.259 632.7 628.411C632.759 628.562 632.848 628.701 632.963 628.817C633.077 628.933 633.214 629.025 633.364 629.086C633.515 629.148 633.677 629.178 633.84 629.176L682.515 629.629C682.682 629.637 682.848 629.611 683.004 629.554C683.16 629.496 683.303 629.408 683.425 629.294C683.546 629.18 683.643 629.042 683.711 628.89C683.778 628.738 683.814 628.573 683.816 628.407H683.737ZM618.423 701.193C618.522 700.976 626.822 678.107 651.78 672.646C652.102 672.575 652.382 672.38 652.559 672.103C652.737 671.825 652.797 671.489 652.727 671.167C652.647 670.852 652.449 670.58 652.173 670.407C651.898 670.235 651.566 670.175 651.248 670.241C624.929 675.997 616.196 700.148 616.097 700.384C615.996 700.696 616.019 701.034 616.162 701.328C616.306 701.623 616.558 701.85 616.866 701.961H617.26C617.522 701.984 617.785 701.921 618.009 701.783C618.232 701.644 618.406 701.437 618.502 701.193H618.423ZM623.963 719.271C624.289 719.246 624.592 719.093 624.806 718.845C625.02 718.598 625.128 718.276 625.107 717.95C622.011 671.463 639.991 595.326 668.833 532.831C687.266 492.889 759.52 414.386 760.289 413.598C760.521 413.365 760.652 413.049 760.652 412.72C760.652 412.391 760.521 412.076 760.289 411.843C760.175 411.729 760.04 411.638 759.891 411.576C759.742 411.514 759.583 411.482 759.421 411.482C759.26 411.482 759.1 411.514 758.952 411.576C758.803 411.638 758.668 411.729 758.554 411.843C757.825 412.632 685.275 491.43 666.684 531.727C637.31 595.74 619.567 670.497 622.721 718.108C622.746 718.422 622.887 718.715 623.117 718.93C623.346 719.145 623.648 719.267 623.963 719.271ZM682.929 507.241C683.255 507.221 683.56 507.073 683.778 506.83C683.996 506.586 684.109 506.267 684.092 505.94L679.381 426.195C679.373 426.033 679.333 425.874 679.263 425.727C679.194 425.58 679.095 425.449 678.974 425.34C678.853 425.232 678.712 425.149 678.558 425.096C678.404 425.043 678.242 425.021 678.079 425.032C677.753 425.052 677.449 425.2 677.231 425.444C677.013 425.687 676.9 426.007 676.916 426.333L681.707 506.039C681.722 506.353 681.858 506.649 682.085 506.865C682.313 507.082 682.615 507.202 682.929 507.202V507.241ZM668.222 533.442C668.518 533.308 668.749 533.064 668.867 532.762C668.985 532.46 668.98 532.124 668.853 531.825L638.552 463.278C638.421 462.98 638.177 462.746 637.874 462.628C637.571 462.51 637.233 462.517 636.935 462.647C636.637 462.778 636.403 463.022 636.285 463.325C636.167 463.628 636.174 463.966 636.304 464.264L666.586 532.811C666.681 533.031 666.838 533.219 667.037 533.352C667.236 533.485 667.47 533.557 667.71 533.56C667.914 533.571 668.117 533.53 668.301 533.442H668.222ZM673.466 523.979L745.996 513.609C746.171 513.606 746.343 513.565 746.502 513.49C746.66 513.415 746.801 513.307 746.914 513.174C747.028 513.041 747.113 512.885 747.162 512.717C747.211 512.549 747.224 512.372 747.201 512.199C747.177 512.025 747.117 511.859 747.024 511.71C746.931 511.561 746.808 511.434 746.663 511.336C746.517 511.239 746.353 511.173 746.18 511.143C746.007 511.114 745.83 511.121 745.661 511.165L673.131 521.534C672.807 521.555 672.504 521.704 672.29 521.948C672.075 522.192 671.967 522.511 671.988 522.836C672.009 523.16 672.157 523.462 672.401 523.677C672.645 523.891 672.965 524 673.289 523.979H673.466ZM652.786 570.249C653.043 570.047 653.21 569.751 653.251 569.426C653.292 569.101 653.202 568.773 653.003 568.514L613.692 518.006C613.592 517.876 613.468 517.768 613.326 517.686C613.185 517.605 613.029 517.552 612.866 517.531C612.704 517.51 612.54 517.521 612.382 517.563C612.224 517.606 612.077 517.679 611.947 517.779C611.818 517.879 611.709 518.003 611.628 518.144C611.546 518.286 611.493 518.442 611.472 518.604C611.451 518.766 611.463 518.931 611.505 519.089C611.548 519.246 611.621 519.394 611.72 519.524L651.11 570.111C651.224 570.258 651.371 570.378 651.538 570.46C651.706 570.542 651.89 570.584 652.076 570.584C652.37 570.569 652.65 570.451 652.865 570.249H652.786ZM714.216 556.587C714.227 556.261 714.109 555.943 713.887 555.704C713.666 555.464 713.359 555.321 713.033 555.305L658.996 552.565C658.692 552.586 658.407 552.718 658.194 552.935C657.981 553.153 657.855 553.441 657.84 553.745C657.826 554.049 657.923 554.347 658.115 554.584C658.306 554.821 658.577 554.98 658.878 555.029L713.013 557.77C713.34 557.78 713.657 557.662 713.897 557.441C714.137 557.22 714.28 556.913 714.295 556.587H714.216ZM688.725 596.686C688.744 596.524 688.731 596.36 688.685 596.203C688.64 596.046 688.563 595.9 688.46 595.773C688.357 595.646 688.23 595.541 688.086 595.464C687.942 595.388 687.784 595.341 687.621 595.326L646.221 591.245C646.06 591.229 645.898 591.244 645.743 591.291C645.589 591.338 645.445 591.415 645.32 591.517C645.196 591.62 645.093 591.746 645.017 591.889C644.942 592.032 644.895 592.188 644.88 592.349C644.853 592.672 644.953 592.994 645.159 593.244C645.365 593.495 645.662 593.655 645.984 593.689L687.385 597.79H687.503C687.821 597.812 688.135 597.709 688.378 597.503C688.621 597.296 688.774 597.003 688.804 596.686H688.725ZM636.778 618.057C637.051 617.876 637.242 617.594 637.309 617.272C637.375 616.951 637.312 616.616 637.132 616.341L616.669 585.409C616.481 585.143 616.198 584.959 615.879 584.897C615.559 584.834 615.228 584.898 614.954 585.074C614.68 585.255 614.489 585.537 614.422 585.859C614.356 586.18 614.419 586.515 614.599 586.789L635.062 617.721C635.179 617.891 635.336 618.029 635.517 618.125C635.699 618.221 635.902 618.272 636.107 618.273C636.374 618.288 636.638 618.212 636.856 618.057H636.778ZM683.737 628.407C683.733 628.082 683.603 627.772 683.375 627.541C683.148 627.309 682.84 627.175 682.515 627.165L633.84 626.711C633.516 626.711 633.205 626.84 632.976 627.069C632.747 627.299 632.618 627.609 632.618 627.934C632.612 628.096 632.64 628.259 632.7 628.411C632.759 628.562 632.848 628.701 632.963 628.817C633.077 628.933 633.214 629.025 633.364 629.086C633.515 629.148 633.677 629.178 633.84 629.176L682.515 629.629C682.682 629.637 682.848 629.611 683.004 629.554C683.16 629.496 683.303 629.408 683.425 629.294C683.546 629.18 683.643 629.042 683.711 628.89C683.778 628.738 683.814 628.573 683.816 628.407H683.737ZM618.423 701.193C618.522 700.976 626.822 678.107 651.78 672.646C652.102 672.575 652.382 672.38 652.559 672.103C652.737 671.825 652.797 671.489 652.727 671.167C652.647 670.852 652.449 670.58 652.173 670.407C651.898 670.235 651.566 670.175 651.248 670.241C624.929 675.997 616.196 700.148 616.097 700.384C615.996 700.696 616.019 701.034 616.162 701.328C616.306 701.623 616.558 701.85 616.866 701.961H617.26C617.522 701.984 617.785 701.921 618.009 701.783C618.232 701.644 618.406 701.437 618.502 701.193H618.423Z" fill="#FF9B21"/>
<path opacity="0.2" d="M682.949 506.019L678.158 426.314L682.949 506.019ZM667.788 532.318L637.507 463.771L667.788 532.318ZM745.937 512.387L673.368 522.796L745.937 512.387ZM652.096 569.263L612.805 518.853L652.096 569.263ZM658.996 553.807L713.132 556.528L658.996 553.807ZM646.181 592.467L687.582 596.568L646.181 592.467ZM636.186 617.031L615.624 586.099L636.186 617.031ZM633.82 627.953L682.495 628.407L633.82 627.953ZM623.963 719.271C624.289 719.246 624.592 719.093 624.806 718.845C625.02 718.598 625.128 718.276 625.107 717.95C622.011 671.463 639.991 595.326 668.833 532.831C687.266 492.889 759.52 414.386 760.289 413.598C760.521 413.365 760.652 413.049 760.652 412.72C760.652 412.391 760.521 412.076 760.289 411.843C760.175 411.729 760.04 411.638 759.891 411.576C759.742 411.514 759.583 411.482 759.421 411.482C759.26 411.482 759.1 411.514 758.952 411.576C758.803 411.638 758.668 411.729 758.554 411.843C757.825 412.632 685.275 491.43 666.684 531.727C637.31 595.74 619.567 670.497 622.721 718.108C622.746 718.422 622.887 718.715 623.117 718.93C623.346 719.145 623.648 719.267 623.963 719.271ZM682.929 507.241C683.255 507.221 683.56 507.073 683.778 506.83C683.996 506.586 684.109 506.267 684.092 505.94L679.381 426.195C679.373 426.033 679.333 425.874 679.263 425.727C679.194 425.58 679.095 425.449 678.974 425.34C678.853 425.232 678.712 425.149 678.558 425.096C678.404 425.043 678.242 425.021 678.079 425.032C677.753 425.052 677.449 425.2 677.231 425.444C677.013 425.687 676.9 426.007 676.916 426.333L681.707 506.039C681.722 506.353 681.858 506.649 682.085 506.865C682.313 507.082 682.615 507.202 682.929 507.202V507.241ZM668.222 533.442C668.518 533.308 668.749 533.064 668.867 532.762C668.985 532.46 668.98 532.124 668.853 531.825L638.552 463.278C638.421 462.98 638.177 462.746 637.874 462.628C637.571 462.51 637.233 462.517 636.935 462.647C636.637 462.778 636.403 463.022 636.285 463.325C636.167 463.628 636.174 463.966 636.304 464.264L666.586 532.811C666.681 533.031 666.838 533.219 667.037 533.352C667.236 533.485 667.47 533.557 667.71 533.56C667.914 533.571 668.117 533.53 668.301 533.442H668.222ZM673.466 523.979L745.996 513.609C746.171 513.606 746.343 513.565 746.502 513.49C746.66 513.415 746.801 513.307 746.914 513.174C747.028 513.041 747.113 512.885 747.162 512.717C747.211 512.549 747.224 512.372 747.201 512.199C747.177 512.025 747.117 511.859 747.024 511.71C746.931 511.561 746.808 511.434 746.663 511.336C746.517 511.239 746.353 511.173 746.18 511.143C746.007 511.114 745.83 511.121 745.661 511.165L673.131 521.534C672.807 521.555 672.504 521.704 672.29 521.948C672.075 522.192 671.967 522.511 671.988 522.836C672.009 523.16 672.157 523.462 672.401 523.677C672.645 523.891 672.965 524 673.289 523.979H673.466ZM652.786 570.249C653.043 570.047 653.21 569.751 653.251 569.426C653.292 569.101 653.202 568.773 653.003 568.514L613.692 518.006C613.491 517.744 613.194 517.573 612.866 517.531C612.539 517.488 612.209 517.578 611.947 517.779C611.686 517.98 611.515 518.277 611.472 518.604C611.43 518.932 611.519 519.262 611.72 519.524L651.11 570.111C651.224 570.258 651.371 570.378 651.538 570.46C651.706 570.542 651.89 570.584 652.076 570.584C652.37 570.569 652.65 570.451 652.865 570.249H652.786ZM714.216 556.587C714.227 556.261 714.109 555.943 713.887 555.704C713.666 555.464 713.359 555.321 713.033 555.305L658.996 552.565C658.692 552.586 658.407 552.718 658.194 552.935C657.981 553.153 657.855 553.441 657.84 553.745C657.826 554.049 657.923 554.347 658.115 554.584C658.306 554.821 658.577 554.98 658.878 555.029L713.013 557.77C713.34 557.78 713.657 557.662 713.897 557.441C714.137 557.22 714.28 556.913 714.295 556.587H714.216ZM688.725 596.686C688.744 596.524 688.731 596.36 688.685 596.203C688.64 596.046 688.563 595.9 688.46 595.773C688.357 595.646 688.23 595.541 688.086 595.464C687.942 595.388 687.784 595.341 687.621 595.326L646.221 591.245C646.06 591.229 645.898 591.244 645.743 591.291C645.589 591.338 645.445 591.415 645.32 591.517C645.196 591.62 645.093 591.746 645.017 591.889C644.942 592.032 644.895 592.188 644.88 592.349C644.853 592.672 644.953 592.994 645.159 593.244C645.365 593.495 645.662 593.655 645.984 593.689L687.385 597.79H687.503C687.821 597.812 688.135 597.709 688.378 597.503C688.621 597.296 688.774 597.003 688.804 596.686H688.725ZM636.778 618.057C637.051 617.876 637.242 617.594 637.309 617.272C637.375 616.951 637.312 616.616 637.132 616.341L616.669 585.409C616.481 585.143 616.198 584.959 615.879 584.897C615.559 584.834 615.228 584.898 614.954 585.074C614.68 585.255 614.489 585.537 614.422 585.859C614.356 586.18 614.419 586.515 614.599 586.789L635.062 617.721C635.179 617.891 635.336 618.029 635.517 618.125C635.699 618.221 635.902 618.272 636.107 618.273C636.374 618.288 636.638 618.212 636.856 618.057H636.778ZM683.737 628.407C683.733 628.082 683.603 627.772 683.375 627.541C683.148 627.309 682.84 627.175 682.515 627.165L633.84 626.711C633.516 626.711 633.205 626.84 632.976 627.069C632.747 627.299 632.618 627.609 632.618 627.934C632.612 628.096 632.64 628.259 632.7 628.411C632.759 628.562 632.848 628.701 632.963 628.817C633.077 628.933 633.214 629.025 633.364 629.086C633.515 629.148 633.677 629.178 633.84 629.176L682.515 629.629C682.682 629.637 682.848 629.611 683.004 629.554C683.16 629.496 683.303 629.408 683.425 629.294C683.546 629.18 683.643 629.042 683.711 628.89C683.778 628.738 683.814 628.573 683.816 628.407H683.737ZM618.423 701.193C618.522 700.976 626.822 678.107 651.78 672.646C652.102 672.575 652.382 672.38 652.559 672.103C652.737 671.825 652.797 671.489 652.727 671.167C652.647 670.852 652.449 670.58 652.173 670.407C651.898 670.235 651.566 670.175 651.248 670.241C624.929 675.997 616.196 700.148 616.097 700.384C615.996 700.696 616.019 701.034 616.162 701.328C616.306 701.623 616.558 701.85 616.866 701.961H617.26C617.522 701.984 617.785 701.921 618.009 701.783C618.232 701.644 618.406 701.437 618.502 701.193H618.423ZM623.963 719.271C624.289 719.246 624.592 719.093 624.806 718.845C625.02 718.598 625.128 718.276 625.107 717.95C622.011 671.463 639.991 595.326 668.833 532.831C687.266 492.889 759.52 414.386 760.289 413.598C760.521 413.365 760.652 413.049 760.652 412.72C760.652 412.391 760.521 412.076 760.289 411.843C760.175 411.729 760.04 411.638 759.891 411.576C759.742 411.514 759.583 411.482 759.421 411.482C759.26 411.482 759.1 411.514 758.952 411.576C758.803 411.638 758.668 411.729 758.554 411.843C757.825 412.632 685.275 491.43 666.684 531.727C637.31 595.74 619.567 670.497 622.721 718.108C622.746 718.422 622.887 718.715 623.117 718.93C623.346 719.145 623.648 719.267 623.963 719.271ZM682.929 507.241C683.255 507.221 683.56 507.073 683.778 506.83C683.996 506.586 684.109 506.267 684.092 505.94L679.381 426.195C679.373 426.033 679.333 425.874 679.263 425.727C679.194 425.58 679.095 425.449 678.974 425.34C678.853 425.232 678.712 425.149 678.558 425.096C678.404 425.043 678.242 425.021 678.079 425.032C677.753 425.052 677.449 425.2 677.231 425.444C677.013 425.687 676.9 426.007 676.916 426.333L681.707 506.039C681.722 506.353 681.858 506.649 682.085 506.865C682.313 507.082 682.615 507.202 682.929 507.202V507.241ZM668.222 533.442C668.518 533.308 668.749 533.064 668.867 532.762C668.985 532.46 668.98 532.124 668.853 531.825L638.552 463.278C638.421 462.98 638.177 462.746 637.874 462.628C637.571 462.51 637.233 462.517 636.935 462.647C636.637 462.778 636.403 463.022 636.285 463.325C636.167 463.628 636.174 463.966 636.304 464.264L666.586 532.811C666.681 533.031 666.838 533.219 667.037 533.352C667.236 533.485 667.47 533.557 667.71 533.56C667.914 533.571 668.117 533.53 668.301 533.442H668.222ZM673.466 523.979L745.996 513.609C746.171 513.606 746.343 513.565 746.502 513.49C746.66 513.415 746.801 513.307 746.914 513.174C747.028 513.041 747.113 512.885 747.162 512.717C747.211 512.549 747.224 512.372 747.201 512.199C747.177 512.025 747.117 511.859 747.024 511.71C746.931 511.561 746.808 511.434 746.663 511.336C746.517 511.239 746.353 511.173 746.18 511.143C746.007 511.114 745.83 511.121 745.661 511.165L673.131 521.534C672.807 521.555 672.504 521.704 672.29 521.948C672.075 522.192 671.967 522.511 671.988 522.836C672.009 523.16 672.157 523.462 672.401 523.677C672.645 523.891 672.965 524 673.289 523.979H673.466ZM652.786 570.249C653.043 570.047 653.21 569.751 653.251 569.426C653.292 569.101 653.202 568.773 653.003 568.514L613.692 518.006C613.592 517.876 613.468 517.768 613.326 517.686C613.185 517.605 613.029 517.552 612.866 517.531C612.704 517.51 612.54 517.521 612.382 517.563C612.224 517.606 612.077 517.679 611.947 517.779C611.818 517.879 611.709 518.003 611.628 518.144C611.546 518.286 611.493 518.442 611.472 518.604C611.451 518.766 611.463 518.931 611.505 519.089C611.548 519.246 611.621 519.394 611.72 519.524L651.11 570.111C651.224 570.258 651.371 570.378 651.538 570.46C651.706 570.542 651.89 570.584 652.076 570.584C652.37 570.569 652.65 570.451 652.865 570.249H652.786ZM714.216 556.587C714.227 556.261 714.109 555.943 713.887 555.704C713.666 555.464 713.359 555.321 713.033 555.305L658.996 552.565C658.692 552.586 658.407 552.718 658.194 552.935C657.981 553.153 657.855 553.441 657.84 553.745C657.826 554.049 657.923 554.347 658.115 554.584C658.306 554.821 658.577 554.98 658.878 555.029L713.013 557.77C713.34 557.78 713.657 557.662 713.897 557.441C714.137 557.22 714.28 556.913 714.295 556.587H714.216ZM688.725 596.686C688.744 596.524 688.731 596.36 688.685 596.203C688.64 596.046 688.563 595.9 688.46 595.773C688.357 595.646 688.23 595.541 688.086 595.464C687.942 595.388 687.784 595.341 687.621 595.326L646.221 591.245C646.06 591.229 645.898 591.244 645.743 591.291C645.589 591.338 645.445 591.415 645.32 591.517C645.196 591.62 645.093 591.746 645.017 591.889C644.942 592.032 644.895 592.188 644.88 592.349C644.853 592.672 644.953 592.994 645.159 593.244C645.365 593.495 645.662 593.655 645.984 593.689L687.385 597.79H687.503C687.821 597.812 688.135 597.709 688.378 597.503C688.621 597.296 688.774 597.003 688.804 596.686H688.725ZM636.778 618.057C637.051 617.876 637.242 617.594 637.309 617.272C637.375 616.951 637.312 616.616 637.132 616.341L616.669 585.409C616.481 585.143 616.198 584.959 615.879 584.897C615.559 584.834 615.228 584.898 614.954 585.074C614.68 585.255 614.489 585.537 614.422 585.859C614.356 586.18 614.419 586.515 614.599 586.789L635.062 617.721C635.179 617.891 635.336 618.029 635.517 618.125C635.699 618.221 635.902 618.272 636.107 618.273C636.374 618.288 636.638 618.212 636.856 618.057H636.778ZM683.737 628.407C683.733 628.082 683.603 627.772 683.375 627.541C683.148 627.309 682.84 627.175 682.515 627.165L633.84 626.711C633.516 626.711 633.205 626.84 632.976 627.069C632.747 627.299 632.618 627.609 632.618 627.934C632.612 628.096 632.64 628.259 632.7 628.411C632.759 628.562 632.848 628.701 632.963 628.817C633.077 628.933 633.214 629.025 633.364 629.086C633.515 629.148 633.677 629.178 633.84 629.176L682.515 629.629C682.682 629.637 682.848 629.611 683.004 629.554C683.16 629.496 683.303 629.408 683.425 629.294C683.546 629.18 683.643 629.042 683.711 628.89C683.778 628.738 683.814 628.573 683.816 628.407H683.737ZM618.423 701.193C618.522 700.976 626.822 678.107 651.78 672.646C652.102 672.575 652.382 672.38 652.559 672.103C652.737 671.825 652.797 671.489 652.727 671.167C652.647 670.852 652.449 670.58 652.173 670.407C651.898 670.235 651.566 670.175 651.248 670.241C624.929 675.997 616.196 700.148 616.097 700.384C615.996 700.696 616.019 701.034 616.162 701.328C616.306 701.623 616.558 701.85 616.866 701.961H617.26C617.522 701.984 617.785 701.921 618.009 701.783C618.232 701.644 618.406 701.437 618.502 701.193H618.423Z" fill="black"/>
<path d="M656.157 684.514H600.345V696.067H605.215L615.289 759.094H641.213L651.287 696.067H656.157V684.514Z" fill="#FF9B21"/>
<path opacity="0.3" d="M656.157 684.514H600.345V696.067H605.215L615.289 759.094H641.213L651.287 696.067H656.157V684.514Z" fill="white"/>
<path d="M153.674 335.174L88.7543 313.981L82.9779 298.722L69.7889 298.308L45.8556 293.773L48.7339 298.722L78.8576 320.585L86.29 324.291L154.187 359.758L153.674 335.174Z" fill="white" stroke="#263238" stroke-width="1.00396" stroke-miterlimit="10"/>
<path d="M82.9779 298.721L76.7876 295.015L64.4266 299.549L66.4769 302.014L82.9779 298.721Z" fill="white" stroke="#263238" stroke-width="1.00396" stroke-linejoin="round"/>
<path d="M153.674 335.174L88.7543 313.981L82.9779 298.722L69.7889 298.308L45.8556 293.773L48.7339 298.722L78.8576 320.585L86.29 324.291L154.187 359.758L153.674 335.174Z" fill="white"/>
<path opacity="0.5" d="M153.674 335.174L88.7543 313.981L82.9779 298.722L69.7889 298.308L45.8556 293.773L48.7339 298.722L78.8576 320.585L86.29 324.291L154.187 359.758L153.674 335.174Z" fill="#FF9B21" stroke="#263238" stroke-width="1.00396" stroke-miterlimit="10"/>
<path d="M153.674 335.174L88.7543 313.981L82.9779 298.722L69.7889 298.308L45.8556 293.773L48.7339 298.722L78.8576 320.585L86.29 324.291L154.187 359.758L153.674 335.174Z" stroke="#263238" stroke-width="1.00396" stroke-miterlimit="10"/>
<path d="M82.9779 298.721L76.7876 295.015L64.4266 299.549L66.4769 302.014L82.9779 298.721Z" fill="white"/>
<path opacity="0.5" d="M82.9779 298.721L76.7876 295.015L64.4266 299.549L66.4769 302.014L82.9779 298.721Z" fill="#FF9B21" stroke="#263238" stroke-width="1.00396" stroke-linejoin="round"/>
<path d="M82.9779 298.721L76.7876 295.015L64.4266 299.549L66.4769 302.014L82.9779 298.721Z" stroke="#263238" stroke-width="1.00396" stroke-linejoin="round"/>
<path d="M167.455 197.626C167.455 197.626 166.449 206.497 168.953 212.195C171.457 217.892 185.355 237.193 185.355 237.193L159.411 257.991C159.411 257.991 148.647 236.306 146.597 232.796C144.546 229.287 142.082 214.186 148.765 203.363C155.448 192.539 165.069 189.622 167.455 197.626Z" fill="white"/>
<g style="mix-blend-mode:multiply" opacity="0.5">
<g style="mix-blend-mode:multiply" opacity="0.5">
<path d="M154.128 226.133L165.384 249.475L159.391 258.011L148.075 237.804L154.128 226.133Z" fill="#FF9B21"/>
</g>
</g>
<path d="M167.455 197.626C167.455 197.626 166.449 206.497 168.953 212.195C171.457 217.892 185.355 237.193 185.355 237.193L159.411 257.991C159.411 257.991 148.647 236.306 146.597 232.796C144.546 229.287 142.082 214.186 148.765 203.363C155.448 192.539 165.069 189.622 167.455 197.626Z" stroke="#263238" stroke-width="1.00396" stroke-miterlimit="10"/>
<path d="M175.498 181.381C173.901 171.524 162.605 151.474 144.684 152.243C133.053 152.756 127.612 155.102 122.565 157.96C118.451 160.384 114.616 163.253 111.13 166.516C102.377 177.024 99.3015 179.902 100.997 187.946C100.858 191.154 101.361 194.358 102.476 197.369C105.157 204.526 106.99 209.198 109.316 212.609C108.607 215.94 106.754 224.733 106.655 226.744C106.556 228.755 112.569 227.355 115.605 226.586C121.244 239.204 131.574 247.957 134.788 248.962C140.387 250.717 149.238 241.51 153.93 234.373C158.622 227.237 155.074 219.213 155.094 216.019C155.113 212.826 165.641 205.807 169.544 203.579C173.448 201.352 177.075 191.218 175.498 181.381Z" fill="white"/>
<g style="mix-blend-mode:multiply" opacity="0.5">
<g style="mix-blend-mode:multiply" opacity="0.5">
<path d="M101.076 187.946C100.937 191.154 101.439 194.358 102.554 197.369C105.236 204.526 107.069 209.198 109.395 212.609C108.686 215.94 106.832 224.733 106.734 226.744C106.635 228.755 112.648 227.355 115.684 226.586C121.323 239.204 131.653 247.957 134.866 248.962C140.465 250.717 149.317 241.51 154.009 234.374C155.181 232.592 155.942 230.572 156.237 228.459C155.981 227.533 155.803 226.961 155.803 226.961C155.803 226.961 153.162 237.114 147.917 235.793C142.673 234.472 134.65 223.964 130.174 220.337C125.699 216.709 127.533 211.938 126.646 206.537C125.758 201.135 112.51 196.384 111.623 193.289C110.736 190.193 113.831 177.379 113.831 177.379C113.831 177.379 118.858 170.676 117.774 173.436C117.008 175.829 116.73 178.352 116.957 180.855C117.183 183.357 117.911 185.789 119.095 188.005C119.926 189.754 121.244 191.226 122.891 192.243C124.539 193.261 126.445 193.781 128.38 193.742L133.191 169.907L123.038 161.509L111.209 166.437C102.377 177.024 99.3607 179.902 101.076 187.946Z" fill="#FF9B21"/>
</g>
</g>
<path d="M175.498 181.381C173.901 171.524 162.605 151.474 144.684 152.243C133.053 152.756 127.612 155.102 122.565 157.96C118.451 160.384 114.616 163.253 111.13 166.516C102.377 177.024 99.3015 179.902 100.997 187.946C100.858 191.154 101.361 194.358 102.476 197.369C105.157 204.526 106.99 209.198 109.316 212.609C108.607 215.94 106.754 224.733 106.655 226.744C106.556 228.755 112.569 227.355 115.605 226.586C121.244 239.204 131.574 247.957 134.788 248.962C140.387 250.717 149.238 241.51 153.93 234.373C158.622 227.237 155.074 219.213 155.094 216.019C155.113 212.826 165.641 205.807 169.544 203.579C173.448 201.352 177.075 191.218 175.498 181.381Z" stroke="#263238" stroke-miterlimit="10"/>
<path d="M111.761 206.655L113.733 212.293C113.733 212.293 117.971 213.693 123.136 208.055" stroke="#263238" stroke-miterlimit="10" stroke-linecap="round"/>
<path d="M126.33 232.993C126.33 232.993 131.022 232.52 132.915 225.936" stroke="#263238" stroke-miterlimit="10" stroke-linecap="round"/>
<path d="M108.469 201.943C108.469 201.943 109.868 197.705 118.326 197.705" stroke="#263238" stroke-miterlimit="10" stroke-linecap="round"/>
<path d="M151.821 144.397C145.675 143.513 139.478 143.039 133.27 142.977C133.27 142.977 114.699 132.272 96.8569 143.687C79.0153 155.102 87.5911 175.092 87.5911 180.08C87.5911 185.068 81.8739 185.087 85.4422 191.514C89.0106 197.941 101.076 194.392 101.076 194.392C101.203 191.968 101.844 189.599 102.955 187.441C104.067 185.283 105.623 183.385 107.522 181.874C113.949 176.886 119.075 175.802 121.204 177.241C121.204 177.241 119.785 187.946 121.914 192.224C121.914 192.224 129.051 195.792 131.2 195.792C133.348 195.792 129.8 198.809 136.917 201.49C138.213 201.955 139.6 202.114 140.969 201.953C142.337 201.792 143.649 201.317 144.803 200.563C145.847 196.226 148.134 189.7 152.393 191.218C158.642 193.446 164.34 208.823 155.882 214.068C166.055 215.921 178.376 197.921 179.106 181.519C179.835 165.116 162.388 146.25 151.821 144.397Z" fill="#263238"/>
<path d="M121.52 170.203C121.52 170.203 126.764 167.384 133.191 173.416C139.618 179.449 152.117 187.512 168.677 183.076" stroke="white" stroke-width="0.5" stroke-linecap="round" stroke-linejoin="round"/>
<path d="M120.79 165.373C120.79 165.373 124.398 159.734 130.431 159.734C136.463 159.734 150.559 168.192 161.816 168.192" stroke="white" stroke-width="0.5" stroke-linecap="round" stroke-linejoin="round"/>
<path d="M116.69 176.236C116.69 176.236 109.849 167.798 103.422 174.639C96.9949 181.48 101.076 187.946 101.076 187.946" stroke="white" stroke-width="0.5" stroke-linecap="round" stroke-linejoin="round"/>
<path d="M89.3457 181.874C93.2659 178.338 95.7029 173.45 96.1669 168.192C96.9752 159.34 109.06 151.691 116.69 158.946" stroke="white" stroke-width="0.5" stroke-linecap="round" stroke-linejoin="round"/>
<path d="M101.805 149.68C101.805 149.68 113.89 138.009 123.945 152.893" stroke="white" stroke-width="0.5" stroke-linecap="round" stroke-linejoin="round"/>
<path d="M200.161 723.51C200.161 723.51 207.593 735.062 206.765 742.495L205.957 749.927C205.957 749.927 178.692 757.399 172.915 757.399C167.139 757.399 136.562 754.501 136.562 754.501L135.241 749.257C135.149 748.869 135.192 748.462 135.364 748.103C135.537 747.744 135.827 747.455 136.187 747.285L163.452 734.569L172.048 725.166L200.161 723.51Z" fill="white" stroke="#263238" stroke-width="1.00396" stroke-miterlimit="10"/>
<path d="M177.055 751.583C184.448 752.155 198.485 747.64 206.627 744.762L206.055 749.927C206.055 749.927 178.692 757.399 172.915 757.399C167.139 757.399 136.562 754.501 136.562 754.501L135.616 750.755C140.505 750.775 167.277 750.834 177.055 751.583Z" fill="#FF9B21" stroke="#263238" stroke-width="1.00396" stroke-miterlimit="10"/>
<path d="M163.492 734.569L123.807 751.839C123.807 751.839 120.416 760.336 123.807 762.032C127.198 763.727 201.127 762.032 201.127 762.032C201.127 762.032 206.233 748.606 198.17 739.597C190.106 730.587 163.492 734.569 163.492 734.569Z" fill="white" stroke="#263238" stroke-width="1.00396" stroke-miterlimit="10"/>
<path d="M201.127 762.031C201.127 762.031 127.198 763.727 123.807 762.031C122.17 761.203 122.111 758.818 122.486 756.551H202.428C202.167 758.414 201.731 760.249 201.127 762.031Z" fill="#FF9B21" stroke="#263238" stroke-width="1.00396" stroke-miterlimit="10"/>
<path d="M144.724 434.495C144.724 434.495 134.354 480.45 130.431 509.193C126.508 537.937 124.201 595.523 125.029 602.127C125.857 608.732 167.139 719.389 167.139 719.389L171.259 729.246L200.161 723.47C200.161 723.47 186.952 681.36 182.004 658.235C177.055 635.11 166.232 597.12 166.232 590.516C166.232 583.911 191.861 457.778 193.694 449.498C195.528 441.218 203.847 428.502 203.847 428.502L148.509 427.378L144.724 434.495Z" fill="#FF9B21" stroke="#263238" stroke-width="1.00396" stroke-miterlimit="10"/>
<path d="M144.724 434.495C144.724 434.495 138.652 476.467 141.155 505.645C143.659 534.822 149.041 596.942 149.041 606.189C149.041 615.435 163.965 670.655 164.813 688.004C166.134 713.061 164.28 725.461 164.28 725.461L163.393 734.55C163.393 734.55 180.801 737.034 184.606 738.118C189.001 739.25 193.536 739.741 198.071 739.577C198.071 739.577 204.399 711.72 204.399 687.984C204.399 664.248 199.136 615.395 196.514 595.602C193.892 575.809 202.152 499.454 206.844 485.201C211.536 470.947 221.788 440.764 214.888 425.348C207.987 409.931 144.724 434.495 144.724 434.495Z" fill="#FF9B21" stroke="#263238" stroke-width="1.00396" stroke-miterlimit="10"/>
<path d="M222.556 417.62L221.926 436.388C221.926 436.388 210.688 438.616 195.548 441.238C183.049 443.406 151.663 440.666 141.096 439.641C140.133 439.555 139.243 439.093 138.619 438.355C137.995 437.616 137.688 436.662 137.764 435.698L138.79 418.743L222.556 417.62Z" fill="#263238"/>
<path d="M178.633 230.529C178.633 230.529 160.89 249.711 154.206 261.639C147.523 273.566 144.881 291.841 142.378 306.233C139.874 320.624 146.656 354.415 144.743 369.93L138.691 418.803C138.691 418.803 137.39 422.115 141.747 425.742C146.104 429.37 167.376 430.69 186.597 431.656C193.616 432.011 214.572 427.497 218.002 427.28C222.142 427.024 222.281 421.76 222.458 417.62C223.286 398.162 226.795 346.293 229.102 323.7C233.853 277.627 207.849 233.151 178.633 230.529Z" fill="white" stroke="#263238" stroke-width="1.00396" stroke-miterlimit="10"/>
<g style="mix-blend-mode:multiply">
<g style="mix-blend-mode:multiply">
<path d="M226.933 349.9C227.722 339.669 228.51 330.383 229.2 323.7C229.397 321.728 229.516 319.757 229.614 317.785L182.477 325.671L141.983 311.871C141.988 320.25 142.462 328.622 143.403 336.948L183.128 348.067L226.933 349.9Z" fill="#FF9B21"/>
</g>
</g>
<g style="mix-blend-mode:multiply">
<g style="mix-blend-mode:multiply">
<path d="M176.878 232.461C174.197 235.438 168.874 241.49 163.807 247.917L193.734 278.337L203.591 274.394L176.878 232.461Z" fill="#FF9B21"/>
</g>
</g>
<path d="M178.633 230.529C178.633 230.529 160.89 249.711 154.206 261.639C152.225 265.264 150.619 269.082 149.416 273.034L185.099 231.811C182.991 231.172 180.825 230.743 178.633 230.529Z" fill="#263238"/>
<g style="mix-blend-mode:multiply">
<g style="mix-blend-mode:multiply">
<path d="M143.758 298.465L182.477 311.201L229.496 305.799C228.759 294.086 226.157 282.566 221.788 271.673L183.877 286.873L149.987 271.516C147.216 280.324 145.134 289.334 143.758 298.465Z" fill="#FF9B21"/>
</g>
</g>
<g style="mix-blend-mode:multiply">
<g style="mix-blend-mode:multiply">
<path d="M210.412 398.161C190.774 401.459 170.624 399.812 151.781 393.371L142.338 390.138L139.401 413.795L150.165 416.811C170.628 422.533 192.015 424.18 213.113 421.661L221.807 420.616C222.26 419.658 222.515 418.619 222.556 417.561C222.793 412.297 223.207 404.648 223.739 395.875L210.412 398.161Z" fill="#FF9B21"/>
</g>
</g>
<g style="mix-blend-mode:multiply">
<g style="mix-blend-mode:multiply">
<path d="M215.676 365.948C196.037 369.258 175.882 367.605 157.045 361.138L145.019 357.017C145.318 361.313 145.258 365.625 144.842 369.911L143.442 381.286L155.429 384.637C175.884 390.365 197.265 392.019 218.357 389.507L224.272 388.797C224.765 380.911 225.336 372.513 225.947 364.213L215.676 365.948Z" fill="#FF9B21"/>
</g>
</g>
<path d="M30.7173 282.579L68.836 313.228L70.479 311.184L32.3603 280.536L30.7173 282.579Z" fill="#263238"/>
<path d="M196.987 251.801C196.987 251.801 210.964 261.323 211.28 283.817C211.418 293.675 210.393 302.881 208.126 319.027C205.858 335.174 191.782 387.752 180.821 394.14C169.86 400.527 152.846 388.462 152.846 388.462L70.5578 333.833L50.6659 317.766L40.8087 299.155L43.9038 293.241L68.1724 311.851L55.1017 299.766L57.6645 296.513L62.396 299.806L76.1962 304.971L79.2125 324.685L83.4708 327.603L162.191 356.367C162.191 356.367 161.205 314 161.934 305.898C162.664 297.795 163.669 277.43 172.344 262.664" fill="white"/>
<g style="mix-blend-mode:multiply" opacity="0.5">
<g style="mix-blend-mode:multiply" opacity="0.5">
<path d="M161.639 324.35C161.639 338.979 162.132 356.367 162.132 356.367L83.4905 327.722L79.2322 324.804L76.2159 305.089L62.4157 299.924L57.704 296.573L55.1411 299.826L68.1723 311.851L43.9038 293.241L40.9664 299.057L50.8236 317.667L70.7155 333.833L75.723 337.165L184.448 372.197L161.639 324.35Z" fill="#FF9B21"/>
</g>
</g>
<path d="M196.987 251.801C196.987 251.801 210.964 261.323 211.28 283.817C211.418 293.675 210.393 302.881 208.125 319.027C205.858 335.174 191.782 387.752 180.821 394.14C169.86 400.527 152.846 388.462 152.846 388.462L70.5578 333.833L50.6659 317.766L40.8087 299.155L43.9038 293.241L68.1724 311.851L55.1017 299.766L57.6645 296.513L62.396 299.806L76.1962 304.971L79.2125 324.685L83.4708 327.603L162.191 356.367C162.191 356.367 161.205 314 161.934 305.898C162.664 297.795 163.669 277.43 172.344 262.664" stroke="#263238" stroke-width="1.00396" stroke-miterlimit="10"/>
<path d="M162.191 356.367L192.236 378.053L200.023 364.253C200.023 364.253 205.405 360.014 206.193 356.82C206.982 353.626 205.977 348.442 206.785 345.248C207.593 342.054 211.615 339.057 211.99 331.329C212.364 323.601 211.99 317.155 211.99 317.155C211.99 317.155 218.495 290.402 217.786 278.771C217.076 267.139 205.858 246.577 196.869 246.123C187.879 245.67 176.188 247.03 167.119 260.752C158.051 274.473 159.904 314.533 158.484 317.036C157.065 319.54 159.036 331.901 159.036 331.901C158.249 332.489 157.595 333.238 157.119 334.098C156.643 334.958 156.356 335.909 156.276 336.889C156.119 340.102 159.588 348.008 159.588 348.008L162.191 356.367Z" fill="white" stroke="#263238" stroke-width="1.00396" stroke-miterlimit="10"/>
<g style="mix-blend-mode:multiply">
<g style="mix-blend-mode:multiply">
<path d="M159.273 306.745C159.335 310.186 159.077 313.624 158.504 317.017C157.242 319.264 158.682 329.417 158.997 331.487C175.896 336.736 193.765 338.084 211.26 335.43C211.636 334.059 211.861 332.651 211.93 331.231C212.325 323.522 211.93 317.056 211.93 317.056C211.93 317.056 212.502 314.671 213.291 311.043C195.172 312.195 176.982 310.748 159.273 306.745Z" fill="#FF9B21"/>
</g>
</g>
<g style="mix-blend-mode:multiply">
<g style="mix-blend-mode:multiply">
<path d="M165.897 262.94C163.078 268.598 161.501 277.095 160.594 285.71C178.491 292.54 197.787 294.889 216.8 292.551C217.558 287.991 217.895 283.372 217.805 278.751C217.464 275.098 216.601 271.513 215.242 268.105C198.641 268.492 182.058 266.757 165.897 262.94Z" fill="#FF9B21"/>
</g>
</g>
<path d="M159.588 348.225L162.132 356.367L192.176 378.053L199.964 364.252C199.964 364.252 205.346 360.014 206.134 356.82C206.275 356.265 206.361 355.697 206.391 355.125C190.558 354.851 174.827 352.532 159.588 348.225Z" fill="#263238"/>
<path d="M181.334 737.862C181.334 737.862 182.004 720.789 185.276 695.83C188.549 670.872 180.683 635.425 179.362 629.511C178.041 623.597 180.032 610.467 178.712 605.853C177.391 601.24 171.003 581.565 174.769 558.736C178.534 535.907 181.59 475.56 181.59 475.56C181.59 475.56 172.107 467.852 169.327 457.817C166.548 447.783 168.677 444.628 168.677 444.628" stroke="#263238" stroke-width="1.00396" stroke-miterlimit="10"/>
<path d="M185.73 445.555L182.083 465.743" stroke="#263238" stroke-width="1.00396" stroke-miterlimit="10"/>
</svg>
