<svg width="768" height="834" viewBox="0 0 768 834" fill="none" xmlns="http://www.w3.org/2000/svg">
<path d="M767.745 561.151H473.216V372.53H767.745V561.151ZM475.013 559.162H765.947V374.518H475.013V559.162Z" fill="#E0E0E0"/>
<path d="M706.984 473.105H512.662V479.41H706.984V473.105Z" fill="#F0F0F0"/>
<path d="M720.373 496.613H512.662V503.495H720.373V496.613Z" fill="#F0F0F0"/>
<path d="M720.373 520.4H512.662V527.281H720.373V520.4Z" fill="#F0F0F0"/>
<path d="M580.575 438.957H512.662V455.325H580.575V438.957Z" fill="#F0F0F0"/>
<path d="M766.846 373.524H474.168V403.555H766.846V373.524Z" fill="#E0E0E0"/>
<path d="M744.328 399.061C743.951 398.663 747.725 393.631 752.739 387.824C757.752 382.016 762.155 377.621 762.515 377.999C762.874 378.377 759.118 383.428 754.104 389.256C749.09 395.083 744.687 399.458 744.328 399.061Z" fill="white"/>
<path d="M762.551 399.061C762.191 399.458 757.806 395.083 752.774 389.256C747.743 383.428 743.987 378.397 744.364 377.999C744.741 377.601 749.108 381.976 754.14 387.824C759.172 393.671 762.892 398.663 762.551 399.061Z" fill="white"/>
<path d="M405.321 0H112.643V186.653H405.321V0Z" fill="#E6E6E6"/>
<path d="M345.477 99.6011H151.155V105.906H345.477V99.6011Z" fill="#F0F0F0"/>
<path d="M358.865 123.109H151.155V129.991H358.865V123.109Z" fill="#F0F0F0"/>
<path d="M358.865 146.896H151.155V153.777H358.865V146.896Z" fill="#F0F0F0"/>
<path d="M219.068 65.4526H151.155V81.8208H219.068V65.4526Z" fill="#F0F0F0"/>
<path d="M405.321 0H112.643V30.0315H405.321V0Z" fill="#E0E0E0"/>
<path d="M381.814 25.3975C381.437 25.0196 385.211 19.968 390.225 14.1605C395.239 8.35313 399.642 3.9578 400.001 4.35557C400.361 4.75334 396.605 9.7851 391.591 15.5925C386.577 21.3999 382.174 25.7555 381.814 25.3975Z" fill="white"/>
<path d="M400.001 25.3974C399.642 25.7951 395.257 21.4197 390.225 15.5924C385.193 9.76507 381.437 4.7532 381.815 4.35543C382.192 3.95766 386.559 8.3331 391.591 14.1604C396.623 19.9877 400.379 25.0195 400.001 25.3974Z" fill="white"/>
<path d="M294.475 346.734H0V158.093H294.475V346.734ZM1.79711 344.745H292.678V160.082H1.79711V344.745Z" fill="#E0E0E0"/>
<path d="M233.732 258.688H39.4106V264.993H233.732V258.688Z" fill="#F0F0F0"/>
<path d="M247.121 282.196H39.4106V289.078H247.121V282.196Z" fill="#F0F0F0"/>
<path d="M247.121 305.983H39.4106V312.864H247.121V305.983Z" fill="#F0F0F0"/>
<path d="M107.324 224.54H39.4106V240.908H107.324V224.54Z" fill="#F0F0F0"/>
<path d="M293.576 159.087H0.89856V189.119H293.576V159.087Z" fill="#E0E0E0"/>
<path d="M634.327 389.952H288.742V732.35H634.327V389.952Z" fill="#E6E6E6"/>
<path d="M306.12 282.097H35.4031V593.37H306.12V282.097Z" fill="#F0F0F0"/>
<path d="M306.12 282.097H35.4031V316.007H306.12V282.097Z" fill="#E0E0E0"/>
<path d="M57.7592 298.704C57.7099 299.933 57.3354 301.12 56.6822 302.116C56.029 303.113 55.1259 303.875 54.0849 304.308C53.0438 304.741 51.9107 304.827 50.8262 304.554C49.7417 304.28 48.7535 303.661 47.9843 302.772C47.215 301.883 46.6986 300.764 46.4991 299.553C46.2996 298.342 46.4258 297.093 46.8621 295.96C47.2983 294.828 48.0253 293.863 48.953 293.184C49.8807 292.504 50.9681 292.142 52.0803 292.141C53.6184 292.182 55.079 292.896 56.143 294.126C57.2071 295.356 57.7881 297.001 57.7592 298.704Z" fill="white"/>
<path d="M80.8162 298.704C80.7703 299.939 80.3972 301.133 79.7433 302.135C79.0893 303.138 78.1833 303.906 77.1382 304.343C76.093 304.78 74.9547 304.867 73.865 304.594C72.7753 304.321 71.7823 303.699 71.0095 302.806C70.2367 301.913 69.7183 300.788 69.5188 299.571C69.3193 298.354 69.4475 297.1 69.8874 295.963C70.3274 294.826 71.0596 293.858 71.9931 293.178C72.9265 292.499 74.0199 292.138 75.1373 292.141C76.6753 292.182 78.136 292.896 79.2 294.126C80.2641 295.356 80.8451 297.001 80.8162 298.704Z" fill="white"/>
<path d="M103.873 298.704C103.827 299.939 103.454 301.133 102.8 302.135C102.146 303.138 101.24 303.906 100.195 304.343C99.1499 304.78 98.0117 304.867 96.922 304.594C95.8323 304.321 94.8392 303.699 94.0664 302.806C93.2937 301.913 92.7753 300.788 92.5758 299.571C92.3763 298.354 92.5044 297.1 92.9444 295.963C93.3843 294.826 94.1166 293.858 95.05 293.178C95.9835 292.499 97.0769 292.138 98.1942 292.141C99.7323 292.182 101.193 292.896 102.257 294.126C103.321 295.356 103.902 297.001 103.873 298.704Z" fill="white"/>
<path d="M729.089 68.0781H383.504V449.259H729.089V68.0781Z" fill="#F0F0F0"/>
<path d="M729.089 68.0781H383.504V112.727H729.089V68.0781Z" fill="#E0E0E0"/>
<path d="M412.94 89.9552C412.877 91.5784 412.384 93.1452 411.523 94.4612C410.662 95.7771 409.471 96.7842 408.097 97.3574C406.724 97.9306 405.228 98.0446 403.796 97.6853C402.365 97.326 401.06 96.5092 400.044 95.3364C399.028 94.1635 398.346 92.6862 398.082 91.088C397.818 89.4897 397.984 87.8409 398.559 86.3462C399.135 84.8515 400.094 83.5768 401.319 82.6804C402.543 81.7839 403.978 81.3052 405.447 81.3037C407.476 81.3559 409.403 82.2955 410.808 83.9169C412.212 85.5384 412.979 87.7095 412.94 89.9552Z" fill="white"/>
<path d="M441.101 84.108C442.098 85.3054 442.753 86.8007 442.987 88.4077C443.221 90.0147 443.022 91.6623 442.416 93.1452C441.81 94.6281 440.822 95.8808 439.577 96.7471C438.332 97.6134 436.884 98.0551 435.414 98.0171C433.943 97.9792 432.516 97.4632 431.308 96.5336C430.101 95.6039 429.168 94.3016 428.624 92.7891C428.081 91.2765 427.952 89.6204 428.253 88.0272C428.555 86.4341 429.273 84.9742 430.319 83.8296C431.783 82.2871 433.741 81.4503 435.762 81.5025C437.783 81.5547 439.703 82.4916 441.101 84.108Z" fill="white"/>
<path d="M473.647 89.9552C473.584 91.5784 473.091 93.1452 472.23 94.4612C471.369 95.7771 470.177 96.7842 468.804 97.3574C467.43 97.9306 465.934 98.0446 464.503 97.6853C463.071 97.326 461.766 96.5092 460.75 95.3364C459.734 94.1635 459.052 92.6862 458.788 91.088C458.524 89.4897 458.69 87.8409 459.266 86.3462C459.841 84.8515 460.801 83.5768 462.025 82.6804C463.25 81.7839 464.685 81.3052 466.153 81.3037C468.182 81.3559 470.11 82.2955 471.514 83.9169C472.919 85.5384 473.686 87.7095 473.647 89.9552Z" fill="white"/>
<path d="M654.436 833.483C654.436 833.761 529.645 834 375.758 834C221.872 834 97.0261 833.761 97.0261 833.483C97.0261 833.205 221.8 832.966 375.758 832.966C529.717 832.966 654.436 833.224 654.436 833.483Z" fill="#263238"/>
<path d="M532.844 590.009C505.078 568.55 498.789 528.713 499.885 492.894C500.065 486.928 499.471 480.603 502.041 475.372C504.611 470.142 510.614 466.542 515.448 469.048C519.455 471.136 521.199 476.307 523.445 480.583C526.442 486.279 530.835 490.919 536.115 493.968C539.547 495.957 543.806 497.15 547.203 495.082C551.875 492.238 552.414 485.138 552.378 479.171C552.378 468.073 552.319 456.989 552.199 445.918C551.876 439.973 552.422 434.009 553.816 428.257C555.487 422.609 559.207 417.378 564.293 415.787C569.379 414.196 575.723 417.477 576.873 423.285C577.071 425.744 577.125 428.216 577.035 430.683C577.179 433.169 578.221 435.894 580.324 436.65C582.426 437.406 584.619 435.675 586.236 433.925C591.771 427.959 595.545 420.182 599.049 412.505C602.554 404.828 605.986 396.933 611.018 390.389C616.05 383.846 623.005 378.655 630.786 378.158C638.568 377.661 646.673 382.951 648.614 391.304C650.555 399.657 646.152 408.189 641.425 414.971C634.293 425.038 625.886 433.914 616.463 441.324C614.624 442.435 613.156 444.171 612.276 446.276C611.108 450.253 614.505 454.231 618.045 455.484C622.053 456.956 626.402 456.498 630.625 457.055C634.848 457.612 639.341 459.641 640.94 464.016C643.133 470.102 638.532 476.466 634.021 480.643C624.964 488.996 614.679 495.568 603.614 500.074C599.66 501.665 595.509 503.077 592.31 506.14C589.111 509.203 587.207 514.553 589.129 518.749C591.052 522.946 595.994 524.278 600.146 523.423C604.297 522.568 607.981 520.101 611.935 518.451C619.321 515.368 628.846 515.925 633.5 522.985C634.942 525.417 635.855 528.186 636.167 531.075C636.478 533.963 636.181 536.892 635.297 539.632C633.499 545.084 630.73 550.082 627.156 554.329C615.386 569.893 600.093 581.718 582.84 588.597C565.713 595.16 549.845 596.95 532.826 590.049" fill="#FF9B21"/>
<path d="M640.707 383.07C640.707 383.07 640.545 383.269 640.185 383.627L638.586 385.198C637.184 386.591 635.118 388.619 632.512 391.304C625.124 398.896 618.263 407.093 611.989 415.826C607.981 421.336 603.83 427.581 599.409 434.362C594.988 441.144 590.423 448.463 585.895 456.24C581.066 464.44 576.645 472.925 572.65 481.657C570.565 486.212 568.732 490.965 566.845 495.818L561.274 510.634C553.931 529.298 547.535 548.401 542.117 567.853C537.753 583.77 534.744 600.103 533.131 616.64C532.086 627.8 531.918 639.039 532.628 650.231C532.916 654.209 533.185 657.252 533.437 659.32C533.545 660.314 533.617 661.11 533.689 661.687V662.502C533.611 662.244 533.557 661.977 533.527 661.707C533.437 661.13 533.329 660.354 533.185 659.36C532.862 657.371 532.52 654.229 532.197 650.251C531.33 639.038 531.39 627.761 532.377 616.56C533.89 599.953 536.832 583.543 541.165 567.555C546.537 548.048 552.915 528.897 560.268 510.197L565.983 495.44C567.87 490.607 569.721 485.814 571.823 481.239C575.846 472.481 580.304 463.976 585.176 455.762C589.776 447.807 594.413 440.607 598.78 433.885C603.147 427.163 607.37 420.878 611.36 415.389C617.698 406.679 624.651 398.539 632.152 391.046C634.812 388.4 636.933 386.412 638.37 385.079L640.042 383.587C640.246 383.39 640.469 383.217 640.707 383.07Z" fill="#263238"/>
<path d="M572.057 481.2C571.803 480.38 571.629 479.534 571.536 478.674C571.248 477.023 570.925 474.696 570.547 471.673C569.775 465.707 568.984 457.532 568.139 448.483C567.295 439.434 566.342 431.24 565.551 425.333C565.138 422.39 564.779 420.023 564.527 418.372C564.331 417.527 564.228 416.659 564.221 415.787C564.531 416.584 564.754 417.418 564.886 418.273C565.282 419.904 565.731 422.25 566.234 425.214C567.259 431.18 568.265 439.295 569.11 448.364C569.954 457.433 570.673 465.388 571.23 471.574C571.5 474.358 571.733 476.725 571.913 478.614C572.053 479.467 572.101 480.335 572.057 481.2Z" fill="#263238"/>
<path d="M641.21 466.92C640.335 467.131 639.445 467.25 638.55 467.278C636.753 467.457 634.201 467.696 631.038 468.093C624.712 468.849 616.014 470.241 606.472 472.23C596.929 474.219 588.357 476.466 582.193 478.197C579.119 479.072 576.639 479.867 575.004 480.404C574.131 480.748 573.227 480.988 572.308 481.12C573.139 480.658 574.005 480.279 574.896 479.987C576.586 479.33 579.03 478.415 582.085 477.441C588.213 475.452 596.785 473.085 606.364 471.057C614.478 469.34 622.665 468.078 630.894 467.278C634.075 466.98 636.645 466.86 638.442 466.82C639.365 466.751 640.293 466.784 641.21 466.92Z" fill="#263238"/>
<path d="M542.045 566.163C541.853 565.875 541.696 565.561 541.578 565.228L540.392 562.464C539.367 560.057 537.984 556.497 536.33 552.142C532.988 543.391 528.728 531.14 524.2 517.536C519.671 503.932 515.502 491.681 512.339 482.831C510.793 478.535 509.517 475.015 508.565 472.389L507.558 469.545C507.419 469.217 507.322 468.869 507.271 468.511C507.463 468.799 507.62 469.113 507.738 469.446L508.924 472.21C509.931 474.617 511.332 478.177 512.986 482.532C516.328 491.283 520.588 503.534 525.116 517.138C529.645 530.742 533.814 542.993 536.977 551.843C538.523 556.139 539.799 559.659 540.733 562.285C541.147 563.418 541.488 564.274 541.758 565.129C541.897 565.457 541.994 565.805 542.045 566.163Z" fill="#263238"/>
<path d="M633.842 533.407C633.554 533.59 633.246 533.73 632.925 533.824L630.265 534.819L620.435 538.339C612.132 541.322 600.667 545.578 588.087 550.272C575.507 554.966 563.988 559.142 555.631 561.927C551.462 563.339 548.065 564.413 545.711 565.129L542.998 565.904C542.682 566.015 542.357 566.089 542.027 566.123C542.315 565.94 542.623 565.8 542.944 565.705L545.603 564.711L555.434 561.191C563.736 558.208 575.202 553.951 587.782 549.258C600.361 544.564 611.863 540.388 620.219 537.603C624.407 536.191 627.785 535.117 630.157 534.401L632.871 533.625C633.187 533.515 633.512 533.441 633.842 533.407Z" fill="#263238"/>
<path d="M596.39 50.974L587.135 54.6335L583.163 41.2486C575.867 16.5671 552.612 3.46061 531.244 11.7939C509.877 20.1271 498.501 47.1952 505.797 71.8767L509.769 85.2616L500.478 88.941C496.935 90.4617 494.058 93.435 492.445 97.2426C490.832 101.05 490.606 105.399 491.816 109.386L517.568 196.477C518.103 198.451 518.991 200.285 520.178 201.872C521.366 203.458 522.83 204.764 524.483 205.713C526.136 206.661 527.944 207.231 529.8 207.391C531.657 207.55 533.523 207.295 535.288 206.64L631.2 168.673C634.79 167.155 637.707 164.156 639.34 160.306C640.972 156.455 641.191 152.055 639.952 148.029L614.181 60.9381C613.633 58.9701 612.732 57.1444 611.532 55.5702C610.332 53.996 608.858 52.7054 607.197 51.7754C605.537 50.8455 603.724 50.2953 601.867 50.1576C600.01 50.0199 598.148 50.2976 596.39 50.974ZM523.283 64.8959C521.316 58.4783 521.669 51.4672 524.269 45.3314C526.868 39.1956 531.513 34.4112 537.229 31.9806C540.051 30.9119 543.04 30.4833 546.015 30.7205C548.99 30.9576 551.892 31.8557 554.547 33.361C557.202 34.8663 559.556 36.9481 561.468 39.4822C563.381 42.0162 564.812 44.9505 565.677 48.1101L569.631 61.495L527.237 78.2808L523.283 64.8959ZM577.197 142.182L583.774 164.417C583.895 164.863 583.856 165.343 583.665 165.758C583.474 166.173 583.147 166.491 582.75 166.645L573.531 170.284C573.164 170.397 572.772 170.348 572.437 170.148C572.102 169.948 571.85 169.612 571.733 169.21L565.102 147.075C561.446 146.854 557.937 145.403 555.047 142.915C552.156 140.427 550.021 137.021 548.928 133.153C547.365 128.039 547.65 122.455 549.724 117.569C551.797 112.683 555.498 108.874 560.052 106.94C562.301 106.09 564.681 105.749 567.051 105.939C569.42 106.128 571.732 106.844 573.846 108.042C575.961 109.241 577.836 110.899 579.359 112.917C580.883 114.935 582.024 117.272 582.714 119.788C583.87 123.717 583.966 127.934 582.989 131.922C582.012 135.91 580.005 139.497 577.215 142.242L577.197 142.182Z" fill="#FF9B21"/>
<path d="M586.721 54.3948C586.721 54.6733 569.559 61.8132 548.209 70.3055C526.86 78.7979 509.445 85.6196 509.356 85.4207C509.266 85.2218 526.518 78.0222 547.886 69.51C569.253 60.9978 586.631 54.1363 586.721 54.3948Z" fill="#263238"/>
<path d="M607.101 58.0542C607.18 58.2268 607.246 58.4064 607.298 58.5912C607.442 58.989 607.604 59.5061 607.819 60.1425C608.287 61.5944 608.934 63.6031 609.742 66.109L616.643 88.3442C619.519 97.7713 622.951 108.949 626.761 121.359C628.558 127.584 630.679 134.068 632.655 140.889C633.714 144.405 634.171 148.108 634.003 151.808C633.851 153.733 633.356 155.605 632.548 157.317C631.684 159.024 630.531 160.53 629.151 161.752C626.375 163.995 623.293 165.734 620.022 166.904L610.767 170.583L593.245 177.524L563.574 189.218L543.537 197.015L538.145 199.003L536.708 199.52C536.554 199.596 536.39 199.643 536.222 199.66C536.222 199.66 536.366 199.66 536.672 199.421L538.073 198.804L543.465 196.557L563.395 188.443L593.011 176.51L610.497 169.509L619.752 165.81C622.93 164.688 625.923 163.002 628.612 160.818C629.896 159.683 630.97 158.285 631.775 156.701C632.536 155.117 632.995 153.377 633.123 151.589C633.288 148.024 632.849 144.455 631.829 141.068C629.888 134.306 627.839 127.763 625.988 121.538C622.25 109.108 618.8 97.8907 616.068 88.4636C613.337 79.0365 611.036 71.459 609.455 66.1289C608.7 63.5235 608.125 61.4949 607.658 60.0232L607.226 58.4321C607.172 58.3116 607.13 58.1849 607.101 58.0542Z" fill="#263238"/>
<path d="M556.494 30.6283C556.494 30.6283 555.541 30.1112 553.78 29.3157C551.27 28.2482 548.615 27.6565 545.927 27.5655C541.943 27.4143 537.978 28.243 534.317 29.9919C529.867 32.1696 526.061 35.692 523.337 40.1548C520.595 44.6049 519.124 49.8638 519.114 55.2501C519.151 59.6648 519.756 64.0511 520.911 68.277C521.846 71.8967 522.816 74.7805 523.463 76.7893C523.845 77.8096 524.157 78.8599 524.397 79.9316C523.887 78.9777 523.46 77.9721 523.121 76.9285C522.385 74.9396 521.324 72.1155 520.282 68.4759C519.003 64.2056 518.306 59.7479 518.215 55.2501C518.167 49.6603 519.673 44.1893 522.528 39.5781C525.347 34.9522 529.309 31.3209 533.94 29.1168C537.714 27.3583 541.803 26.5826 545.891 26.8495C548.637 27.0044 551.335 27.7121 553.852 28.9378C554.525 29.2814 555.174 29.6803 555.793 30.1311C556.049 30.2554 556.285 30.4231 556.494 30.6283Z" fill="#263238"/>
<path d="M557.321 108.451C557.607 108.259 557.908 108.093 558.219 107.954C559.119 107.505 560.05 107.139 561.005 106.86C562.519 106.366 564.082 106.072 565.659 105.985C567.805 105.858 569.951 106.216 571.967 107.039C576.568 108.829 580.791 114.02 582.875 120.961C583.875 124.686 583.875 128.652 582.875 132.377C581.767 136.42 579.78 140.101 577.089 143.097L577.197 142.56C579.587 149.819 582.193 157.695 584.888 165.909L585.05 166.406L584.601 166.585L580.485 168.097L571.5 171.418L571.05 171.577L570.907 171.08C568.445 162.846 565.749 155.169 563.718 147.632L564.114 147.97C560.6 147.647 557.251 146.187 554.481 143.773C551.975 141.637 549.921 138.923 548.461 135.818C547.143 133.065 546.487 129.983 546.556 126.868C546.639 123.685 547.357 120.561 548.659 117.721C549.961 114.881 551.814 112.395 554.086 110.44C555.021 109.6 556.07 108.929 557.195 108.451C556.18 109.118 555.196 109.842 554.247 110.619C551.752 112.956 549.84 115.962 548.694 119.35C547.711 121.905 547.251 124.669 547.348 127.444C547.444 130.219 548.094 132.936 549.252 135.4C550.687 138.387 552.692 140.993 555.128 143.037C557.77 145.332 560.964 146.715 564.311 147.015H564.617L564.707 147.313C566.684 154.712 569.397 162.448 571.895 170.722L571.302 170.404L580.288 167.082L584.385 165.551L584.098 166.227C581.42 158.013 578.832 150.118 576.46 142.858V142.56L576.675 142.321C579.288 139.449 581.236 135.922 582.354 132.039C583.308 128.476 583.308 124.683 582.354 121.12C580.395 114.438 576.352 109.366 571.967 107.576C570.026 106.748 567.954 106.362 565.875 106.443C564.322 106.482 562.779 106.716 561.274 107.139C558.596 107.875 557.338 108.551 557.321 108.451Z" fill="#263238"/>
<path d="M501.772 682.709L322.258 681.794C311.891 681.731 301.971 677.117 294.676 668.965C287.381 660.814 283.308 649.791 283.351 638.318L285.256 140.293C285.277 134.609 286.31 128.985 288.296 123.743C290.282 118.501 293.183 113.744 296.831 109.743C300.479 105.743 304.805 102.577 309.559 100.427C314.314 98.2773 319.405 97.1856 324.541 97.2144L504.036 98.1292C514.403 98.1871 524.325 102.796 531.624 110.944C538.922 119.092 543 130.113 542.962 141.585L541.057 639.591C541.035 645.277 540.003 650.902 538.017 656.146C536.031 661.391 533.131 666.15 529.483 670.154C525.836 674.158 521.511 677.328 516.756 679.482C512.001 681.636 506.91 682.733 501.772 682.709Z" fill="#455A64"/>
<path d="M503.767 115.253H468.974C467.839 115.277 466.719 115.547 465.679 116.05C464.638 116.552 463.697 117.276 462.909 118.181C462.121 119.086 461.502 120.154 461.088 121.324C460.673 122.494 460.471 123.742 460.492 124.999V131.979C460.514 133.235 460.311 134.482 459.896 135.651C459.481 136.82 458.862 137.886 458.074 138.79C457.286 139.693 456.345 140.415 455.304 140.916C454.264 141.416 453.144 141.684 452.01 141.705L384.187 141.367C381.892 141.299 379.716 140.226 378.136 138.384C376.555 136.542 375.7 134.081 375.758 131.542V124.561C375.816 122.025 374.964 119.567 373.387 117.726C371.811 115.884 369.639 114.809 367.348 114.736H355.109L324.648 114.577C317.403 114.529 310.436 117.661 305.272 123.286C300.109 128.911 297.17 136.571 297.099 144.589L295.302 630.701C295.285 634.679 295.977 638.621 297.337 642.303C298.697 645.985 300.699 649.334 303.229 652.16C305.759 654.986 308.767 657.232 312.081 658.771C315.396 660.31 318.951 661.112 322.546 661.13L501.682 662.045C505.279 662.063 508.843 661.297 512.172 659.791C515.502 658.285 518.53 656.068 521.085 653.266C523.64 650.464 525.671 647.133 527.063 643.463C528.454 639.792 529.179 635.855 529.196 631.874L530.993 145.762C531.036 137.721 528.192 129.991 523.087 124.27C517.981 118.549 511.032 115.306 503.767 115.253Z" fill="white"/>
<path d="M479.667 597.189L346.465 596.552C345.082 596.552 343.967 594.882 343.985 592.853L344.129 554.29C344.129 552.301 345.261 550.59 346.645 550.59L479.847 551.267C480.614 551.413 481.3 551.882 481.762 552.575C482.224 553.268 482.426 554.132 482.327 554.986L482.201 593.509C482.201 595.558 481.051 597.209 479.667 597.189Z" fill="#FF9B21"/>
<path d="M385.12 570.097C384.697 570.097 384.29 570.029 383.9 569.894C383.515 569.758 383.217 569.579 383.005 569.357L383.241 568.894C383.447 569.1 383.721 569.268 384.062 569.398C384.404 569.522 384.756 569.585 385.12 569.585C385.629 569.585 386.011 569.493 386.266 569.308C386.521 569.119 386.648 568.875 386.648 568.576C386.648 568.349 386.578 568.167 386.437 568.032C386.301 567.896 386.133 567.793 385.933 567.723C385.732 567.647 385.453 567.565 385.095 567.479C384.667 567.37 384.325 567.267 384.071 567.17C383.816 567.067 383.596 566.912 383.412 566.706C383.233 566.5 383.144 566.221 383.144 565.869C383.144 565.581 383.22 565.321 383.371 565.088C383.523 564.85 383.756 564.66 384.071 564.519C384.385 564.378 384.775 564.308 385.242 564.308C385.567 564.308 385.884 564.354 386.193 564.446C386.507 564.532 386.778 564.654 387.006 564.812L386.803 565.291C386.564 565.134 386.309 565.018 386.038 564.942C385.767 564.86 385.502 564.82 385.242 564.82C384.743 564.82 384.366 564.917 384.111 565.113C383.862 565.302 383.737 565.549 383.737 565.852C383.737 566.08 383.805 566.264 383.941 566.405C384.081 566.541 384.255 566.647 384.461 566.723C384.672 566.793 384.954 566.872 385.307 566.958C385.724 567.061 386.06 567.164 386.315 567.267C386.575 567.365 386.795 567.517 386.973 567.723C387.152 567.923 387.242 568.197 387.242 568.544C387.242 568.831 387.163 569.094 387.006 569.333C386.854 569.566 386.618 569.753 386.299 569.894C385.979 570.029 385.586 570.097 385.12 570.097ZM388.553 564.356H389.155V570.048H388.553V564.356ZM395.763 564.356V570.048H395.267L391.608 565.43V570.048H391.007V564.356H391.503L395.17 568.975V564.356H395.763ZM401.63 567.202H402.207V569.373C401.942 569.606 401.627 569.785 401.264 569.91C400.901 570.035 400.519 570.097 400.117 570.097C399.548 570.097 399.036 569.972 398.581 569.723C398.125 569.474 397.768 569.129 397.507 568.69C397.247 568.246 397.117 567.75 397.117 567.202C397.117 566.655 397.247 566.161 397.507 565.722C397.768 565.278 398.125 564.931 398.581 564.682C399.036 564.432 399.551 564.308 400.126 564.308C400.559 564.308 400.958 564.378 401.321 564.519C401.684 564.654 401.99 564.858 402.24 565.129L401.866 565.511C401.416 565.066 400.844 564.844 400.15 564.844C399.689 564.844 399.272 564.947 398.898 565.153C398.529 565.354 398.239 565.636 398.028 565.999C397.816 566.357 397.711 566.758 397.711 567.202C397.711 567.647 397.816 568.048 398.028 568.406C398.239 568.763 398.529 569.045 398.898 569.251C399.266 569.457 399.681 569.56 400.142 569.56C400.727 569.56 401.223 569.414 401.63 569.121V567.202ZM408.331 570.097C407.594 570.097 407.019 569.886 406.608 569.463C406.196 569.04 405.99 568.425 405.99 567.617V564.356H406.591V567.593C406.591 568.254 406.74 568.747 407.038 569.072C407.337 569.398 407.768 569.56 408.331 569.56C408.901 569.56 409.334 569.398 409.632 569.072C409.93 568.747 410.08 568.254 410.08 567.593V564.356H410.665V567.617C410.665 568.425 410.459 569.04 410.047 569.463C409.64 569.886 409.069 570.097 408.331 570.097ZM414.609 564.356C415.335 564.356 415.904 564.53 416.316 564.877C416.728 565.224 416.934 565.701 416.934 566.308C416.934 566.915 416.728 567.392 416.316 567.739C415.904 568.08 415.335 568.251 414.609 568.251H413.08V570.048H412.478V564.356H414.609ZM414.592 567.723C415.156 567.723 415.587 567.601 415.885 567.357C416.183 567.107 416.332 566.758 416.332 566.308C416.332 565.847 416.183 565.495 415.885 565.251C415.587 565.001 415.156 564.877 414.592 564.877H413.08V567.723H414.592Z" fill="#E8E8E3"/>
<path d="M373.034 258.152L326.813 257.92L326.774 267.307L372.996 267.539L373.034 258.152Z" fill="#FF9B21"/>
<path opacity="0.1" d="M373.034 258.152L326.813 257.92L326.774 267.307L372.996 267.539L373.034 258.152Z" fill="black"/>
<path d="M508.529 315.788C508.892 315.747 509.248 315.654 509.589 315.51C510.087 315.294 510.519 314.928 510.837 314.453C511.155 313.978 511.345 313.414 511.386 312.825C511.386 309.662 511.386 305.048 511.386 299.122C511.386 296.158 511.386 292.837 511.386 289.177C511.386 288.282 511.386 287.348 511.386 286.413C511.503 285.506 511.325 284.582 510.883 283.807C510.636 283.436 510.314 283.133 509.943 282.923C509.572 282.712 509.162 282.6 508.745 282.594H505.941H479.973L329.662 281.978C329.278 281.971 328.897 282.066 328.553 282.257C328.209 282.447 327.911 282.727 327.686 283.072C327.252 283.85 327.086 284.775 327.218 285.677C327.218 287.666 327.218 289.655 327.218 291.644C327.218 295.621 327.218 299.599 327.218 303.577C327.218 305.565 327.218 307.554 327.218 309.543C327.144 310.469 327.144 311.401 327.218 312.327C327.313 312.725 327.488 313.092 327.731 313.403C327.974 313.713 328.278 313.958 328.62 314.117C328.974 314.273 329.353 314.348 329.734 314.336H338.882L378.795 314.575L446.367 315.032L491.924 315.43L504.306 315.589H507.523C508.259 315.589 508.619 315.589 508.619 315.589H507.523H504.306H491.924H446.367L378.795 315.35L338.882 315.171H329.734C329.231 315.194 328.729 315.099 328.261 314.893C327.787 314.67 327.367 314.329 327.03 313.899C326.694 313.468 326.451 312.958 326.32 312.407C326.216 311.885 326.179 311.349 326.212 310.816V309.344C326.212 307.355 326.212 305.366 326.212 303.378C326.212 299.4 326.212 295.422 326.212 291.445C326.212 289.456 326.212 287.467 326.212 285.478C326.178 284.948 326.178 284.417 326.212 283.887C326.279 283.302 326.484 282.747 326.805 282.276C327.115 281.796 327.525 281.406 328.001 281.139C328.477 280.873 329.003 280.737 329.537 280.745L479.847 281.66L505.815 281.858H508.619C509.113 281.859 509.599 281.991 510.037 282.244C510.475 282.496 510.852 282.862 511.135 283.31C511.641 284.175 511.846 285.214 511.71 286.234C511.71 287.169 511.71 288.103 511.71 288.998C511.71 292.618 511.71 295.939 511.71 298.943C511.71 304.909 511.584 309.483 511.548 312.666C511.504 313.277 511.303 313.863 510.969 314.352C510.635 314.842 510.181 315.216 509.661 315.43C509.321 315.663 508.929 315.787 508.529 315.788Z" fill="#E0E0E0"/>
<path d="M425.233 291.962H340.697V300.732H425.233V291.962Z" fill="#FF9B21"/>
<path opacity="0.2" d="M425.233 291.962H340.697V300.732H425.233V291.962Z" fill="white"/>
<path d="M372.719 343.789L326.498 343.557L326.459 352.944L372.68 353.176L372.719 343.789Z" fill="#FF9B21"/>
<path opacity="0.1" d="M372.719 343.789L326.498 343.557L326.459 352.944L372.68 353.176L372.719 343.789Z" fill="black"/>
<path d="M507.361 401.427C507.724 401.378 508.084 401.305 508.439 401.209C508.941 401.032 509.403 400.738 509.793 400.347C510.184 399.956 510.494 399.476 510.703 398.941C510.986 398.138 511.097 397.274 511.027 396.415C511.027 395.461 511.027 394.427 511.027 393.273C511.027 390.966 511.027 388.341 511.027 385.318V372.689C511.113 371.774 510.93 370.854 510.506 370.063C510.062 369.253 509.365 368.651 508.547 368.373C507.652 368.196 506.74 368.143 505.833 368.214H479.973L330.183 367.597C329.378 367.599 328.6 367.925 327.995 368.514C327.39 369.103 326.999 369.915 326.895 370.799C326.895 372.689 326.895 374.777 326.895 376.766C326.895 380.743 326.895 384.721 326.895 388.699C326.895 390.688 326.895 392.676 326.895 394.665C326.828 395.595 326.864 396.53 327.003 397.45C327.227 398.256 327.689 398.956 328.314 399.439C328.978 399.905 329.758 400.127 330.543 400.075H333.041H338.235L378.005 400.294L445.342 400.751L490.737 401.149L503.084 401.308H506.3H507.379H506.3H503.084H490.737H445.342L377.969 401.228L338.199 401.069H330.381C329.409 401.133 328.445 400.847 327.632 400.254C326.814 399.627 326.217 398.707 325.942 397.649C325.781 396.638 325.733 395.609 325.799 394.586C325.799 392.597 325.799 390.608 325.799 388.619C325.799 384.642 325.799 380.664 325.799 376.686C325.799 374.697 325.799 372.709 325.799 370.72C325.93 369.582 326.431 368.537 327.208 367.779C327.986 367.021 328.986 366.603 330.022 366.603L479.811 367.518L505.671 367.736C506.634 367.671 507.601 367.745 508.547 367.955C509.481 368.293 510.268 369.001 510.757 369.944C511.222 370.82 511.424 371.837 511.332 372.848C511.332 373.782 511.332 374.697 511.332 375.612C511.332 379.212 511.332 382.513 511.332 385.556C511.332 388.599 511.332 391.165 511.332 393.512C511.332 394.645 511.332 395.699 511.332 396.674C511.398 397.563 511.268 398.457 510.955 399.279C510.722 399.828 510.384 400.315 509.966 400.706C509.547 401.097 509.057 401.384 508.529 401.547C508.136 401.583 507.741 401.542 507.361 401.427Z" fill="#E0E0E0"/>
<path d="M372.37 433.145L326.149 432.913L326.111 442.3L372.332 442.532L372.37 433.145Z" fill="#FF9B21"/>
<path opacity="0.1" d="M372.37 433.145L326.149 432.913L326.111 442.3L372.332 442.532L372.37 433.145Z" fill="black"/>
<path d="M507.001 490.746C507.365 490.699 507.725 490.626 508.08 490.527C508.579 490.352 509.04 490.06 509.43 489.673C509.82 489.286 510.132 488.811 510.344 488.28C510.626 487.477 510.736 486.613 510.668 485.754C510.668 484.78 510.668 483.765 510.668 482.592C510.668 480.305 510.668 477.66 510.668 474.637V462.007C510.753 461.093 510.571 460.173 510.146 459.382C509.693 458.586 508.998 457.995 508.187 457.712C507.293 457.528 506.382 457.468 505.474 457.533H479.613L329.824 456.916C329.018 456.918 328.241 457.244 327.636 457.833C327.031 458.422 326.64 459.234 326.535 460.118C326.535 462.107 326.535 464.096 326.535 466.085C326.535 470.062 326.535 474.04 326.535 478.018C326.535 480.006 326.535 481.995 326.535 483.984C326.468 484.907 326.505 485.836 326.643 486.749C326.858 487.56 327.322 488.263 327.955 488.737C328.615 489.214 329.398 489.438 330.184 489.374H338.001L377.771 489.613L445.109 490.07L490.504 490.468L502.85 490.627H506.067C506.786 490.627 507.145 490.627 507.145 490.627C507.145 490.627 506.786 490.627 506.067 490.627H502.85H490.504H445.109L377.771 490.408L338.001 490.229H330.184C329.211 490.302 328.244 490.015 327.434 489.414C326.616 488.787 326.019 487.866 325.745 486.808C325.584 485.798 325.535 484.769 325.601 483.745C325.601 481.757 325.601 479.768 325.601 477.779C325.601 473.801 325.601 469.824 325.601 465.846C325.601 463.857 325.601 461.868 325.601 459.78C325.728 458.644 326.225 457.599 327 456.841C327.774 456.083 328.772 455.664 329.806 455.663L479.595 456.578L505.456 456.797C506.419 456.731 507.385 456.805 508.331 457.015C509.265 457.353 510.052 458.062 510.542 459.004C511.007 459.88 511.208 460.897 511.117 461.908C511.117 462.843 511.117 463.778 511.117 464.673C511.117 468.272 511.117 471.574 511.117 474.617C511.117 477.66 511.117 480.225 511.117 482.572C511.117 483.706 511.117 484.76 511.117 485.734C511.186 486.624 511.056 487.519 510.739 488.34C510.506 488.888 510.169 489.375 509.75 489.766C509.331 490.158 508.841 490.444 508.313 490.607C507.892 490.767 507.442 490.814 507.001 490.746Z" fill="#E0E0E0"/>
<path d="M423.428 380.081L338.893 379.656L338.857 388.427L423.392 388.851L423.428 380.081Z" fill="#FF9B21"/>
<path opacity="0.2" d="M423.428 380.081L338.893 379.656L338.857 388.427L423.392 388.851L423.428 380.081Z" fill="white"/>
<path d="M346.537 474.517C346.484 475.317 346.22 476.082 345.778 476.718C345.335 477.353 344.734 477.831 344.049 478.092C343.363 478.353 342.624 478.385 341.922 478.185C341.22 477.985 340.587 477.561 340.1 476.967C339.614 476.372 339.296 475.632 339.186 474.839C339.076 474.046 339.179 473.235 339.481 472.506C339.784 471.778 340.273 471.163 340.889 470.739C341.504 470.315 342.218 470.101 342.943 470.122C343.944 470.184 344.883 470.68 345.556 471.503C346.229 472.325 346.581 473.409 346.537 474.517Z" fill="#FF9B21"/>
<path d="M357.985 474.577C358.02 475.138 357.951 475.7 357.781 476.23C357.612 476.76 357.345 477.245 356.999 477.656C356.653 478.068 356.234 478.395 355.768 478.619C355.302 478.844 354.8 478.959 354.292 478.959C353.784 478.959 353.281 478.844 352.816 478.619C352.35 478.395 351.931 478.068 351.584 477.656C351.238 477.245 350.972 476.76 350.802 476.23C350.633 475.7 350.563 475.138 350.599 474.577C350.563 474.016 350.633 473.453 350.802 472.924C350.972 472.394 351.238 471.908 351.584 471.497C351.931 471.086 352.35 470.758 352.816 470.534C353.281 470.31 353.784 470.195 354.292 470.195C354.8 470.195 355.302 470.31 355.768 470.534C356.234 470.758 356.653 471.086 356.999 471.497C357.345 471.908 357.612 472.394 357.781 472.924C357.951 473.453 358.02 474.016 357.985 474.577Z" fill="#FF9B21"/>
<path d="M369.45 474.637C369.397 475.437 369.133 476.202 368.691 476.837C368.249 477.473 367.647 477.95 366.962 478.211C366.277 478.472 365.537 478.504 364.835 478.304C364.133 478.104 363.5 477.681 363.013 477.086C362.527 476.491 362.209 475.751 362.099 474.959C361.989 474.166 362.092 473.355 362.395 472.626C362.697 471.897 363.187 471.282 363.802 470.859C364.417 470.435 365.132 470.22 365.856 470.241C366.856 470.308 367.792 470.806 368.464 471.627C369.136 472.449 369.49 473.529 369.45 474.637Z" fill="#FF9B21"/>
<path d="M380.898 474.696C380.845 475.496 380.581 476.261 380.139 476.897C379.696 477.532 379.095 478.01 378.41 478.271C377.724 478.532 376.985 478.564 376.283 478.364C375.581 478.164 374.947 477.74 374.461 477.146C373.975 476.551 373.657 475.811 373.547 475.018C373.437 474.225 373.539 473.414 373.842 472.685C374.145 471.957 374.634 471.342 375.25 470.918C375.865 470.494 376.579 470.28 377.304 470.301C378.303 470.368 379.239 470.865 379.911 471.687C380.583 472.509 380.937 473.589 380.898 474.696Z" fill="#FF9B21"/>
<path d="M392.346 474.736C392.296 475.537 392.035 476.305 391.594 476.943C391.154 477.581 390.554 478.062 389.868 478.326C389.183 478.59 388.443 478.625 387.739 478.427C387.036 478.229 386.401 477.806 385.913 477.212C385.425 476.618 385.105 475.878 384.994 475.084C384.883 474.291 384.985 473.479 385.287 472.749C385.589 472.019 386.079 471.403 386.695 470.979C387.311 470.554 388.026 470.339 388.751 470.361C389.748 470.427 390.681 470.922 391.352 471.74C392.024 472.557 392.38 473.632 392.346 474.736Z" fill="#FF9B21"/>
<path d="M403.811 474.796C403.762 475.593 403.504 476.356 403.067 476.993C402.631 477.63 402.036 478.111 401.356 478.378C400.676 478.645 399.94 478.687 399.238 478.497C398.537 478.307 397.901 477.895 397.409 477.31C396.917 476.726 396.59 475.995 396.469 475.207C396.347 474.42 396.436 473.61 396.725 472.878C397.014 472.146 397.49 471.523 398.094 471.086C398.699 470.65 399.405 470.418 400.127 470.42C401.139 470.462 402.095 470.945 402.786 471.766C403.476 472.586 403.845 473.675 403.811 474.796Z" fill="#FF9B21"/>
<path d="M415.259 474.855C415.294 475.416 415.225 475.979 415.055 476.509C414.886 477.038 414.619 477.524 414.273 477.935C413.927 478.346 413.508 478.674 413.042 478.898C412.576 479.122 412.074 479.238 411.566 479.238C411.058 479.238 410.555 479.122 410.09 478.898C409.624 478.674 409.205 478.346 408.858 477.935C408.512 477.524 408.246 477.038 408.076 476.509C407.907 475.979 407.837 475.416 407.873 474.855C407.837 474.295 407.907 473.732 408.076 473.202C408.246 472.672 408.512 472.187 408.858 471.776C409.205 471.365 409.624 471.037 410.09 470.813C410.555 470.589 411.058 470.473 411.566 470.473C412.074 470.473 412.576 470.589 413.042 470.813C413.508 471.037 413.927 471.365 414.273 471.776C414.619 472.187 414.886 472.672 415.055 473.202C415.225 473.732 415.294 474.295 415.259 474.855Z" fill="#FF9B21"/>
<path d="M426.706 474.915C426.657 475.712 426.399 476.476 425.963 477.112C425.526 477.749 424.931 478.23 424.251 478.498C423.571 478.765 422.835 478.806 422.134 478.616C421.432 478.427 420.797 478.014 420.304 477.43C419.812 476.845 419.485 476.114 419.364 475.327C419.242 474.539 419.331 473.73 419.62 472.997C419.909 472.265 420.385 471.642 420.989 471.206C421.594 470.769 422.3 470.538 423.022 470.54C424.035 470.581 424.991 471.065 425.681 471.885C426.372 472.705 426.74 473.795 426.706 474.915Z" fill="#FF9B21"/>
<path d="M438.154 474.975C438.104 475.776 437.843 476.543 437.403 477.182C436.962 477.82 436.362 478.301 435.677 478.565C434.991 478.828 434.251 478.863 433.548 478.665C432.845 478.467 432.209 478.045 431.721 477.451C431.233 476.857 430.914 476.117 430.802 475.323C430.691 474.53 430.793 473.717 431.095 472.987C431.398 472.257 431.887 471.642 432.503 471.217C433.119 470.793 433.834 470.578 434.56 470.599C435.556 470.666 436.489 471.161 437.161 471.978C437.832 472.796 438.189 473.871 438.154 474.975Z" fill="#FF9B21"/>
<g opacity="0.2">
<path opacity="0.2" d="M346.537 474.517C346.484 475.317 346.22 476.082 345.778 476.718C345.335 477.353 344.734 477.831 344.049 478.092C343.363 478.353 342.624 478.385 341.922 478.185C341.22 477.985 340.587 477.561 340.1 476.967C339.614 476.372 339.296 475.632 339.186 474.839C339.076 474.046 339.179 473.235 339.481 472.506C339.784 471.778 340.273 471.163 340.889 470.739C341.504 470.315 342.218 470.101 342.943 470.122C343.944 470.184 344.883 470.68 345.556 471.503C346.229 472.325 346.581 473.409 346.537 474.517Z" fill="white"/>
<path opacity="0.2" d="M357.985 474.576C358.02 475.137 357.951 475.7 357.781 476.229C357.612 476.759 357.346 477.245 356.999 477.656C356.653 478.067 356.234 478.395 355.768 478.619C355.302 478.843 354.8 478.958 354.292 478.958C353.784 478.958 353.281 478.843 352.816 478.619C352.35 478.395 351.931 478.067 351.584 477.656C351.238 477.245 350.972 476.759 350.802 476.229C350.633 475.7 350.563 475.137 350.599 474.576C350.563 474.015 350.633 473.453 350.802 472.923C350.972 472.393 351.238 471.908 351.584 471.497C351.931 471.085 352.35 470.758 352.816 470.534C353.281 470.31 353.784 470.194 354.292 470.194C354.8 470.194 355.302 470.31 355.768 470.534C356.234 470.758 356.653 471.085 356.999 471.497C357.346 471.908 357.612 472.393 357.781 472.923C357.951 473.453 358.02 474.015 357.985 474.576Z" fill="white"/>
<path opacity="0.2" d="M369.45 474.635C369.397 475.435 369.133 476.201 368.691 476.836C368.249 477.472 367.647 477.949 366.962 478.21C366.277 478.471 365.537 478.503 364.835 478.303C364.133 478.103 363.5 477.68 363.013 477.085C362.527 476.49 362.209 475.75 362.099 474.957C361.989 474.165 362.092 473.353 362.395 472.625C362.697 471.896 363.187 471.281 363.802 470.857C364.417 470.434 365.132 470.219 365.856 470.24C366.856 470.307 367.792 470.804 368.464 471.626C369.136 472.448 369.49 473.528 369.45 474.635Z" fill="white"/>
<path opacity="0.2" d="M380.898 474.696C380.845 475.496 380.581 476.261 380.139 476.897C379.696 477.532 379.095 478.01 378.41 478.271C377.724 478.532 376.985 478.564 376.283 478.364C375.581 478.164 374.947 477.74 374.461 477.146C373.975 476.551 373.657 475.811 373.547 475.018C373.437 474.225 373.539 473.414 373.842 472.685C374.145 471.957 374.634 471.342 375.25 470.918C375.865 470.494 376.579 470.28 377.304 470.301C378.303 470.368 379.239 470.865 379.911 471.687C380.583 472.509 380.937 473.589 380.898 474.696Z" fill="white"/>
<path opacity="0.2" d="M392.346 474.736C392.296 475.537 392.035 476.305 391.594 476.943C391.154 477.581 390.554 478.062 389.868 478.326C389.183 478.59 388.443 478.625 387.739 478.427C387.036 478.229 386.401 477.806 385.913 477.212C385.425 476.618 385.105 475.878 384.994 475.084C384.883 474.291 384.985 473.479 385.287 472.749C385.589 472.019 386.079 471.403 386.695 470.979C387.311 470.554 388.026 470.339 388.751 470.361C389.748 470.427 390.681 470.922 391.352 471.74C392.024 472.557 392.38 473.632 392.346 474.736Z" fill="white"/>
<path opacity="0.2" d="M403.811 474.796C403.762 475.593 403.504 476.357 403.067 476.993C402.631 477.63 402.036 478.111 401.356 478.378C400.676 478.646 399.94 478.687 399.238 478.497C398.537 478.307 397.901 477.895 397.409 477.31C396.917 476.726 396.59 475.995 396.469 475.207C396.347 474.42 396.436 473.61 396.725 472.878C397.014 472.146 397.49 471.523 398.094 471.087C398.699 470.65 399.405 470.418 400.127 470.42C401.139 470.462 402.095 470.946 402.786 471.766C403.477 472.586 403.845 473.675 403.811 474.796Z" fill="white"/>
<path opacity="0.2" d="M415.259 474.855C415.294 475.416 415.225 475.979 415.055 476.509C414.886 477.038 414.619 477.524 414.273 477.935C413.927 478.346 413.508 478.674 413.042 478.898C412.576 479.122 412.074 479.238 411.566 479.238C411.058 479.238 410.555 479.122 410.09 478.898C409.624 478.674 409.205 478.346 408.858 477.935C408.512 477.524 408.246 477.038 408.076 476.509C407.907 475.979 407.837 475.416 407.873 474.855C407.837 474.295 407.907 473.732 408.076 473.202C408.246 472.672 408.512 472.187 408.858 471.776C409.205 471.365 409.624 471.037 410.09 470.813C410.555 470.589 411.058 470.473 411.566 470.473C412.074 470.473 412.576 470.589 413.042 470.813C413.508 471.037 413.927 471.365 414.273 471.776C414.619 472.187 414.886 472.672 415.055 473.202C415.225 473.732 415.294 474.295 415.259 474.855Z" fill="white"/>
<path opacity="0.2" d="M426.706 474.915C426.657 475.712 426.399 476.476 425.963 477.113C425.526 477.749 424.931 478.231 424.251 478.498C423.571 478.765 422.835 478.806 422.134 478.617C421.432 478.427 420.797 478.014 420.304 477.43C419.812 476.845 419.485 476.114 419.364 475.327C419.242 474.539 419.331 473.73 419.62 472.998C419.909 472.265 420.385 471.643 420.989 471.206C421.594 470.769 422.3 470.538 423.022 470.54C424.035 470.581 424.991 471.065 425.681 471.885C426.372 472.705 426.74 473.795 426.706 474.915Z" fill="white"/>
<path opacity="0.2" d="M438.154 474.975C438.104 475.776 437.843 476.543 437.403 477.181C436.962 477.82 436.362 478.301 435.677 478.564C434.991 478.828 434.251 478.863 433.548 478.665C432.845 478.467 432.209 478.045 431.721 477.451C431.233 476.856 430.914 476.117 430.802 475.323C430.691 474.529 430.793 473.717 431.095 472.987C431.398 472.257 431.887 471.642 432.503 471.217C433.119 470.793 433.834 470.578 434.56 470.599C435.556 470.666 436.489 471.161 437.161 471.978C437.832 472.795 438.189 473.871 438.154 474.975Z" fill="white"/>
</g>
<path d="M421.89 187.866C423.139 187.257 424.198 186.256 424.936 184.987C425.674 183.717 426.058 182.235 426.041 180.726C426.088 179.745 425.953 178.763 425.646 177.841C425.339 176.919 424.865 176.076 424.254 175.363C423.643 174.651 422.907 174.083 422.091 173.695C421.275 173.307 420.397 173.107 419.509 173.107C418.621 173.107 417.742 173.307 416.927 173.695C416.111 174.083 415.375 174.651 414.764 175.363C414.153 176.076 413.679 176.919 413.372 177.841C413.064 178.763 412.93 179.745 412.976 180.726C412.949 182.25 413.33 183.75 414.073 185.035C414.815 186.32 415.884 187.333 417.146 187.945C407.082 189.616 407.531 201.708 407.531 201.708L431.325 201.827C431.325 201.827 431.882 189.517 421.89 187.866Z" fill="#FF9B21"/>
<path opacity="0.1" d="M421.89 187.866C423.139 187.257 424.198 186.256 424.936 184.987C425.674 183.717 426.058 182.235 426.041 180.726C426.088 179.745 425.953 178.763 425.646 177.841C425.339 176.919 424.865 176.076 424.254 175.363C423.643 174.651 422.907 174.083 422.091 173.695C421.275 173.307 420.397 173.107 419.509 173.107C418.621 173.107 417.742 173.307 416.927 173.695C416.111 174.083 415.375 174.651 414.764 175.363C414.153 176.076 413.679 176.919 413.372 177.841C413.064 178.763 412.93 179.745 412.976 180.726C412.949 182.25 413.33 183.75 414.073 185.035C414.815 186.32 415.884 187.333 417.146 187.945C407.082 189.616 407.531 201.708 407.531 201.708L431.325 201.827C431.325 201.827 431.882 189.517 421.89 187.866Z" fill="black"/>
<path d="M460.554 209.627L375.749 209.201L375.703 220.418L460.508 220.844L460.554 209.627Z" fill="#FF9B21"/>
<path opacity="0.2" d="M460.554 209.627L375.749 209.201L375.703 220.418L460.508 220.844L460.554 209.627Z" fill="white"/>
<path d="M148.783 267.757H147.938L145.494 267.956C144.172 268.044 142.856 268.237 141.559 268.533C140.718 268.664 139.884 268.843 139.061 269.07L136.275 269.925C131.534 271.535 127.061 273.987 123.03 277.185C117.705 281.462 113.259 286.939 109.983 293.254C108.058 296.895 106.526 300.773 105.419 304.81C104.255 309.196 103.585 313.725 103.424 318.294C103.317 320.694 103.353 323.099 103.532 325.493C103.532 326.707 103.837 327.92 103.981 329.153C104.102 330.396 104.312 331.626 104.61 332.832C106.226 340.813 109.505 348.265 114.185 354.595C118.865 360.924 124.817 365.956 131.567 369.288C136.451 371.62 141.687 372.922 147.004 373.126C152.495 373.46 157.992 372.588 163.178 370.561L164.759 369.904H164.975L165.155 370.024L187.816 382.752L187.151 383.389C184.725 375.075 182.389 367.02 180.125 359.284V358.986L180.322 358.767C185.82 352.639 189.901 345.134 192.219 336.89C194.319 329.352 194.932 321.403 194.016 313.58C193.202 306.628 191.182 299.916 188.068 293.811C185.383 288.567 181.921 283.861 177.824 279.889C174.445 276.746 170.704 274.111 166.7 272.053C163.67 270.607 160.515 269.508 157.283 268.772L153.689 268.115L151.083 267.897L149.502 267.777H148.963C149.142 267.755 149.323 267.755 149.502 267.777H151.101L153.707 267.897L157.301 268.473C160.573 269.155 163.772 270.215 166.844 271.636C170.917 273.669 174.725 276.298 178.166 279.452C182.337 283.406 185.874 288.113 188.625 293.374C191.827 299.544 193.909 306.347 194.753 313.401C195.745 321.345 195.175 329.431 193.082 337.108C190.748 345.525 186.604 353.189 181.005 359.443L181.113 358.926C183.377 366.662 185.732 374.717 188.176 383.011L188.517 384.224L187.493 383.647L164.831 370.938H165.227L163.609 371.595C158.324 373.653 152.725 374.545 147.13 374.22C141.698 373.991 136.353 372.642 131.369 370.242C121.862 365.736 113.952 357.905 108.851 347.947C106.504 343.349 104.79 338.388 103.765 333.23C103.485 331.993 103.275 330.737 103.136 329.471C102.993 328.218 102.759 326.985 102.705 325.752C102.219 318.675 102.894 311.56 104.7 304.75C105.835 300.658 107.41 296.732 109.39 293.056C112.744 286.683 117.283 281.171 122.707 276.886C126.804 273.68 131.352 271.247 136.167 269.687L138.989 268.891C139.819 268.678 140.659 268.512 141.505 268.394C142.816 268.125 144.143 267.966 145.476 267.917L147.938 267.817C148.218 267.775 148.5 267.755 148.783 267.757Z" fill="#FF9B21"/>
<path d="M159.026 314.137H155.702L148.513 302.96V295.621C148.513 295.621 143.374 295.263 143.985 304.869C144.596 314.475 143.985 312.029 143.985 312.029C143.985 312.029 133.076 312.029 132.178 313.123C131.279 314.217 131.225 325.871 131.099 332.375C131.03 333.943 131.437 335.491 132.254 336.774C133.071 338.057 134.253 339 135.61 339.455C135.991 339.572 136.383 339.632 136.778 339.634C139.51 339.634 153.402 337.188 153.402 337.188H159.134L159.026 314.137Z" fill="#FF9B21"/>
<path d="M168.533 312.168L166.485 337.307H160.806V312.685L168.533 312.168Z" fill="#FF9B21"/>
<path d="M236.266 823.956V806.952L208.717 806.733L208.483 832.449L210.19 832.588C217.792 833.125 248.864 833.92 253.968 832.17C259.647 830.221 236.266 823.956 236.266 823.956Z" fill="#FF9B21"/>
<path d="M254.615 830.579C254.615 830.858 244.299 831.096 231.594 831.096C218.888 831.096 208.573 830.858 208.573 830.579C208.573 830.301 218.888 830.062 231.594 830.062C244.299 830.062 254.615 830.301 254.615 830.579Z" fill="#263238"/>
<path d="M236.752 827.437C236.518 827.298 236.752 826.403 237.309 825.448C237.866 824.493 238.621 824.096 238.8 824.295C238.98 824.493 238.603 825.249 238.064 826.065C237.524 826.88 236.985 827.576 236.752 827.437Z" fill="#263238"/>
<path d="M238.513 828.551C238.261 828.551 238.387 827.437 238.926 826.383C239.465 825.329 240.184 824.692 240.382 824.851C240.579 825.011 240.256 825.905 239.753 826.84C239.25 827.775 238.746 828.65 238.513 828.551Z" fill="#263238"/>
<path d="M216.876 830.499C216.768 830.499 216.354 830.141 215.761 829.386C215.037 828.414 214.231 827.522 213.353 826.721C212.49 825.957 211.462 825.457 210.37 825.269C209.525 825.149 208.986 825.269 208.932 825.149C208.878 825.03 209.4 824.612 210.388 824.533C211.692 824.502 212.965 824.981 213.982 825.885C214.935 826.745 215.739 827.79 216.354 828.968C216.768 829.843 216.983 830.42 216.876 830.499Z" fill="#263238"/>
<path d="M236.841 824.235C236.967 824.474 236.5 825.07 235.709 825.388C234.919 825.707 234.218 825.587 234.182 825.388C234.146 825.189 234.703 824.772 235.386 824.493C236.069 824.215 236.698 823.996 236.841 824.235Z" fill="#263238"/>
<path d="M236.41 822.584C236.41 822.882 235.691 823.121 234.757 823.141C233.822 823.161 233.085 822.922 233.103 822.644C233.121 822.365 233.858 822.107 234.757 822.087C235.655 822.067 236.374 822.306 236.41 822.584Z" fill="#263238"/>
<path d="M304.107 823.956V806.952L276.558 806.733L276.324 832.19L278.031 832.329C285.633 832.866 316.723 833.92 321.809 832.17C327.488 830.221 304.107 823.956 304.107 823.956Z" fill="#FF9B21"/>
<path d="M322.456 830.619C322.456 830.897 312.158 831.136 299.435 831.136C286.711 831.136 276.432 830.897 276.432 830.619C276.432 830.34 286.729 830.102 299.435 830.102C312.14 830.102 322.456 830.34 322.456 830.619Z" fill="#263238"/>
<path d="M304.593 827.437C304.377 827.298 304.593 826.403 305.15 825.448C305.707 824.493 306.462 824.096 306.641 824.295C306.821 824.493 306.444 825.249 305.905 826.065C305.365 826.88 304.826 827.576 304.593 827.437Z" fill="#263238"/>
<path d="M306.354 828.551C306.12 828.551 306.228 827.437 306.785 826.383C307.342 825.329 308.043 824.692 308.241 824.851C308.438 825.011 308.097 825.905 307.594 826.84C307.091 827.775 306.605 828.65 306.354 828.551Z" fill="#263238"/>
<path d="M284.717 830.499C284.609 830.499 284.213 830.141 283.602 829.386C282.878 828.414 282.072 827.522 281.194 826.721C280.331 825.957 279.303 825.457 278.211 825.269C277.384 825.149 276.827 825.269 276.773 825.149C276.719 825.03 277.241 824.612 278.229 824.533C279.533 824.502 280.806 824.981 281.823 825.885C282.781 826.739 283.586 827.785 284.195 828.968C284.609 829.843 284.824 830.42 284.717 830.499Z" fill="#263238"/>
<path d="M304.682 824.235C304.808 824.474 304.341 825.07 303.55 825.388C302.76 825.707 302.059 825.587 302.023 825.388C301.987 825.189 302.544 824.772 303.227 824.493C303.91 824.215 304.539 823.996 304.682 824.235Z" fill="#263238"/>
<path d="M304.287 822.584C304.287 822.882 303.568 823.121 302.634 823.141C301.699 823.161 300.98 822.922 300.998 822.644C301.016 822.365 301.735 822.107 302.634 822.087C303.532 822.067 304.287 822.306 304.287 822.584Z" fill="#263238"/>
<path d="M405.608 318.99C404.889 318.175 403.11 318.572 403.11 318.572C403.289 317.427 403.289 316.257 403.11 315.112C402.787 313.998 400.522 314.217 400.522 314.217C400.418 313.279 400.418 312.33 400.522 311.393C400.54 311.185 400.5 310.976 400.407 310.794C400.314 310.613 400.172 310.467 400.001 310.378C398.93 309.895 397.779 309.665 396.623 309.702C395.239 308.608 400.846 299.917 402.931 297.133C405.015 294.348 404.638 292.18 402.787 292.18C401.511 292.18 394.969 300.534 392.957 303.338C390.944 306.142 385.606 313.938 385.427 307.713C385.247 301.488 382.983 296.795 381.563 295.999C380.143 295.203 378.634 297.073 379.406 298.803C380.085 300.769 380.509 302.831 380.664 304.929C380.86 306.6 380.793 308.295 380.467 309.941C379.871 313.003 379.06 316.008 378.041 318.93H377.897C377.897 318.93 338.684 360.557 335.844 363.52C333.31 366.185 282.344 360.358 272.119 359.165C268.644 358.602 265.135 358.336 261.624 358.369C257.185 358.588 256.394 359.284 251.973 359.344C240.808 359.481 229.67 360.564 218.655 362.585C213.667 363.524 209.008 365.96 205.186 369.629C201.364 373.297 198.526 378.057 196.981 383.389C186.684 418.989 163.358 503.256 159.242 550.59C156.132 556.831 153.325 563.251 150.832 569.822C147.938 578.534 148.639 578.832 149.61 579.031C152.233 579.568 155.217 563.935 156.331 567.714C157.445 571.493 150.67 586.35 153.419 586.787C157.014 587.344 159.871 570.876 160.213 569.564C160.554 568.251 162.333 568.669 162.01 569.902C161.489 571.652 156.439 590.208 159.961 590.805C161.902 591.123 162.118 587.205 162.118 587.205C162.118 587.205 165.712 569.444 167.347 569.802C168.982 570.16 167.239 580.642 166.413 584.142C165.586 587.642 166.736 589.412 168.425 588.557C169.576 587.961 172.325 577.32 173.08 573.86C173.835 570.399 175.722 560.813 178.256 566.362C180.79 571.911 184.635 575.133 186.217 575.212C186.573 575.167 186.909 575.004 187.181 574.746C187.453 574.487 187.65 574.144 187.744 573.762C187.839 573.379 187.828 572.973 187.713 572.597C187.597 572.221 187.383 571.892 187.097 571.652C185.737 570.182 184.57 568.508 183.629 566.68C182.791 565.256 182.183 563.681 181.832 562.026C181.108 558.727 180.686 555.355 180.574 551.963L180.286 549.974C184.312 527.918 195.903 463.181 212.634 421.833L219.499 437.465L222.483 449.04L204.188 499.02L282.219 497.886L270.573 448.284L284.717 396.575C300.01 396.952 339.277 397.589 345.818 394.307C354.049 390.33 396.623 330.824 396.623 330.824C399.398 328.437 402.055 325.888 404.584 323.186C404.584 323.186 407.172 320.78 405.608 318.99Z" fill="#FFBE9D"/>
<path d="M200.755 462.087C203.02 453.535 214.647 411.252 214.647 411.252C214.647 411.252 220.362 445.719 218.852 449.875C217.464 453.434 215.823 456.865 213.946 460.138C200.755 482.353 202.481 493.471 202.481 493.471L282.183 490.786C282.362 478.455 275.767 449.776 274.401 445.202C273.035 440.627 277.582 425.651 277.582 425.651C277.582 425.651 286.568 415.528 286.244 410.317C286.073 405.637 285.55 400.98 284.681 396.396L333.203 398.384L331.675 361.989L261.983 354.272C259.557 361.849 237.614 358.13 237.614 358.13C213.928 359.005 212.455 363.818 202.606 372.291C192.758 380.763 176.458 453.475 176.458 453.475L200.755 462.087Z" fill="#FF9B21"/>
<path d="M247.876 453.475C246.495 453.748 245.088 453.829 243.688 453.714C241.083 453.714 237.506 453.515 233.571 453.078C229.635 452.64 226.077 452.023 223.543 451.467C222.146 451.267 220.776 450.88 219.463 450.313C220.868 450.314 222.27 450.46 223.651 450.751C226.203 451.109 229.743 451.606 233.661 452.043C237.578 452.481 241.137 452.779 243.706 452.978C245.107 452.998 246.503 453.164 247.876 453.475Z" fill="#263238"/>
<path d="M253.339 445.977C251.957 446.727 250.496 447.281 248.99 447.628C241.82 449.713 234.423 450.684 227.011 450.512C225.478 450.567 223.944 450.407 222.447 450.035C223.96 449.823 225.486 449.737 227.011 449.776C229.833 449.677 233.715 449.458 237.992 448.901C242.269 448.344 246.079 447.549 248.774 446.912C250.272 446.47 251.798 446.157 253.339 445.977Z" fill="#263238"/>
<path d="M280.152 412.525C280.116 414.041 279.929 415.549 279.595 417.02C279.128 419.784 278.409 423.563 277.492 427.7C276.576 431.837 275.695 435.655 274.904 438.241C274.586 439.721 274.116 441.155 273.503 442.517C273.603 441.005 273.856 439.511 274.257 438.062C274.94 434.959 275.713 431.379 276.576 427.461C277.438 423.543 278.265 419.963 278.948 416.861C279.191 415.367 279.595 413.912 280.152 412.525Z" fill="#263238"/>
<path d="M201.6 457.015C197.443 456.305 193.339 455.248 189.326 453.853C185.225 452.792 181.2 451.396 177.285 449.677C181.441 450.399 185.543 451.456 189.559 452.839C193.662 453.896 197.686 455.292 201.6 457.015Z" fill="#263238"/>
<path d="M285.543 395.958C284.865 396.087 284.172 396.087 283.494 395.958C281.617 395.745 279.774 395.257 278.013 394.506C275.073 393.284 272.397 391.394 270.156 388.959C267.916 386.523 266.16 383.596 265.002 380.366C263.722 376.812 263.176 372.986 263.403 369.168C263.483 366.02 264.334 362.954 265.865 360.298C266.942 358.509 268.55 357.193 270.412 356.579C270.909 356.427 271.423 356.354 271.939 356.36C272.298 356.36 272.478 356.36 272.478 356.36C272.478 356.36 271.723 356.36 270.519 356.897C268.812 357.595 267.363 358.904 266.404 360.616C263.96 364.873 263.277 372.649 265.883 379.908C267.096 383.331 268.994 386.405 271.436 388.898C273.436 390.938 275.741 392.579 278.247 393.75C280.599 394.779 283.046 395.519 285.543 395.958Z" fill="#263238"/>
<path d="M327.434 397.668C326.984 391.57 326.84 385.448 327.003 379.331C326.862 373.22 327.03 367.105 327.506 361.014C327.956 367.106 328.1 373.221 327.937 379.331C328.088 385.449 327.92 391.572 327.434 397.668Z" fill="#263238"/>
<path d="M261.516 356.499C261.713 352.064 262.127 347.052 262.127 347.052C262.127 347.052 272.047 345.839 272.64 334.503C273.233 323.167 272.64 297.013 272.64 297.013L254.669 286.83L234.721 304.193L237.794 360.875L256.089 362.168C257.487 362.21 258.844 361.638 259.861 360.575C260.878 359.513 261.474 358.047 261.516 356.499Z" fill="#FFBE9D"/>
<path d="M263.295 325.533C263.295 325.533 263.295 325.752 263.133 326.011C263 326.198 262.827 326.347 262.629 326.444C262.432 326.541 262.216 326.583 262.001 326.567C260.851 326.567 259.737 325.096 259.341 323.385C259.153 322.556 259.153 321.689 259.341 320.859C259.378 320.498 259.496 320.152 259.684 319.853C259.873 319.554 260.125 319.312 260.42 319.149C260.661 319.039 260.933 319.039 261.174 319.149C261.354 319.247 261.499 319.408 261.588 319.606C261.713 319.945 261.588 320.163 261.588 320.143C261.588 320.124 261.588 319.945 261.408 319.746C261.314 319.603 261.176 319.504 261.02 319.467C260.864 319.431 260.702 319.459 260.563 319.547C260.343 319.694 260.16 319.901 260.031 320.148C259.902 320.395 259.832 320.674 259.827 320.959C259.675 321.699 259.675 322.466 259.827 323.206C260.186 324.758 261.156 326.011 262.019 326.13C262.188 326.155 262.359 326.142 262.523 326.09C262.687 326.039 262.84 325.951 262.971 325.832C263.187 325.672 263.259 325.513 263.295 325.533Z" fill="#EB996E"/>
<path d="M278.804 290.888C277.42 285.677 272.406 283.091 267.842 281.659C260.887 279.472 253.375 278.517 246.582 281.282C239.789 284.046 231.63 288.899 231.63 297.192C227.622 296.834 225.322 300.713 223.741 305.526C222.729 308.458 222.124 311.542 221.943 314.674C221.44 325.533 218.691 340.529 212.329 348.484C208.735 352.92 203.757 355.982 201.708 361.511C199.911 366.305 200.845 371.993 199.174 376.845C197.682 381.121 194.394 384.164 191.986 387.883C189.532 392.102 188.088 396.943 187.79 401.949C187.491 406.955 188.347 411.963 190.278 416.503C192.223 420.926 194.961 424.864 198.326 428.078C201.69 431.292 205.611 433.715 209.849 435.198C218.243 438.024 227.195 438.121 235.637 435.476C241.974 433.8 247.884 430.556 252.926 425.99C258.084 421.328 261.627 414.835 262.954 407.613C264.229 399.498 262.181 391.245 260.653 383.17C255.873 357.653 257.239 356.321 263.277 332.633C263.421 332.216 263.493 331.778 263.6 331.361C263.708 330.943 263.762 330.744 263.834 330.426C264.006 329.489 264.096 328.537 264.104 327.582C263.222 327.945 262.264 328.022 261.344 327.803C260.424 327.585 259.58 327.08 258.91 326.349C258.239 325.569 257.771 324.602 257.555 323.552C257.34 322.502 257.386 321.406 257.688 320.382C258.112 319.262 258.744 318.253 259.543 317.421C260.341 316.588 261.289 315.951 262.325 315.549C264.319 314.634 266.458 314.157 268.417 313.143C272.568 310.955 275.443 306.421 277.402 301.667C279.013 298.373 279.51 294.551 278.804 290.888Z" fill="#263238"/>
<path d="M264.014 326.07C264.394 326.691 264.707 327.358 264.948 328.059C265.487 329.312 266.206 331.082 266.997 333.131L267.141 333.508H266.763L264.966 333.687C263.726 333.687 262.684 333.946 261.462 333.926C261.355 333.9 261.257 333.844 261.175 333.764C261.093 333.684 261.031 333.582 260.995 333.469C260.941 333.288 260.941 333.093 260.995 332.912C261.036 332.644 261.09 332.378 261.156 332.116L261.48 330.704C261.642 329.762 261.895 328.842 262.235 327.96C262.201 328.92 262.075 329.873 261.857 330.804L261.606 332.216C261.516 332.693 261.354 333.429 261.606 333.369C262.504 333.369 263.78 333.15 264.966 333.071L266.763 332.892L266.53 333.329C265.757 331.341 265.11 329.471 264.733 328.178C264.402 327.518 264.159 326.808 264.014 326.07Z" fill="#FF9B21"/>
<path d="M202.481 493.471L282.183 490.786L316.867 640.625L310.487 812.501H268.345L273.503 644.285L242.682 539.97L247.426 819.163L204.835 819.859L200.36 557.432C200.162 550.133 198.006 533.685 198.815 526.446L202.481 493.471Z" fill="#263238"/>
<path d="M253.285 542.098C251.98 542.189 250.671 542.102 249.385 541.839C246.977 541.521 243.688 540.964 240.076 540.169C236.464 539.373 233.229 538.458 230.893 537.723C229.644 537.419 228.436 536.937 227.299 536.291C227.299 535.992 233.157 537.544 240.346 539.155C247.534 540.766 253.321 541.8 253.285 542.098Z" fill="#455A64"/>
<path d="M310.056 803.074C310.056 803.352 300.513 803.591 288.742 803.591C276.971 803.591 267.41 803.352 267.41 803.074C267.41 802.795 276.953 802.556 288.742 802.556C300.531 802.556 310.056 802.775 310.056 803.074Z" fill="#455A64"/>
<path d="M247.049 811.904C247.049 812.202 237.776 812.421 226.346 812.421C214.917 812.421 205.662 812.202 205.662 811.904C205.662 811.606 214.935 811.387 226.346 811.387C237.758 811.387 247.049 811.626 247.049 811.904Z" fill="#455A64"/>
<path d="M241.55 811.188C241.298 811.188 240.184 750.19 239.052 674.953C237.92 599.715 237.255 538.677 237.488 538.677C237.722 538.677 238.872 599.655 239.986 674.933C241.101 750.21 241.819 811.188 241.55 811.188Z" fill="#455A64"/>
<path d="M304.395 803.074C304.375 802.802 304.375 802.529 304.395 802.258V799.872C304.395 797.724 304.539 794.641 304.647 790.723C304.898 782.767 305.258 771.212 305.707 757.052C306.677 728.572 308.043 689.312 309.535 645.975C309.535 645.557 309.535 645.16 309.535 644.802V644.941C300.1 603.175 291.564 565.268 285.364 537.842L278.175 505.404C277.348 501.605 276.719 498.642 276.27 496.574C276.054 495.599 275.911 494.843 275.785 494.266C275.715 494.008 275.673 493.741 275.659 493.471C275.752 493.722 275.825 493.981 275.875 494.247C276.019 494.803 276.198 495.559 276.45 496.514C276.935 498.503 277.636 501.526 278.534 505.305C280.332 512.981 282.866 524.039 286.028 537.663C292.282 565.069 300.909 602.877 310.469 644.702V644.841C310.469 645.199 310.469 645.617 310.469 646.015C308.87 689.352 307.414 728.591 306.354 757.072C305.797 771.252 305.329 782.728 305.006 790.723C304.826 794.701 304.682 797.724 304.593 799.872C304.593 800.886 304.485 801.681 304.467 802.258C304.469 802.532 304.445 802.805 304.395 803.074Z" fill="#455A64"/>
<path d="M290.647 641.302C287.62 642.403 284.502 643.169 281.338 643.589C277.456 644.325 274.15 644.842 272.658 644.921V644.523C273.143 644.683 273.395 644.782 273.395 644.862C273.395 644.941 273.089 644.862 272.586 644.862H271.508L272.586 644.504C273.988 644.046 277.294 643.29 281.176 642.515C284.29 641.767 287.462 641.361 290.647 641.302Z" fill="#455A64"/>
<path d="M289.91 647.009C287.107 647.151 284.298 647.012 281.518 646.592C278.711 646.528 275.914 646.189 273.161 645.577C278.777 645.07 284.431 645.553 289.91 647.009Z" fill="#455A64"/>
<path opacity="0.2" d="M202.139 496.633C203.083 497.975 204.272 499.081 205.628 499.879C206.985 500.678 208.478 501.151 210.011 501.267C213.221 501.688 216.467 501.621 219.661 501.068C240.238 498.542 262.037 496.216 282.183 490.786C256.106 492.397 228.557 491.86 202.481 493.471L202.211 495.937" fill="black"/>
<g opacity="0.2">
<path opacity="0.2" d="M229.006 537.305L243.706 600.431L242.682 539.97L229.006 537.305Z" fill="black"/>
</g>
</svg>
